G04 #@! TF.GenerationSoftware,KiCad,Pcbnew,8.0.4*
G04 #@! TF.CreationDate,2024-11-26T20:16:45-06:00*
G04 #@! TF.ProjectId,picoMBC,7069636f-4d42-4432-9e6b-696361645f70,rev?*
G04 #@! TF.SameCoordinates,Original*
G04 #@! TF.FileFunction,Legend,Bot*
G04 #@! TF.FilePolarity,Positive*
%FSLAX46Y46*%
G04 Gerber Fmt 4.6, Leading zero omitted, Abs format (unit mm)*
G04 Created by KiCad (PCBNEW 8.0.4) date 2024-11-26 20:16:45*
%MOMM*%
%LPD*%
G01*
G04 APERTURE LIST*
%ADD10C,1.700000*%
%ADD11O,1.700000X1.700000*%
%ADD12R,1.700000X1.700000*%
%ADD13C,3.500000*%
%ADD14C,4.000000*%
%ADD15R,1.600000X1.600000*%
%ADD16C,1.600000*%
%ADD17C,1.400000*%
%ADD18O,1.400000X1.400000*%
%ADD19O,1.800000X1.800000*%
%ADD20O,1.500000X1.500000*%
G04 APERTURE END LIST*
%LPC*%
D10*
X107950000Y-153670000D03*
D11*
X107950000Y-156210000D03*
X107950000Y-158750000D03*
X107950000Y-161290000D03*
X107950000Y-163830000D03*
X107950000Y-166370000D03*
D10*
X93980000Y-137160000D03*
D11*
X93980000Y-134620000D03*
X96520000Y-137160000D03*
X96520000Y-134620000D03*
X99059999Y-137160000D03*
X99060000Y-134620000D03*
X101600000Y-137160000D03*
X101600000Y-134620000D03*
X104140000Y-137160000D03*
X104140000Y-134620000D03*
X106680000Y-137160000D03*
X106680000Y-134620000D03*
X109220000Y-137160000D03*
X109220000Y-134620000D03*
D10*
X111770000Y-66045000D03*
D11*
X111770000Y-63505000D03*
X114310000Y-66045000D03*
X114310000Y-63505000D03*
X116849999Y-66045000D03*
X116850000Y-63505000D03*
X119390000Y-66045000D03*
X119390000Y-63505000D03*
X121930000Y-66045000D03*
X121930000Y-63505000D03*
X124470000Y-66045000D03*
X124470000Y-63505000D03*
X127010000Y-66045000D03*
X127010000Y-63505000D03*
X129550001Y-66045000D03*
X129550000Y-63505000D03*
X132090000Y-66045000D03*
X132090000Y-63505000D03*
X134630000Y-66045000D03*
X134630000Y-63505000D03*
X137170000Y-66045000D03*
X137170000Y-63505000D03*
X139709999Y-66045000D03*
X139710000Y-63505000D03*
X142250000Y-66045000D03*
X142250000Y-63505000D03*
X144790000Y-66045000D03*
X144790000Y-63505000D03*
D12*
X71755000Y-144780000D03*
D11*
X74295000Y-144780000D03*
X76834999Y-144780000D03*
X79375000Y-144780000D03*
X81915000Y-144780000D03*
X84455000Y-144780000D03*
D10*
X111760000Y-81280000D03*
D11*
X111760000Y-78740000D03*
X114300000Y-81280000D03*
X114300000Y-78740000D03*
X116839999Y-81280000D03*
X116840000Y-78740000D03*
X119380000Y-81280000D03*
X119380000Y-78740000D03*
X121920000Y-81280000D03*
X121920000Y-78740000D03*
X124460000Y-81280000D03*
X124460000Y-78740000D03*
X127000000Y-81280000D03*
X127000000Y-78740000D03*
X129540001Y-81280000D03*
X129540000Y-78740000D03*
X132080000Y-81280000D03*
X132080000Y-78740000D03*
X134620000Y-81280000D03*
X134620000Y-78740000D03*
X137160000Y-81280000D03*
X137160000Y-78740000D03*
X139699999Y-81280000D03*
X139700000Y-78740000D03*
X142240000Y-81280000D03*
X142240000Y-78740000D03*
X144780000Y-81280000D03*
X144780000Y-78740000D03*
D10*
X111760000Y-121920000D03*
D11*
X111760000Y-119380000D03*
X114300000Y-121920000D03*
X114300000Y-119380000D03*
X116839999Y-121920000D03*
X116840000Y-119380000D03*
X119380000Y-121920000D03*
X119380000Y-119380000D03*
X121920000Y-121920000D03*
X121920000Y-119380000D03*
X124460000Y-121920000D03*
X124460000Y-119380000D03*
X127000000Y-121920000D03*
X127000000Y-119380000D03*
X129540001Y-121920000D03*
X129540000Y-119380000D03*
X132080000Y-121920000D03*
X132080000Y-119380000D03*
X134620000Y-121920000D03*
X134620000Y-119380000D03*
X137160000Y-121920000D03*
X137160000Y-119380000D03*
X139699999Y-121920000D03*
X139700000Y-119380000D03*
X142240000Y-121920000D03*
X142240000Y-119380000D03*
X144780000Y-121920000D03*
X144780000Y-119380000D03*
D10*
X111760000Y-101600000D03*
D11*
X111760000Y-99060000D03*
X114300000Y-101600000D03*
X114300000Y-99060000D03*
X116839999Y-101600000D03*
X116840000Y-99060000D03*
X119380000Y-101600000D03*
X119380000Y-99060000D03*
X121920000Y-101600000D03*
X121920000Y-99060000D03*
X124460000Y-101600000D03*
X124460000Y-99060000D03*
X127000000Y-101600000D03*
X127000000Y-99060000D03*
X129540001Y-101600000D03*
X129540000Y-99060000D03*
X132080000Y-101600000D03*
X132080000Y-99060000D03*
X134620000Y-101600000D03*
X134620000Y-99060000D03*
X137160000Y-101600000D03*
X137160000Y-99060000D03*
X139699999Y-101600000D03*
X139700000Y-99060000D03*
X142240000Y-101600000D03*
X142240000Y-99060000D03*
X144780000Y-101600000D03*
X144780000Y-99060000D03*
D12*
X67305000Y-110495000D03*
D11*
X69845000Y-110495000D03*
X67305000Y-113035000D03*
X69845000Y-113035000D03*
X67305000Y-115575000D03*
X69845000Y-115575000D03*
X67305000Y-118115000D03*
X69845000Y-118115000D03*
X67305000Y-120655000D03*
X69845000Y-120655000D03*
D13*
X147320000Y-50800000D03*
D10*
X111760000Y-152400000D03*
D11*
X111760000Y-149860000D03*
X114300000Y-152400000D03*
X114300000Y-149860000D03*
X116839999Y-152400000D03*
X116840000Y-149860000D03*
X119380000Y-152400000D03*
X119380000Y-149860000D03*
X121920000Y-152400000D03*
X121920000Y-149860000D03*
X124460000Y-152400000D03*
X124460000Y-149860000D03*
X127000000Y-152400000D03*
X127000000Y-149860000D03*
X129540001Y-152400000D03*
X129540000Y-149860000D03*
X132080000Y-152400000D03*
X132080000Y-149860000D03*
X134620000Y-152400000D03*
X134620000Y-149860000D03*
X137160000Y-152400000D03*
X137160000Y-149860000D03*
X139699999Y-152400000D03*
X139700000Y-149860000D03*
X142240000Y-152400000D03*
X142240000Y-149860000D03*
X144780000Y-152400000D03*
X144780000Y-149860000D03*
D10*
X93980000Y-121920000D03*
D11*
X93980000Y-119380000D03*
X96520000Y-121920000D03*
X96520000Y-119380000D03*
X99059999Y-121920000D03*
X99060000Y-119380000D03*
X101600000Y-121920000D03*
X101600000Y-119380000D03*
X104140000Y-121920000D03*
X104140000Y-119380000D03*
X106680000Y-121920000D03*
X106680000Y-119380000D03*
X109220000Y-121920000D03*
X109220000Y-119380000D03*
D10*
X93980000Y-132080000D03*
D11*
X93980000Y-129540000D03*
X96520000Y-132080000D03*
X96520000Y-129540000D03*
X99059999Y-132080000D03*
X99060000Y-129540000D03*
X101600000Y-132080000D03*
X101600000Y-129540000D03*
X104140000Y-132080000D03*
X104140000Y-129540000D03*
X106680000Y-132080000D03*
X106680000Y-129540000D03*
X109220000Y-132080000D03*
X109220000Y-129540000D03*
D10*
X93980000Y-111760000D03*
D11*
X93980000Y-109220000D03*
X96520000Y-111760000D03*
X96520000Y-109220000D03*
X99059999Y-111760000D03*
X99060000Y-109220000D03*
X101600000Y-111760000D03*
X101600000Y-109220000D03*
X104140000Y-111760000D03*
X104140000Y-109220000D03*
X106680000Y-111760000D03*
X106680000Y-109220000D03*
X109220000Y-111760000D03*
X109220000Y-109220000D03*
D10*
X111770000Y-71125000D03*
D11*
X111770000Y-68585000D03*
X114310000Y-71125000D03*
X114310000Y-68585000D03*
X116849999Y-71125000D03*
X116850000Y-68585000D03*
X119390000Y-71125000D03*
X119390000Y-68585000D03*
X121930000Y-71125000D03*
X121930000Y-68585000D03*
X124470000Y-71125000D03*
X124470000Y-68585000D03*
X127010000Y-71125000D03*
X127010000Y-68585000D03*
X129550001Y-71125000D03*
X129550000Y-68585000D03*
X132090000Y-71125000D03*
X132090000Y-68585000D03*
X134630000Y-71125000D03*
X134630000Y-68585000D03*
X137170000Y-71125000D03*
X137170000Y-68585000D03*
X139709999Y-71125000D03*
X139710000Y-68585000D03*
X142250000Y-71125000D03*
X142250000Y-68585000D03*
X144790000Y-71125000D03*
X144790000Y-68585000D03*
D14*
X59815331Y-103059999D03*
X59815331Y-128059999D03*
D15*
X60115331Y-110019999D03*
D16*
X60115331Y-112789999D03*
X60115331Y-115560000D03*
X60115331Y-118329999D03*
X60115331Y-121099999D03*
X57275331Y-111404999D03*
X57275331Y-114174999D03*
X57275331Y-116944999D03*
X57275331Y-119714999D03*
D10*
X111760000Y-167640000D03*
D11*
X111760000Y-165100000D03*
X114300000Y-167640000D03*
X114300000Y-165100000D03*
X116839999Y-167640000D03*
X116840000Y-165100000D03*
X119380000Y-167640000D03*
X119380000Y-165100000D03*
X121920000Y-167640000D03*
X121920000Y-165100000D03*
X124460000Y-167640000D03*
X124460000Y-165100000D03*
X127000000Y-167640000D03*
X127000000Y-165100000D03*
X129540001Y-167640000D03*
X129540000Y-165100000D03*
X132080000Y-167640000D03*
X132080000Y-165100000D03*
X134620000Y-167640000D03*
X134620000Y-165100000D03*
X137160000Y-167640000D03*
X137160000Y-165100000D03*
X139699999Y-167640000D03*
X139700000Y-165100000D03*
X142240000Y-167640000D03*
X142240000Y-165100000D03*
X144780000Y-167640000D03*
X144780000Y-165100000D03*
D12*
X111760000Y-55880000D03*
D11*
X111760000Y-53340000D03*
X111760000Y-50800001D03*
D10*
X111760000Y-162560000D03*
D11*
X111760000Y-160020000D03*
X114300000Y-162560000D03*
X114300000Y-160020000D03*
X116839999Y-162560000D03*
X116840000Y-160020000D03*
X119380000Y-162560000D03*
X119380000Y-160020000D03*
X121920000Y-162560000D03*
X121920000Y-160020000D03*
X124460000Y-162560000D03*
X124460000Y-160020000D03*
X127000000Y-162560000D03*
X127000000Y-160020000D03*
X129540001Y-162560000D03*
X129540000Y-160020000D03*
X132080000Y-162560000D03*
X132080000Y-160020000D03*
X134620000Y-162560000D03*
X134620000Y-160020000D03*
X137160000Y-162560000D03*
X137160000Y-160020000D03*
X139699999Y-162560000D03*
X139700000Y-160020000D03*
X142240000Y-162560000D03*
X142240000Y-160020000D03*
X144780000Y-162560000D03*
X144780000Y-160020000D03*
D10*
X93980000Y-142240000D03*
D11*
X93980000Y-139700000D03*
X96520000Y-142240000D03*
X96520000Y-139700000D03*
X99059999Y-142240000D03*
X99060000Y-139700000D03*
X101600000Y-142240000D03*
X101600000Y-139700000D03*
X104140000Y-142240000D03*
X104140000Y-139700000D03*
X106680000Y-142240000D03*
X106680000Y-139700000D03*
X109220000Y-142240000D03*
X109220000Y-139700000D03*
D10*
X93980000Y-116840000D03*
D11*
X93980000Y-114300000D03*
X96520000Y-116840000D03*
X96520000Y-114300000D03*
X99059999Y-116840000D03*
X99060000Y-114300000D03*
X101600000Y-116840000D03*
X101600000Y-114300000D03*
X104140000Y-116840000D03*
X104140000Y-114300000D03*
X106680000Y-116840000D03*
X106680000Y-114300000D03*
X109220000Y-116840000D03*
X109220000Y-114300000D03*
D10*
X111760000Y-132080000D03*
D11*
X111760000Y-129540000D03*
X114300000Y-132080000D03*
X114300000Y-129540000D03*
X116839999Y-132080000D03*
X116840000Y-129540000D03*
X119380000Y-132080000D03*
X119380000Y-129540000D03*
X121920000Y-132080000D03*
X121920000Y-129540000D03*
X124460000Y-132080000D03*
X124460000Y-129540000D03*
X127000000Y-132080000D03*
X127000000Y-129540000D03*
X129540001Y-132080000D03*
X129540000Y-129540000D03*
X132080000Y-132080000D03*
X132080000Y-129540000D03*
X134620000Y-132080000D03*
X134620000Y-129540000D03*
X137160000Y-132080000D03*
X137160000Y-129540000D03*
X139699999Y-132080000D03*
X139700000Y-129540000D03*
X142240000Y-132080000D03*
X142240000Y-129540000D03*
X144780000Y-132080000D03*
X144780000Y-129540000D03*
D10*
X111760000Y-96520000D03*
D11*
X111760000Y-93980000D03*
X114300000Y-96520000D03*
X114300000Y-93980000D03*
X116839999Y-96520000D03*
X116840000Y-93980000D03*
X119380000Y-96520000D03*
X119380000Y-93980000D03*
X121920000Y-96520000D03*
X121920000Y-93980000D03*
X124460000Y-96520000D03*
X124460000Y-93980000D03*
X127000000Y-96520000D03*
X127000000Y-93980000D03*
X129540001Y-96520000D03*
X129540000Y-93980000D03*
X132080000Y-96520000D03*
X132080000Y-93980000D03*
X134620000Y-96520000D03*
X134620000Y-93980000D03*
X137160000Y-96520000D03*
X137160000Y-93980000D03*
X139699999Y-96520000D03*
X139700000Y-93980000D03*
X142240000Y-96520000D03*
X142240000Y-93980000D03*
X144780000Y-96520000D03*
X144780000Y-93980000D03*
D10*
X111760000Y-106680000D03*
D11*
X111760000Y-104140000D03*
X114300000Y-106680000D03*
X114300000Y-104140000D03*
X116839999Y-106680000D03*
X116840000Y-104140000D03*
X119380000Y-106680000D03*
X119380000Y-104140000D03*
X121920000Y-106680000D03*
X121920000Y-104140000D03*
X124460000Y-106680000D03*
X124460000Y-104140000D03*
X127000000Y-106680000D03*
X127000000Y-104140000D03*
X129540001Y-106680000D03*
X129540000Y-104140000D03*
X132080000Y-106680000D03*
X132080000Y-104140000D03*
X134620000Y-106680000D03*
X134620000Y-104140000D03*
X137160000Y-106680000D03*
X137160000Y-104140000D03*
X139699999Y-106680000D03*
X139700000Y-104140000D03*
X142240000Y-106680000D03*
X142240000Y-104140000D03*
X144780000Y-106680000D03*
X144780000Y-104140000D03*
D10*
X111760000Y-116840000D03*
D11*
X111760000Y-114300000D03*
X114300000Y-116840000D03*
X114300000Y-114300000D03*
X116839999Y-116840000D03*
X116840000Y-114300000D03*
X119380000Y-116840000D03*
X119380000Y-114300000D03*
X121920000Y-116840000D03*
X121920000Y-114300000D03*
X124460000Y-116840000D03*
X124460000Y-114300000D03*
X127000000Y-116840000D03*
X127000000Y-114300000D03*
X129540001Y-116840000D03*
X129540000Y-114300000D03*
X132080000Y-116840000D03*
X132080000Y-114300000D03*
X134620000Y-116840000D03*
X134620000Y-114300000D03*
X137160000Y-116840000D03*
X137160000Y-114300000D03*
X139699999Y-116840000D03*
X139700000Y-114300000D03*
X142240000Y-116840000D03*
X142240000Y-114300000D03*
X144780000Y-116840000D03*
X144780000Y-114300000D03*
D10*
X111770000Y-76205000D03*
D11*
X111770000Y-73665000D03*
X114310000Y-76205000D03*
X114310000Y-73665000D03*
X116849999Y-76205000D03*
X116850000Y-73665000D03*
X119390000Y-76205000D03*
X119390000Y-73665000D03*
X121930000Y-76205000D03*
X121930000Y-73665000D03*
X124470000Y-76205000D03*
X124470000Y-73665000D03*
X127010000Y-76205000D03*
X127010000Y-73665000D03*
X129550001Y-76205000D03*
X129550000Y-73665000D03*
X132090000Y-76205000D03*
X132090000Y-73665000D03*
X134630000Y-76205000D03*
X134630000Y-73665000D03*
X137170000Y-76205000D03*
X137170000Y-73665000D03*
X139709999Y-76205000D03*
X139710000Y-73665000D03*
X142250000Y-76205000D03*
X142250000Y-73665000D03*
X144790000Y-76205000D03*
X144790000Y-73665000D03*
D10*
X111760000Y-127000000D03*
D11*
X111760000Y-124460000D03*
X114300000Y-127000000D03*
X114300000Y-124460000D03*
X116839999Y-127000000D03*
X116840000Y-124460000D03*
X119380000Y-127000000D03*
X119380000Y-124460000D03*
X121920000Y-127000000D03*
X121920000Y-124460000D03*
X124460000Y-127000000D03*
X124460000Y-124460000D03*
X127000000Y-127000000D03*
X127000000Y-124460000D03*
X129540001Y-127000000D03*
X129540000Y-124460000D03*
X132080000Y-127000000D03*
X132080000Y-124460000D03*
X134620000Y-127000000D03*
X134620000Y-124460000D03*
X137160000Y-127000000D03*
X137160000Y-124460000D03*
X139699999Y-127000000D03*
X139700000Y-124460000D03*
X142240000Y-127000000D03*
X142240000Y-124460000D03*
X144780000Y-127000000D03*
X144780000Y-124460000D03*
D10*
X111760000Y-86360000D03*
D11*
X111760000Y-83820000D03*
X114300000Y-86360000D03*
X114300000Y-83820000D03*
X116839999Y-86360000D03*
X116840000Y-83820000D03*
X119380000Y-86360000D03*
X119380000Y-83820000D03*
X121920000Y-86360000D03*
X121920000Y-83820000D03*
X124460000Y-86360000D03*
X124460000Y-83820000D03*
X127000000Y-86360000D03*
X127000000Y-83820000D03*
X129540001Y-86360000D03*
X129540000Y-83820000D03*
X132080000Y-86360000D03*
X132080000Y-83820000D03*
X134620000Y-86360000D03*
X134620000Y-83820000D03*
X137160000Y-86360000D03*
X137160000Y-83820000D03*
X139699999Y-86360000D03*
X139700000Y-83820000D03*
X142240000Y-86360000D03*
X142240000Y-83820000D03*
X144780000Y-86360000D03*
X144780000Y-83820000D03*
D10*
X111760000Y-147320000D03*
D11*
X111760000Y-144780000D03*
X114300000Y-147320000D03*
X114300000Y-144780000D03*
X116839999Y-147320000D03*
X116840000Y-144780000D03*
X119380000Y-147320000D03*
X119380000Y-144780000D03*
X121920000Y-147320000D03*
X121920000Y-144780000D03*
X124460000Y-147320000D03*
X124460000Y-144780000D03*
X127000000Y-147320000D03*
X127000000Y-144780000D03*
X129540001Y-147320000D03*
X129540000Y-144780000D03*
X132080000Y-147320000D03*
X132080000Y-144780000D03*
X134620000Y-147320000D03*
X134620000Y-144780000D03*
X137160000Y-147320000D03*
X137160000Y-144780000D03*
X139699999Y-147320000D03*
X139700000Y-144780000D03*
X142240000Y-147320000D03*
X142240000Y-144780000D03*
X144780000Y-147320000D03*
X144780000Y-144780000D03*
D10*
X111760000Y-91440000D03*
D11*
X111760000Y-88900000D03*
X114300000Y-91440000D03*
X114300000Y-88900000D03*
X116839999Y-91440000D03*
X116840000Y-88900000D03*
X119380000Y-91440000D03*
X119380000Y-88900000D03*
X121920000Y-91440000D03*
X121920000Y-88900000D03*
X124460000Y-91440000D03*
X124460000Y-88900000D03*
X127000000Y-91440000D03*
X127000000Y-88900000D03*
X129540001Y-91440000D03*
X129540000Y-88900000D03*
X132080000Y-91440000D03*
X132080000Y-88900000D03*
X134620000Y-91440000D03*
X134620000Y-88900000D03*
X137160000Y-91440000D03*
X137160000Y-88900000D03*
X139699999Y-91440000D03*
X139700000Y-88900000D03*
X142240000Y-91440000D03*
X142240000Y-88900000D03*
X144780000Y-91440000D03*
X144780000Y-88900000D03*
D10*
X111760000Y-142240000D03*
D11*
X111760000Y-139700000D03*
X114300000Y-142240000D03*
X114300000Y-139700000D03*
X116839999Y-142240000D03*
X116840000Y-139700000D03*
X119380000Y-142240000D03*
X119380000Y-139700000D03*
X121920000Y-142240000D03*
X121920000Y-139700000D03*
X124460000Y-142240000D03*
X124460000Y-139700000D03*
X127000000Y-142240000D03*
X127000000Y-139700000D03*
X129540001Y-142240000D03*
X129540000Y-139700000D03*
X132080000Y-142240000D03*
X132080000Y-139700000D03*
X134620000Y-142240000D03*
X134620000Y-139700000D03*
X137160000Y-142240000D03*
X137160000Y-139700000D03*
X139699999Y-142240000D03*
X139700000Y-139700000D03*
X142240000Y-142240000D03*
X142240000Y-139700000D03*
X144780000Y-142240000D03*
X144780000Y-139700000D03*
D10*
X93980000Y-127000000D03*
D11*
X93980000Y-124460000D03*
X96520000Y-127000000D03*
X96520000Y-124460000D03*
X99059999Y-127000000D03*
X99060000Y-124460000D03*
X101600000Y-127000000D03*
X101600000Y-124460000D03*
X104140000Y-127000000D03*
X104140000Y-124460000D03*
X106680000Y-127000000D03*
X106680000Y-124460000D03*
X109220000Y-127000000D03*
X109220000Y-124460000D03*
D17*
X123190000Y-46990000D03*
D18*
X115570000Y-46990000D03*
D10*
X111760000Y-157480000D03*
D11*
X111760000Y-154940000D03*
X114300000Y-157480000D03*
X114300000Y-154940000D03*
X116839999Y-157480000D03*
X116840000Y-154940000D03*
X119380000Y-157480000D03*
X119380000Y-154940000D03*
X121920000Y-157480000D03*
X121920000Y-154940000D03*
X124460000Y-157480000D03*
X124460000Y-154940000D03*
X127000000Y-157480000D03*
X127000000Y-154940000D03*
X129540001Y-157480000D03*
X129540000Y-154940000D03*
X132080000Y-157480000D03*
X132080000Y-154940000D03*
X134620000Y-157480000D03*
X134620000Y-154940000D03*
X137160000Y-157480000D03*
X137160000Y-154940000D03*
X139699999Y-157480000D03*
X139700000Y-154940000D03*
X142240000Y-157480000D03*
X142240000Y-154940000D03*
X144780000Y-157480000D03*
X144780000Y-154940000D03*
D10*
X111760000Y-111760000D03*
D11*
X111760000Y-109220000D03*
X114300000Y-111760000D03*
X114300000Y-109220000D03*
X116839999Y-111760000D03*
X116840000Y-109220000D03*
X119380000Y-111760000D03*
X119380000Y-109220000D03*
X121920000Y-111760000D03*
X121920000Y-109220000D03*
X124460000Y-111760000D03*
X124460000Y-109220000D03*
X127000000Y-111760000D03*
X127000000Y-109220000D03*
X129540001Y-111760000D03*
X129540000Y-109220000D03*
X132080000Y-111760000D03*
X132080000Y-109220000D03*
X134620000Y-111760000D03*
X134620000Y-109220000D03*
X137160000Y-111760000D03*
X137160000Y-109220000D03*
X139699999Y-111760000D03*
X139700000Y-109220000D03*
X142240000Y-111760000D03*
X142240000Y-109220000D03*
X144780000Y-111760000D03*
X144780000Y-109220000D03*
D19*
X54105000Y-162745000D03*
D20*
X57135000Y-162445000D03*
X57135000Y-157595000D03*
D19*
X54105000Y-157295000D03*
D11*
X53975000Y-168910000D03*
X56515000Y-168910000D03*
D12*
X59055000Y-168910000D03*
D11*
X61595000Y-168910000D03*
X64135000Y-168910000D03*
X66675000Y-168910000D03*
X69215000Y-168910000D03*
D12*
X71755000Y-168910000D03*
D11*
X74295000Y-168910000D03*
X76835000Y-168910000D03*
X79375000Y-168910000D03*
X81915000Y-168910000D03*
D12*
X84455000Y-168910000D03*
D11*
X86995000Y-168910000D03*
X89535000Y-168910000D03*
X92075000Y-168910000D03*
X94615000Y-168910000D03*
D12*
X97155000Y-168910000D03*
D11*
X99695000Y-168910000D03*
X102235000Y-168910000D03*
X102235000Y-151130000D03*
X99695000Y-151130000D03*
D12*
X97155000Y-151130000D03*
D11*
X94615000Y-151130000D03*
X92075000Y-151130000D03*
X89535000Y-151130000D03*
X86995000Y-151130000D03*
D12*
X84455000Y-151130000D03*
D11*
X81915000Y-151130000D03*
X79375000Y-151130000D03*
X76835000Y-151130000D03*
X74295000Y-151130000D03*
D12*
X71755000Y-151130000D03*
D11*
X69215000Y-151130000D03*
X66675000Y-151130000D03*
X64135000Y-151130000D03*
X61595000Y-151130000D03*
D12*
X59055000Y-151130000D03*
D11*
X56515000Y-151130000D03*
X53975000Y-151130000D03*
X102005000Y-162560000D03*
D12*
X102005000Y-160020000D03*
D11*
X102005000Y-157480000D03*
D10*
X111760000Y-172720000D03*
D11*
X111760000Y-170180000D03*
X114300000Y-172720000D03*
X114300000Y-170180000D03*
X116839999Y-172720000D03*
X116840000Y-170180000D03*
X119380000Y-172720000D03*
X119380000Y-170180000D03*
X121920000Y-172720000D03*
X121920000Y-170180000D03*
X124460000Y-172720000D03*
X124460000Y-170180000D03*
X127000000Y-172720000D03*
X127000000Y-170180000D03*
X129540001Y-172720000D03*
X129540000Y-170180000D03*
X132080000Y-172720000D03*
X132080000Y-170180000D03*
X134620000Y-172720000D03*
X134620000Y-170180000D03*
X137160000Y-172720000D03*
X137160000Y-170180000D03*
X139699999Y-172720000D03*
X139700000Y-170180000D03*
X142240000Y-172720000D03*
X142240000Y-170180000D03*
X144780000Y-172720000D03*
X144780000Y-170180000D03*
D12*
X66040000Y-43180000D03*
D11*
X66040000Y-40640000D03*
X68580000Y-43180000D03*
X68580000Y-40640000D03*
X71120000Y-43180000D03*
X71120000Y-40640000D03*
X73660000Y-43180000D03*
X73660000Y-40640000D03*
X76200000Y-43180000D03*
X76200000Y-40640000D03*
X78740000Y-43180000D03*
X78740000Y-40640000D03*
X81280000Y-43180000D03*
X81280000Y-40640000D03*
X83820000Y-43180000D03*
X83820000Y-40640000D03*
X86360000Y-43180000D03*
X86360000Y-40640000D03*
X88900000Y-43180000D03*
X88900000Y-40640000D03*
X91440000Y-43180000D03*
X91440000Y-40640000D03*
X93980000Y-43180000D03*
X93980000Y-40640000D03*
X96520000Y-43180000D03*
X96520000Y-40640000D03*
X99060000Y-43180000D03*
X99060000Y-40640000D03*
X101600000Y-43180000D03*
X101600000Y-40640000D03*
X104140000Y-43180000D03*
X104140000Y-40640000D03*
X106680000Y-43180000D03*
X106680000Y-40640000D03*
X109220000Y-43180000D03*
X109220000Y-40640000D03*
X111760000Y-43180000D03*
X111760000Y-40640000D03*
X114300000Y-43180000D03*
X114300000Y-40640000D03*
X116840000Y-43180000D03*
X116840000Y-40640000D03*
X119380000Y-43180000D03*
X119380000Y-40640000D03*
X121920000Y-43180000D03*
X121920000Y-40640000D03*
X124460000Y-43180000D03*
X124460000Y-40640000D03*
X127000000Y-43180000D03*
X127000000Y-40640000D03*
D10*
X111760000Y-137160000D03*
D11*
X111760000Y-134620000D03*
X114300000Y-137160000D03*
X114300000Y-134620000D03*
X116839999Y-137160000D03*
X116840000Y-134620000D03*
X119380000Y-137160000D03*
X119380000Y-134620000D03*
X121920000Y-137160000D03*
X121920000Y-134620000D03*
X124460000Y-137160000D03*
X124460000Y-134620000D03*
X127000000Y-137160000D03*
X127000000Y-134620000D03*
X129540001Y-137160000D03*
X129540000Y-134620000D03*
X132080000Y-137160000D03*
X132080000Y-134620000D03*
X134620000Y-137160000D03*
X134620000Y-134620000D03*
X137160000Y-137160000D03*
X137160000Y-134620000D03*
X139699999Y-137160000D03*
X139700000Y-134620000D03*
X142240000Y-137160000D03*
X142240000Y-134620000D03*
X144780000Y-137160000D03*
X144780000Y-134620000D03*
%LPD*%
M02*
