M48
; DRILL file {KiCad 8.0.4} date 2024-11-26T20:16:59-0600
; FORMAT={-:-/ absolute / metric / decimal}
; #@! TF.CreationDate,2024-11-26T20:16:59-06:00
; #@! TF.GenerationSoftware,Kicad,Pcbnew,8.0.4
; #@! TF.FileFunction,Plated,1,2,PTH
FMAT,2
METRIC
; #@! TA.AperFunction,Plated,PTH,ViaDrill
T1C0.500
; #@! TA.AperFunction,Plated,PTH,ComponentDrill
T2C0.700
; #@! TA.AperFunction,Plated,PTH,ComponentDrill
T3C1.000
; #@! TA.AperFunction,Plated,PTH,ComponentDrill
T4C1.020
; #@! TA.AperFunction,Plated,PTH,ComponentDrill
T5C3.200
%
G90
G05
T1
X53.975Y-165.735
X55.88Y-166.37
X57.15Y-133.35
X57.15Y-146.05
X60.96Y-133.35
X60.96Y-139.7
X60.96Y-146.05
X61.595Y-153.035
X64.135Y-60.96
X64.135Y-135.255
X66.675Y-60.96
X66.675Y-135.255
X66.675Y-147.32
X66.675Y-153.035
X69.215Y-60.96
X69.215Y-135.255
X69.215Y-144.78
X70.485Y-52.705
X71.755Y-53.34
X71.755Y-60.96
X71.755Y-135.255
X71.755Y-147.32
X71.755Y-153.035
X72.39Y-161.29
X73.025Y-53.975
X74.295Y-54.61
X74.295Y-60.96
X74.295Y-135.255
X74.295Y-153.035
X75.565Y-55.245
X75.565Y-161.29
X76.835Y-55.88
X76.835Y-60.96
X76.835Y-135.255
X76.835Y-153.035
X78.105Y-56.515
X79.375Y-57.15
X79.375Y-60.96
X79.375Y-135.255
X79.375Y-147.32
X79.375Y-153.035
X80.645Y-163.195
X81.915Y-135.255
X81.915Y-153.035
X83.82Y-60.96
X84.455Y-135.255
X84.455Y-153.035
X85.09Y-50.165
X85.09Y-161.29
X86.995Y-153.035
X88.265Y-161.29
X89.535Y-153.035
X90.17Y-50.165
X90.805Y-135.255
X90.805Y-161.29
X92.075Y-154.94
X93.345Y-53.975
X93.345Y-161.29
X94.615Y-54.61
X94.615Y-154.94
X95.885Y-55.245
X96.52Y-161.29
X97.155Y-55.88
X97.155Y-153.035
X97.79Y-60.96
X98.425Y-56.515
X99.695Y-57.15
X100.965Y-56.515
X100.965Y-167.005
X101.6Y-54.61
X102.235Y-57.15
X106.68Y-54.61
X107.95Y-50.8
X109.22Y-46.228
X109.22Y-60.325
X111.125Y-60.325
X111.76Y-46.355
X113.665Y-55.88
X113.665Y-60.325
X114.935Y-50.8
X114.935Y-53.34
X118.745Y-52.07
X120.65Y-45.212
X123.825Y-50.165
X123.825Y-53.34
X125.095Y-56.515
X125.73Y-51.435
X127.0Y-56.515
X128.27Y-50.165
X128.27Y-54.61
X130.81Y-45.72
X132.08Y-44.45
X132.08Y-56.515
X137.16Y-49.53
X137.16Y-53.34
T2
X115.57Y-46.99
X123.19Y-46.99
T3
X57.275Y-111.405
X57.275Y-114.175
X57.275Y-116.945
X57.275Y-119.715
X60.115Y-110.02
X60.115Y-112.79
X60.115Y-115.56
X60.115Y-118.33
X60.115Y-121.1
X66.04Y-40.64
X66.04Y-43.18
X67.305Y-110.495
X67.305Y-113.035
X67.305Y-115.575
X67.305Y-118.115
X67.305Y-120.655
X68.58Y-40.64
X68.58Y-43.18
X69.845Y-110.495
X69.845Y-113.035
X69.845Y-115.575
X69.845Y-118.115
X69.845Y-120.655
X71.12Y-40.64
X71.12Y-43.18
X71.755Y-144.78
X73.66Y-40.64
X73.66Y-43.18
X74.295Y-144.78
X76.2Y-40.64
X76.2Y-43.18
X76.835Y-144.78
X78.74Y-40.64
X78.74Y-43.18
X79.375Y-144.78
X81.28Y-40.64
X81.28Y-43.18
X81.915Y-144.78
X83.82Y-40.64
X83.82Y-43.18
X84.455Y-144.78
X86.36Y-40.64
X86.36Y-43.18
X88.9Y-40.64
X88.9Y-43.18
X91.44Y-40.64
X91.44Y-43.18
X93.98Y-40.64
X93.98Y-43.18
X93.98Y-109.22
X93.98Y-111.76
X93.98Y-114.3
X93.98Y-116.84
X93.98Y-119.38
X93.98Y-121.92
X93.98Y-124.46
X93.98Y-127.0
X93.98Y-129.54
X93.98Y-132.08
X93.98Y-134.62
X93.98Y-137.16
X93.98Y-139.7
X93.98Y-142.24
X96.52Y-40.64
X96.52Y-43.18
X96.52Y-109.22
X96.52Y-111.76
X96.52Y-114.3
X96.52Y-116.84
X96.52Y-119.38
X96.52Y-121.92
X96.52Y-124.46
X96.52Y-127.0
X96.52Y-129.54
X96.52Y-132.08
X96.52Y-134.62
X96.52Y-137.16
X96.52Y-139.7
X96.52Y-142.24
X99.06Y-111.76
X99.06Y-116.84
X99.06Y-121.92
X99.06Y-127.0
X99.06Y-132.08
X99.06Y-137.16
X99.06Y-142.24
X99.06Y-40.64
X99.06Y-43.18
X99.06Y-109.22
X99.06Y-114.3
X99.06Y-119.38
X99.06Y-124.46
X99.06Y-129.54
X99.06Y-134.62
X99.06Y-139.7
X101.6Y-40.64
X101.6Y-43.18
X101.6Y-109.22
X101.6Y-111.76
X101.6Y-114.3
X101.6Y-116.84
X101.6Y-119.38
X101.6Y-121.92
X101.6Y-124.46
X101.6Y-127.0
X101.6Y-129.54
X101.6Y-132.08
X101.6Y-134.62
X101.6Y-137.16
X101.6Y-139.7
X101.6Y-142.24
X104.14Y-40.64
X104.14Y-43.18
X104.14Y-109.22
X104.14Y-111.76
X104.14Y-114.3
X104.14Y-116.84
X104.14Y-119.38
X104.14Y-121.92
X104.14Y-124.46
X104.14Y-127.0
X104.14Y-129.54
X104.14Y-132.08
X104.14Y-134.62
X104.14Y-137.16
X104.14Y-139.7
X104.14Y-142.24
X106.68Y-40.64
X106.68Y-43.18
X106.68Y-109.22
X106.68Y-111.76
X106.68Y-114.3
X106.68Y-116.84
X106.68Y-119.38
X106.68Y-121.92
X106.68Y-124.46
X106.68Y-127.0
X106.68Y-129.54
X106.68Y-132.08
X106.68Y-134.62
X106.68Y-137.16
X106.68Y-139.7
X106.68Y-142.24
X107.95Y-153.67
X107.95Y-156.21
X107.95Y-158.75
X107.95Y-161.29
X107.95Y-163.83
X107.95Y-166.37
X109.22Y-40.64
X109.22Y-43.18
X109.22Y-109.22
X109.22Y-111.76
X109.22Y-114.3
X109.22Y-116.84
X109.22Y-119.38
X109.22Y-121.92
X109.22Y-124.46
X109.22Y-127.0
X109.22Y-129.54
X109.22Y-132.08
X109.22Y-134.62
X109.22Y-137.16
X109.22Y-139.7
X109.22Y-142.24
X111.76Y-40.64
X111.76Y-43.18
X111.76Y-50.8
X111.76Y-53.34
X111.76Y-55.88
X111.76Y-78.74
X111.76Y-81.28
X111.76Y-83.82
X111.76Y-86.36
X111.76Y-88.9
X111.76Y-91.44
X111.76Y-93.98
X111.76Y-96.52
X111.76Y-99.06
X111.76Y-101.6
X111.76Y-104.14
X111.76Y-106.68
X111.76Y-109.22
X111.76Y-111.76
X111.76Y-114.3
X111.76Y-116.84
X111.76Y-119.38
X111.76Y-121.92
X111.76Y-124.46
X111.76Y-127.0
X111.76Y-129.54
X111.76Y-132.08
X111.76Y-134.62
X111.76Y-137.16
X111.76Y-139.7
X111.76Y-142.24
X111.76Y-144.78
X111.76Y-147.32
X111.76Y-149.86
X111.76Y-152.4
X111.76Y-154.94
X111.76Y-157.48
X111.76Y-160.02
X111.76Y-162.56
X111.76Y-165.1
X111.76Y-167.64
X111.76Y-170.18
X111.76Y-172.72
X111.77Y-63.505
X111.77Y-66.045
X111.77Y-68.585
X111.77Y-71.125
X111.77Y-73.665
X111.77Y-76.205
X114.3Y-40.64
X114.3Y-43.18
X114.3Y-78.74
X114.3Y-81.28
X114.3Y-83.82
X114.3Y-86.36
X114.3Y-88.9
X114.3Y-91.44
X114.3Y-93.98
X114.3Y-96.52
X114.3Y-99.06
X114.3Y-101.6
X114.3Y-104.14
X114.3Y-106.68
X114.3Y-109.22
X114.3Y-111.76
X114.3Y-114.3
X114.3Y-116.84
X114.3Y-119.38
X114.3Y-121.92
X114.3Y-124.46
X114.3Y-127.0
X114.3Y-129.54
X114.3Y-132.08
X114.3Y-134.62
X114.3Y-137.16
X114.3Y-139.7
X114.3Y-142.24
X114.3Y-144.78
X114.3Y-147.32
X114.3Y-149.86
X114.3Y-152.4
X114.3Y-154.94
X114.3Y-157.48
X114.3Y-160.02
X114.3Y-162.56
X114.3Y-165.1
X114.3Y-167.64
X114.3Y-170.18
X114.3Y-172.72
X114.31Y-63.505
X114.31Y-66.045
X114.31Y-68.585
X114.31Y-71.125
X114.31Y-73.665
X114.31Y-76.205
X116.84Y-81.28
X116.84Y-86.36
X116.84Y-91.44
X116.84Y-96.52
X116.84Y-101.6
X116.84Y-106.68
X116.84Y-111.76
X116.84Y-116.84
X116.84Y-121.92
X116.84Y-127.0
X116.84Y-132.08
X116.84Y-137.16
X116.84Y-142.24
X116.84Y-147.32
X116.84Y-152.4
X116.84Y-157.48
X116.84Y-162.56
X116.84Y-167.64
X116.84Y-172.72
X116.84Y-40.64
X116.84Y-43.18
X116.84Y-78.74
X116.84Y-83.82
X116.84Y-88.9
X116.84Y-93.98
X116.84Y-99.06
X116.84Y-104.14
X116.84Y-109.22
X116.84Y-114.3
X116.84Y-119.38
X116.84Y-124.46
X116.84Y-129.54
X116.84Y-134.62
X116.84Y-139.7
X116.84Y-144.78
X116.84Y-149.86
X116.84Y-154.94
X116.84Y-160.02
X116.84Y-165.1
X116.84Y-170.18
X116.85Y-66.045
X116.85Y-71.125
X116.85Y-76.205
X116.85Y-63.505
X116.85Y-68.585
X116.85Y-73.665
X119.38Y-40.64
X119.38Y-43.18
X119.38Y-78.74
X119.38Y-81.28
X119.38Y-83.82
X119.38Y-86.36
X119.38Y-88.9
X119.38Y-91.44
X119.38Y-93.98
X119.38Y-96.52
X119.38Y-99.06
X119.38Y-101.6
X119.38Y-104.14
X119.38Y-106.68
X119.38Y-109.22
X119.38Y-111.76
X119.38Y-114.3
X119.38Y-116.84
X119.38Y-119.38
X119.38Y-121.92
X119.38Y-124.46
X119.38Y-127.0
X119.38Y-129.54
X119.38Y-132.08
X119.38Y-134.62
X119.38Y-137.16
X119.38Y-139.7
X119.38Y-142.24
X119.38Y-144.78
X119.38Y-147.32
X119.38Y-149.86
X119.38Y-152.4
X119.38Y-154.94
X119.38Y-157.48
X119.38Y-160.02
X119.38Y-162.56
X119.38Y-165.1
X119.38Y-167.64
X119.38Y-170.18
X119.38Y-172.72
X119.39Y-63.505
X119.39Y-66.045
X119.39Y-68.585
X119.39Y-71.125
X119.39Y-73.665
X119.39Y-76.205
X121.92Y-40.64
X121.92Y-43.18
X121.92Y-78.74
X121.92Y-81.28
X121.92Y-83.82
X121.92Y-86.36
X121.92Y-88.9
X121.92Y-91.44
X121.92Y-93.98
X121.92Y-96.52
X121.92Y-99.06
X121.92Y-101.6
X121.92Y-104.14
X121.92Y-106.68
X121.92Y-109.22
X121.92Y-111.76
X121.92Y-114.3
X121.92Y-116.84
X121.92Y-119.38
X121.92Y-121.92
X121.92Y-124.46
X121.92Y-127.0
X121.92Y-129.54
X121.92Y-132.08
X121.92Y-134.62
X121.92Y-137.16
X121.92Y-139.7
X121.92Y-142.24
X121.92Y-144.78
X121.92Y-147.32
X121.92Y-149.86
X121.92Y-152.4
X121.92Y-154.94
X121.92Y-157.48
X121.92Y-160.02
X121.92Y-162.56
X121.92Y-165.1
X121.92Y-167.64
X121.92Y-170.18
X121.92Y-172.72
X121.93Y-63.505
X121.93Y-66.045
X121.93Y-68.585
X121.93Y-71.125
X121.93Y-73.665
X121.93Y-76.205
X124.46Y-40.64
X124.46Y-43.18
X124.46Y-78.74
X124.46Y-81.28
X124.46Y-83.82
X124.46Y-86.36
X124.46Y-88.9
X124.46Y-91.44
X124.46Y-93.98
X124.46Y-96.52
X124.46Y-99.06
X124.46Y-101.6
X124.46Y-104.14
X124.46Y-106.68
X124.46Y-109.22
X124.46Y-111.76
X124.46Y-114.3
X124.46Y-116.84
X124.46Y-119.38
X124.46Y-121.92
X124.46Y-124.46
X124.46Y-127.0
X124.46Y-129.54
X124.46Y-132.08
X124.46Y-134.62
X124.46Y-137.16
X124.46Y-139.7
X124.46Y-142.24
X124.46Y-144.78
X124.46Y-147.32
X124.46Y-149.86
X124.46Y-152.4
X124.46Y-154.94
X124.46Y-157.48
X124.46Y-160.02
X124.46Y-162.56
X124.46Y-165.1
X124.46Y-167.64
X124.46Y-170.18
X124.46Y-172.72
X124.47Y-63.505
X124.47Y-66.045
X124.47Y-68.585
X124.47Y-71.125
X124.47Y-73.665
X124.47Y-76.205
X127.0Y-40.64
X127.0Y-43.18
X127.0Y-78.74
X127.0Y-81.28
X127.0Y-83.82
X127.0Y-86.36
X127.0Y-88.9
X127.0Y-91.44
X127.0Y-93.98
X127.0Y-96.52
X127.0Y-99.06
X127.0Y-101.6
X127.0Y-104.14
X127.0Y-106.68
X127.0Y-109.22
X127.0Y-111.76
X127.0Y-114.3
X127.0Y-116.84
X127.0Y-119.38
X127.0Y-121.92
X127.0Y-124.46
X127.0Y-127.0
X127.0Y-129.54
X127.0Y-132.08
X127.0Y-134.62
X127.0Y-137.16
X127.0Y-139.7
X127.0Y-142.24
X127.0Y-144.78
X127.0Y-147.32
X127.0Y-149.86
X127.0Y-152.4
X127.0Y-154.94
X127.0Y-157.48
X127.0Y-160.02
X127.0Y-162.56
X127.0Y-165.1
X127.0Y-167.64
X127.0Y-170.18
X127.0Y-172.72
X127.01Y-63.505
X127.01Y-66.045
X127.01Y-68.585
X127.01Y-71.125
X127.01Y-73.665
X127.01Y-76.205
X129.54Y-78.74
X129.54Y-83.82
X129.54Y-88.9
X129.54Y-93.98
X129.54Y-99.06
X129.54Y-104.14
X129.54Y-109.22
X129.54Y-114.3
X129.54Y-119.38
X129.54Y-124.46
X129.54Y-129.54
X129.54Y-134.62
X129.54Y-139.7
X129.54Y-144.78
X129.54Y-149.86
X129.54Y-154.94
X129.54Y-160.02
X129.54Y-165.1
X129.54Y-170.18
X129.54Y-81.28
X129.54Y-86.36
X129.54Y-91.44
X129.54Y-96.52
X129.54Y-101.6
X129.54Y-106.68
X129.54Y-111.76
X129.54Y-116.84
X129.54Y-121.92
X129.54Y-127.0
X129.54Y-132.08
X129.54Y-137.16
X129.54Y-142.24
X129.54Y-147.32
X129.54Y-152.4
X129.54Y-157.48
X129.54Y-162.56
X129.54Y-167.64
X129.54Y-172.72
X129.55Y-63.505
X129.55Y-68.585
X129.55Y-73.665
X129.55Y-66.045
X129.55Y-71.125
X129.55Y-76.205
X132.08Y-78.74
X132.08Y-81.28
X132.08Y-83.82
X132.08Y-86.36
X132.08Y-88.9
X132.08Y-91.44
X132.08Y-93.98
X132.08Y-96.52
X132.08Y-99.06
X132.08Y-101.6
X132.08Y-104.14
X132.08Y-106.68
X132.08Y-109.22
X132.08Y-111.76
X132.08Y-114.3
X132.08Y-116.84
X132.08Y-119.38
X132.08Y-121.92
X132.08Y-124.46
X132.08Y-127.0
X132.08Y-129.54
X132.08Y-132.08
X132.08Y-134.62
X132.08Y-137.16
X132.08Y-139.7
X132.08Y-142.24
X132.08Y-144.78
X132.08Y-147.32
X132.08Y-149.86
X132.08Y-152.4
X132.08Y-154.94
X132.08Y-157.48
X132.08Y-160.02
X132.08Y-162.56
X132.08Y-165.1
X132.08Y-167.64
X132.08Y-170.18
X132.08Y-172.72
X132.09Y-63.505
X132.09Y-66.045
X132.09Y-68.585
X132.09Y-71.125
X132.09Y-73.665
X132.09Y-76.205
X134.62Y-78.74
X134.62Y-81.28
X134.62Y-83.82
X134.62Y-86.36
X134.62Y-88.9
X134.62Y-91.44
X134.62Y-93.98
X134.62Y-96.52
X134.62Y-99.06
X134.62Y-101.6
X134.62Y-104.14
X134.62Y-106.68
X134.62Y-109.22
X134.62Y-111.76
X134.62Y-114.3
X134.62Y-116.84
X134.62Y-119.38
X134.62Y-121.92
X134.62Y-124.46
X134.62Y-127.0
X134.62Y-129.54
X134.62Y-132.08
X134.62Y-134.62
X134.62Y-137.16
X134.62Y-139.7
X134.62Y-142.24
X134.62Y-144.78
X134.62Y-147.32
X134.62Y-149.86
X134.62Y-152.4
X134.62Y-154.94
X134.62Y-157.48
X134.62Y-160.02
X134.62Y-162.56
X134.62Y-165.1
X134.62Y-167.64
X134.62Y-170.18
X134.62Y-172.72
X134.63Y-63.505
X134.63Y-66.045
X134.63Y-68.585
X134.63Y-71.125
X134.63Y-73.665
X134.63Y-76.205
X137.16Y-78.74
X137.16Y-81.28
X137.16Y-83.82
X137.16Y-86.36
X137.16Y-88.9
X137.16Y-91.44
X137.16Y-93.98
X137.16Y-96.52
X137.16Y-99.06
X137.16Y-101.6
X137.16Y-104.14
X137.16Y-106.68
X137.16Y-109.22
X137.16Y-111.76
X137.16Y-114.3
X137.16Y-116.84
X137.16Y-119.38
X137.16Y-121.92
X137.16Y-124.46
X137.16Y-127.0
X137.16Y-129.54
X137.16Y-132.08
X137.16Y-134.62
X137.16Y-137.16
X137.16Y-139.7
X137.16Y-142.24
X137.16Y-144.78
X137.16Y-147.32
X137.16Y-149.86
X137.16Y-152.4
X137.16Y-154.94
X137.16Y-157.48
X137.16Y-160.02
X137.16Y-162.56
X137.16Y-165.1
X137.16Y-167.64
X137.16Y-170.18
X137.16Y-172.72
X137.17Y-63.505
X137.17Y-66.045
X137.17Y-68.585
X137.17Y-71.125
X137.17Y-73.665
X137.17Y-76.205
X139.7Y-81.28
X139.7Y-86.36
X139.7Y-91.44
X139.7Y-96.52
X139.7Y-101.6
X139.7Y-106.68
X139.7Y-111.76
X139.7Y-116.84
X139.7Y-121.92
X139.7Y-127.0
X139.7Y-132.08
X139.7Y-137.16
X139.7Y-142.24
X139.7Y-147.32
X139.7Y-152.4
X139.7Y-157.48
X139.7Y-162.56
X139.7Y-167.64
X139.7Y-172.72
X139.7Y-78.74
X139.7Y-83.82
X139.7Y-88.9
X139.7Y-93.98
X139.7Y-99.06
X139.7Y-104.14
X139.7Y-109.22
X139.7Y-114.3
X139.7Y-119.38
X139.7Y-124.46
X139.7Y-129.54
X139.7Y-134.62
X139.7Y-139.7
X139.7Y-144.78
X139.7Y-149.86
X139.7Y-154.94
X139.7Y-160.02
X139.7Y-165.1
X139.7Y-170.18
X139.71Y-66.045
X139.71Y-71.125
X139.71Y-76.205
X139.71Y-63.505
X139.71Y-68.585
X139.71Y-73.665
X142.24Y-78.74
X142.24Y-81.28
X142.24Y-83.82
X142.24Y-86.36
X142.24Y-88.9
X142.24Y-91.44
X142.24Y-93.98
X142.24Y-96.52
X142.24Y-99.06
X142.24Y-101.6
X142.24Y-104.14
X142.24Y-106.68
X142.24Y-109.22
X142.24Y-111.76
X142.24Y-114.3
X142.24Y-116.84
X142.24Y-119.38
X142.24Y-121.92
X142.24Y-124.46
X142.24Y-127.0
X142.24Y-129.54
X142.24Y-132.08
X142.24Y-134.62
X142.24Y-137.16
X142.24Y-139.7
X142.24Y-142.24
X142.24Y-144.78
X142.24Y-147.32
X142.24Y-149.86
X142.24Y-152.4
X142.24Y-154.94
X142.24Y-157.48
X142.24Y-160.02
X142.24Y-162.56
X142.24Y-165.1
X142.24Y-167.64
X142.24Y-170.18
X142.24Y-172.72
X142.25Y-63.505
X142.25Y-66.045
X142.25Y-68.585
X142.25Y-71.125
X142.25Y-73.665
X142.25Y-76.205
X144.78Y-78.74
X144.78Y-81.28
X144.78Y-83.82
X144.78Y-86.36
X144.78Y-88.9
X144.78Y-91.44
X144.78Y-93.98
X144.78Y-96.52
X144.78Y-99.06
X144.78Y-101.6
X144.78Y-104.14
X144.78Y-106.68
X144.78Y-109.22
X144.78Y-111.76
X144.78Y-114.3
X144.78Y-116.84
X144.78Y-119.38
X144.78Y-121.92
X144.78Y-124.46
X144.78Y-127.0
X144.78Y-129.54
X144.78Y-132.08
X144.78Y-134.62
X144.78Y-137.16
X144.78Y-139.7
X144.78Y-142.24
X144.78Y-144.78
X144.78Y-147.32
X144.78Y-149.86
X144.78Y-152.4
X144.78Y-154.94
X144.78Y-157.48
X144.78Y-160.02
X144.78Y-162.56
X144.78Y-165.1
X144.78Y-167.64
X144.78Y-170.18
X144.78Y-172.72
X144.79Y-63.505
X144.79Y-66.045
X144.79Y-68.585
X144.79Y-71.125
X144.79Y-73.665
X144.79Y-76.205
T4
X53.975Y-151.13
X53.975Y-168.91
X56.515Y-151.13
X56.515Y-168.91
X59.055Y-151.13
X59.055Y-168.91
X61.595Y-151.13
X61.595Y-168.91
X64.135Y-151.13
X64.135Y-168.91
X66.675Y-151.13
X66.675Y-168.91
X69.215Y-151.13
X69.215Y-168.91
X71.755Y-151.13
X71.755Y-168.91
X74.295Y-151.13
X74.295Y-168.91
X76.835Y-151.13
X76.835Y-168.91
X79.375Y-151.13
X79.375Y-168.91
X81.915Y-151.13
X81.915Y-168.91
X84.455Y-151.13
X84.455Y-168.91
X86.995Y-151.13
X86.995Y-168.91
X89.535Y-151.13
X89.535Y-168.91
X92.075Y-151.13
X92.075Y-168.91
X94.615Y-151.13
X94.615Y-168.91
X97.155Y-151.13
X97.155Y-168.91
X99.695Y-151.13
X99.695Y-168.91
X102.005Y-157.48
X102.005Y-160.02
X102.005Y-162.56
X102.235Y-151.13
X102.235Y-168.91
T5
X59.815Y-103.06
X59.815Y-128.06
M30
