G04 #@! TF.GenerationSoftware,KiCad,Pcbnew,8.0.4*
G04 #@! TF.CreationDate,2024-11-26T20:16:45-06:00*
G04 #@! TF.ProjectId,picoMBC,7069636f-4d42-4432-9e6b-696361645f70,rev?*
G04 #@! TF.SameCoordinates,Original*
G04 #@! TF.FileFunction,Paste,Top*
G04 #@! TF.FilePolarity,Positive*
%FSLAX46Y46*%
G04 Gerber Fmt 4.6, Leading zero omitted, Abs format (unit mm)*
G04 Created by KiCad (PCBNEW 8.0.4) date 2024-11-26 20:16:45*
%MOMM*%
%LPD*%
G01*
G04 APERTURE LIST*
G04 Aperture macros list*
%AMRoundRect*
0 Rectangle with rounded corners*
0 $1 Rounding radius*
0 $2 $3 $4 $5 $6 $7 $8 $9 X,Y pos of 4 corners*
0 Add a 4 corners polygon primitive as box body*
4,1,4,$2,$3,$4,$5,$6,$7,$8,$9,$2,$3,0*
0 Add four circle primitives for the rounded corners*
1,1,$1+$1,$2,$3*
1,1,$1+$1,$4,$5*
1,1,$1+$1,$6,$7*
1,1,$1+$1,$8,$9*
0 Add four rect primitives between the rounded corners*
20,1,$1+$1,$2,$3,$4,$5,0*
20,1,$1+$1,$4,$5,$6,$7,0*
20,1,$1+$1,$6,$7,$8,$9,0*
20,1,$1+$1,$8,$9,$2,$3,0*%
G04 Aperture macros list end*
%ADD10RoundRect,0.150000X-0.825000X-0.150000X0.825000X-0.150000X0.825000X0.150000X-0.825000X0.150000X0*%
%ADD11R,1.500000X0.800000*%
%ADD12RoundRect,0.362500X0.637500X-0.362500X0.637500X0.362500X-0.637500X0.362500X-0.637500X-0.362500X0*%
%ADD13RoundRect,0.150000X-0.150000X0.875000X-0.150000X-0.875000X0.150000X-0.875000X0.150000X0.875000X0*%
G04 APERTURE END LIST*
D10*
X116905000Y-49530000D03*
X116905000Y-50800000D03*
X116905000Y-52070000D03*
X116905000Y-53340000D03*
X116905000Y-54610000D03*
X116905000Y-55880000D03*
X116905000Y-57150000D03*
X121855000Y-57150000D03*
X121855000Y-55880000D03*
X121855000Y-54610000D03*
X121855000Y-53340000D03*
X121855000Y-52070000D03*
X121855000Y-50800000D03*
X121855000Y-49530000D03*
D11*
X57590000Y-142905000D03*
X57590000Y-141805000D03*
X57590000Y-140705000D03*
X57590000Y-139605000D03*
X57590000Y-138505000D03*
X57590000Y-137405000D03*
X57590000Y-136305000D03*
X57590000Y-135205000D03*
D12*
X63290000Y-146575001D03*
X54990000Y-146575000D03*
X54990000Y-132825000D03*
X63290000Y-132824999D03*
D13*
X81915000Y-49325000D03*
X80645000Y-49325000D03*
X79375000Y-49324999D03*
X78105000Y-49325000D03*
X76835000Y-49325000D03*
X75565000Y-49325000D03*
X74295000Y-49325000D03*
X73025000Y-49324999D03*
X71755000Y-49325000D03*
X70485000Y-49325000D03*
X70485000Y-58625000D03*
X71755000Y-58625000D03*
X73025000Y-58625001D03*
X74295000Y-58625000D03*
X75565000Y-58625000D03*
X76835000Y-58625000D03*
X78105000Y-58625000D03*
X79375000Y-58625001D03*
X80645000Y-58625000D03*
X81915000Y-58625000D03*
X104775000Y-49325000D03*
X103505000Y-49325000D03*
X102235000Y-49324999D03*
X100965000Y-49325000D03*
X99695000Y-49325000D03*
X98425000Y-49325000D03*
X97155000Y-49325000D03*
X95885000Y-49324999D03*
X94615000Y-49325000D03*
X93345000Y-49325000D03*
X93345000Y-58625000D03*
X94615000Y-58625000D03*
X95885000Y-58625001D03*
X97155000Y-58625000D03*
X98425000Y-58625000D03*
X99695000Y-58625000D03*
X100965000Y-58625000D03*
X102235000Y-58625001D03*
X103505000Y-58625000D03*
X104775000Y-58625000D03*
D10*
X130240000Y-49530000D03*
X130240000Y-50800000D03*
X130240000Y-52070000D03*
X130240000Y-53340000D03*
X130240000Y-54610000D03*
X130240000Y-55880000D03*
X130240000Y-57150000D03*
X135190000Y-57150000D03*
X135190000Y-55880000D03*
X135190000Y-54610000D03*
X135190000Y-53340000D03*
X135190000Y-52070000D03*
X135190000Y-50800000D03*
X135190000Y-49530000D03*
M02*
