%TF.GenerationSoftware,KiCad,Pcbnew,8.0.4*%
%TF.CreationDate,2024-11-26T20:17:00-06:00*%
%TF.ProjectId,picoMBC,7069636f-4d42-4432-9e6b-696361645f70,rev?*%
%TF.SameCoordinates,Original*%
%TF.FileFunction,Drillmap*%
%TF.FilePolarity,Positive*%
%FSLAX45Y45*%
G04 Gerber Fmt 4.5, Leading zero omitted, Abs format (unit mm)*
G04 Created by KiCad (PCBNEW 8.0.4) date 2024-11-26 20:17:00*
%MOMM*%
%LPD*%
G01*
G04 APERTURE LIST*
%ADD10C,0.050000*%
%ADD11C,0.200000*%
%ADD12C,0.100000*%
%ADD13C,0.102000*%
%ADD14C,0.320000*%
G04 APERTURE END LIST*
D10*
X7240000Y-18280000D02*
X6240000Y-18280000D01*
X5240000Y-3780000D02*
X15240000Y-3780000D01*
X15240000Y-3780000D02*
X15240000Y-17780000D01*
X5240000Y-17780000D02*
X5240000Y-3780000D01*
X15240000Y-17780000D02*
X7240000Y-17780000D01*
X6240000Y-18280000D02*
X6240000Y-17780000D01*
X6240000Y-17780000D02*
X5240000Y-17780000D01*
X7240000Y-17780000D02*
X7240000Y-18280000D01*
D11*
D12*
X5372500Y-16548500D02*
X5422500Y-16598500D01*
X5422500Y-16548500D02*
X5372500Y-16598500D01*
X5563000Y-16612000D02*
X5613000Y-16662000D01*
X5613000Y-16612000D02*
X5563000Y-16662000D01*
X5690000Y-13310000D02*
X5740000Y-13360000D01*
X5740000Y-13310000D02*
X5690000Y-13360000D01*
X5690000Y-14580000D02*
X5740000Y-14630000D01*
X5740000Y-14580000D02*
X5690000Y-14630000D01*
X6071000Y-13310000D02*
X6121000Y-13360000D01*
X6121000Y-13310000D02*
X6071000Y-13360000D01*
X6071000Y-13945000D02*
X6121000Y-13995000D01*
X6121000Y-13945000D02*
X6071000Y-13995000D01*
X6071000Y-14580000D02*
X6121000Y-14630000D01*
X6121000Y-14580000D02*
X6071000Y-14630000D01*
X6134500Y-15278500D02*
X6184500Y-15328500D01*
X6184500Y-15278500D02*
X6134500Y-15328500D01*
X6388500Y-6071000D02*
X6438500Y-6121000D01*
X6438500Y-6071000D02*
X6388500Y-6121000D01*
X6388500Y-13500500D02*
X6438500Y-13550500D01*
X6438500Y-13500500D02*
X6388500Y-13550500D01*
X6642500Y-6071000D02*
X6692500Y-6121000D01*
X6692500Y-6071000D02*
X6642500Y-6121000D01*
X6642500Y-13500500D02*
X6692500Y-13550500D01*
X6692500Y-13500500D02*
X6642500Y-13550500D01*
X6642500Y-14707000D02*
X6692500Y-14757000D01*
X6692500Y-14707000D02*
X6642500Y-14757000D01*
X6642500Y-15278500D02*
X6692500Y-15328500D01*
X6692500Y-15278500D02*
X6642500Y-15328500D01*
X6896500Y-6071000D02*
X6946500Y-6121000D01*
X6946500Y-6071000D02*
X6896500Y-6121000D01*
X6896500Y-13500500D02*
X6946500Y-13550500D01*
X6946500Y-13500500D02*
X6896500Y-13550500D01*
X6896500Y-14453000D02*
X6946500Y-14503000D01*
X6946500Y-14453000D02*
X6896500Y-14503000D01*
X7023500Y-5245500D02*
X7073500Y-5295500D01*
X7073500Y-5245500D02*
X7023500Y-5295500D01*
X7150500Y-5309000D02*
X7200500Y-5359000D01*
X7200500Y-5309000D02*
X7150500Y-5359000D01*
X7150500Y-6071000D02*
X7200500Y-6121000D01*
X7200500Y-6071000D02*
X7150500Y-6121000D01*
X7150500Y-13500500D02*
X7200500Y-13550500D01*
X7200500Y-13500500D02*
X7150500Y-13550500D01*
X7150500Y-14707000D02*
X7200500Y-14757000D01*
X7200500Y-14707000D02*
X7150500Y-14757000D01*
X7150500Y-15278500D02*
X7200500Y-15328500D01*
X7200500Y-15278500D02*
X7150500Y-15328500D01*
X7214000Y-16104000D02*
X7264000Y-16154000D01*
X7264000Y-16104000D02*
X7214000Y-16154000D01*
X7277500Y-5372500D02*
X7327500Y-5422500D01*
X7327500Y-5372500D02*
X7277500Y-5422500D01*
X7404500Y-5436000D02*
X7454500Y-5486000D01*
X7454500Y-5436000D02*
X7404500Y-5486000D01*
X7404500Y-6071000D02*
X7454500Y-6121000D01*
X7454500Y-6071000D02*
X7404500Y-6121000D01*
X7404500Y-13500500D02*
X7454500Y-13550500D01*
X7454500Y-13500500D02*
X7404500Y-13550500D01*
X7404500Y-15278500D02*
X7454500Y-15328500D01*
X7454500Y-15278500D02*
X7404500Y-15328500D01*
X7531500Y-5499500D02*
X7581500Y-5549500D01*
X7581500Y-5499500D02*
X7531500Y-5549500D01*
X7531500Y-16104000D02*
X7581500Y-16154000D01*
X7581500Y-16104000D02*
X7531500Y-16154000D01*
X7658500Y-5563000D02*
X7708500Y-5613000D01*
X7708500Y-5563000D02*
X7658500Y-5613000D01*
X7658500Y-6071000D02*
X7708500Y-6121000D01*
X7708500Y-6071000D02*
X7658500Y-6121000D01*
X7658500Y-13500500D02*
X7708500Y-13550500D01*
X7708500Y-13500500D02*
X7658500Y-13550500D01*
X7658500Y-15278500D02*
X7708500Y-15328500D01*
X7708500Y-15278500D02*
X7658500Y-15328500D01*
X7785500Y-5626500D02*
X7835500Y-5676500D01*
X7835500Y-5626500D02*
X7785500Y-5676500D01*
X7912500Y-5690000D02*
X7962500Y-5740000D01*
X7962500Y-5690000D02*
X7912500Y-5740000D01*
X7912500Y-6071000D02*
X7962500Y-6121000D01*
X7962500Y-6071000D02*
X7912500Y-6121000D01*
X7912500Y-13500500D02*
X7962500Y-13550500D01*
X7962500Y-13500500D02*
X7912500Y-13550500D01*
X7912500Y-14707000D02*
X7962500Y-14757000D01*
X7962500Y-14707000D02*
X7912500Y-14757000D01*
X7912500Y-15278500D02*
X7962500Y-15328500D01*
X7962500Y-15278500D02*
X7912500Y-15328500D01*
X8039500Y-16294500D02*
X8089500Y-16344500D01*
X8089500Y-16294500D02*
X8039500Y-16344500D01*
X8166500Y-13500500D02*
X8216500Y-13550500D01*
X8216500Y-13500500D02*
X8166500Y-13550500D01*
X8166500Y-15278500D02*
X8216500Y-15328500D01*
X8216500Y-15278500D02*
X8166500Y-15328500D01*
X8357000Y-6071000D02*
X8407000Y-6121000D01*
X8407000Y-6071000D02*
X8357000Y-6121000D01*
X8420500Y-13500500D02*
X8470500Y-13550500D01*
X8470500Y-13500500D02*
X8420500Y-13550500D01*
X8420500Y-15278500D02*
X8470500Y-15328500D01*
X8470500Y-15278500D02*
X8420500Y-15328500D01*
X8484000Y-4991500D02*
X8534000Y-5041500D01*
X8534000Y-4991500D02*
X8484000Y-5041500D01*
X8484000Y-16104000D02*
X8534000Y-16154000D01*
X8534000Y-16104000D02*
X8484000Y-16154000D01*
X8674500Y-15278500D02*
X8724500Y-15328500D01*
X8724500Y-15278500D02*
X8674500Y-15328500D01*
X8801500Y-16104000D02*
X8851500Y-16154000D01*
X8851500Y-16104000D02*
X8801500Y-16154000D01*
X8928500Y-15278500D02*
X8978500Y-15328500D01*
X8978500Y-15278500D02*
X8928500Y-15328500D01*
X8992000Y-4991500D02*
X9042000Y-5041500D01*
X9042000Y-4991500D02*
X8992000Y-5041500D01*
X9055500Y-13500500D02*
X9105500Y-13550500D01*
X9105500Y-13500500D02*
X9055500Y-13550500D01*
X9055500Y-16104000D02*
X9105500Y-16154000D01*
X9105500Y-16104000D02*
X9055500Y-16154000D01*
X9182500Y-15469000D02*
X9232500Y-15519000D01*
X9232500Y-15469000D02*
X9182500Y-15519000D01*
X9309500Y-5372500D02*
X9359500Y-5422500D01*
X9359500Y-5372500D02*
X9309500Y-5422500D01*
X9309500Y-16104000D02*
X9359500Y-16154000D01*
X9359500Y-16104000D02*
X9309500Y-16154000D01*
X9436500Y-5436000D02*
X9486500Y-5486000D01*
X9486500Y-5436000D02*
X9436500Y-5486000D01*
X9436500Y-15469000D02*
X9486500Y-15519000D01*
X9486500Y-15469000D02*
X9436500Y-15519000D01*
X9563500Y-5499500D02*
X9613500Y-5549500D01*
X9613500Y-5499500D02*
X9563500Y-5549500D01*
X9627000Y-16104000D02*
X9677000Y-16154000D01*
X9677000Y-16104000D02*
X9627000Y-16154000D01*
X9690500Y-5563000D02*
X9740500Y-5613000D01*
X9740500Y-5563000D02*
X9690500Y-5613000D01*
X9690500Y-15278500D02*
X9740500Y-15328500D01*
X9740500Y-15278500D02*
X9690500Y-15328500D01*
X9754000Y-6071000D02*
X9804000Y-6121000D01*
X9804000Y-6071000D02*
X9754000Y-6121000D01*
X9817500Y-5626500D02*
X9867500Y-5676500D01*
X9867500Y-5626500D02*
X9817500Y-5676500D01*
X9944500Y-5690000D02*
X9994500Y-5740000D01*
X9994500Y-5690000D02*
X9944500Y-5740000D01*
X10071500Y-5626500D02*
X10121500Y-5676500D01*
X10121500Y-5626500D02*
X10071500Y-5676500D01*
X10071500Y-16675500D02*
X10121500Y-16725500D01*
X10121500Y-16675500D02*
X10071500Y-16725500D01*
X10135000Y-5436000D02*
X10185000Y-5486000D01*
X10185000Y-5436000D02*
X10135000Y-5486000D01*
X10198500Y-5690000D02*
X10248500Y-5740000D01*
X10248500Y-5690000D02*
X10198500Y-5740000D01*
X10643000Y-5436000D02*
X10693000Y-5486000D01*
X10693000Y-5436000D02*
X10643000Y-5486000D01*
X10770000Y-5055000D02*
X10820000Y-5105000D01*
X10820000Y-5055000D02*
X10770000Y-5105000D01*
X10897000Y-4597800D02*
X10947000Y-4647800D01*
X10947000Y-4597800D02*
X10897000Y-4647800D01*
X10897000Y-6007500D02*
X10947000Y-6057500D01*
X10947000Y-6007500D02*
X10897000Y-6057500D01*
X11087500Y-6007500D02*
X11137500Y-6057500D01*
X11137500Y-6007500D02*
X11087500Y-6057500D01*
X11151000Y-4610500D02*
X11201000Y-4660500D01*
X11201000Y-4610500D02*
X11151000Y-4660500D01*
X11341500Y-5563000D02*
X11391500Y-5613000D01*
X11391500Y-5563000D02*
X11341500Y-5613000D01*
X11341500Y-6007500D02*
X11391500Y-6057500D01*
X11391500Y-6007500D02*
X11341500Y-6057500D01*
X11468500Y-5055000D02*
X11518500Y-5105000D01*
X11518500Y-5055000D02*
X11468500Y-5105000D01*
X11468500Y-5309000D02*
X11518500Y-5359000D01*
X11518500Y-5309000D02*
X11468500Y-5359000D01*
X11849500Y-5182000D02*
X11899500Y-5232000D01*
X11899500Y-5182000D02*
X11849500Y-5232000D01*
X12040000Y-4496200D02*
X12090000Y-4546200D01*
X12090000Y-4496200D02*
X12040000Y-4546200D01*
X12357500Y-4991500D02*
X12407500Y-5041500D01*
X12407500Y-4991500D02*
X12357500Y-5041500D01*
X12357500Y-5309000D02*
X12407500Y-5359000D01*
X12407500Y-5309000D02*
X12357500Y-5359000D01*
X12484500Y-5626500D02*
X12534500Y-5676500D01*
X12534500Y-5626500D02*
X12484500Y-5676500D01*
X12548000Y-5118500D02*
X12598000Y-5168500D01*
X12598000Y-5118500D02*
X12548000Y-5168500D01*
X12675000Y-5626500D02*
X12725000Y-5676500D01*
X12725000Y-5626500D02*
X12675000Y-5676500D01*
X12802000Y-4991500D02*
X12852000Y-5041500D01*
X12852000Y-4991500D02*
X12802000Y-5041500D01*
X12802000Y-5436000D02*
X12852000Y-5486000D01*
X12852000Y-5436000D02*
X12802000Y-5486000D01*
X13056000Y-4547000D02*
X13106000Y-4597000D01*
X13106000Y-4547000D02*
X13056000Y-4597000D01*
X13183000Y-4420000D02*
X13233000Y-4470000D01*
X13233000Y-4420000D02*
X13183000Y-4470000D01*
X13183000Y-5626500D02*
X13233000Y-5676500D01*
X13233000Y-5626500D02*
X13183000Y-5676500D01*
X13691000Y-4928000D02*
X13741000Y-4978000D01*
X13741000Y-4928000D02*
X13691000Y-4978000D01*
X13691000Y-5309000D02*
X13741000Y-5359000D01*
X13741000Y-5309000D02*
X13691000Y-5359000D01*
X11592000Y-4699000D02*
G75*
G02*
X11522000Y-4699000I-35000J0D01*
G01*
X11522000Y-4699000D02*
G75*
G02*
X11592000Y-4699000I35000J0D01*
G01*
X12354000Y-4699000D02*
G75*
G02*
X12284000Y-4699000I-35000J0D01*
G01*
X12284000Y-4699000D02*
G75*
G02*
X12354000Y-4699000I35000J0D01*
G01*
X5727533Y-11090500D02*
X5727533Y-11190500D01*
X5677533Y-11140500D02*
X5777533Y-11140500D01*
X5727533Y-11367500D02*
X5727533Y-11467500D01*
X5677533Y-11417500D02*
X5777533Y-11417500D01*
X5727533Y-11644500D02*
X5727533Y-11744500D01*
X5677533Y-11694500D02*
X5777533Y-11694500D01*
X5727533Y-11921500D02*
X5727533Y-12021500D01*
X5677533Y-11971500D02*
X5777533Y-11971500D01*
X6011533Y-10952000D02*
X6011533Y-11052000D01*
X5961533Y-11002000D02*
X6061533Y-11002000D01*
X6011533Y-11229000D02*
X6011533Y-11329000D01*
X5961533Y-11279000D02*
X6061533Y-11279000D01*
X6011533Y-11506000D02*
X6011533Y-11606000D01*
X5961533Y-11556000D02*
X6061533Y-11556000D01*
X6011533Y-11783000D02*
X6011533Y-11883000D01*
X5961533Y-11833000D02*
X6061533Y-11833000D01*
X6011533Y-12060000D02*
X6011533Y-12160000D01*
X5961533Y-12110000D02*
X6061533Y-12110000D01*
X6604000Y-4014000D02*
X6604000Y-4114000D01*
X6554000Y-4064000D02*
X6654000Y-4064000D01*
X6604000Y-4268000D02*
X6604000Y-4368000D01*
X6554000Y-4318000D02*
X6654000Y-4318000D01*
X6730500Y-10999500D02*
X6730500Y-11099500D01*
X6680500Y-11049500D02*
X6780500Y-11049500D01*
X6730500Y-11253500D02*
X6730500Y-11353500D01*
X6680500Y-11303500D02*
X6780500Y-11303500D01*
X6730500Y-11507500D02*
X6730500Y-11607500D01*
X6680500Y-11557500D02*
X6780500Y-11557500D01*
X6730500Y-11761500D02*
X6730500Y-11861500D01*
X6680500Y-11811500D02*
X6780500Y-11811500D01*
X6730500Y-12015500D02*
X6730500Y-12115500D01*
X6680500Y-12065500D02*
X6780500Y-12065500D01*
X6858000Y-4014000D02*
X6858000Y-4114000D01*
X6808000Y-4064000D02*
X6908000Y-4064000D01*
X6858000Y-4268000D02*
X6858000Y-4368000D01*
X6808000Y-4318000D02*
X6908000Y-4318000D01*
X6984500Y-10999500D02*
X6984500Y-11099500D01*
X6934500Y-11049500D02*
X7034500Y-11049500D01*
X6984500Y-11253500D02*
X6984500Y-11353500D01*
X6934500Y-11303500D02*
X7034500Y-11303500D01*
X6984500Y-11507500D02*
X6984500Y-11607500D01*
X6934500Y-11557500D02*
X7034500Y-11557500D01*
X6984500Y-11761500D02*
X6984500Y-11861500D01*
X6934500Y-11811500D02*
X7034500Y-11811500D01*
X6984500Y-12015500D02*
X6984500Y-12115500D01*
X6934500Y-12065500D02*
X7034500Y-12065500D01*
X7112000Y-4014000D02*
X7112000Y-4114000D01*
X7062000Y-4064000D02*
X7162000Y-4064000D01*
X7112000Y-4268000D02*
X7112000Y-4368000D01*
X7062000Y-4318000D02*
X7162000Y-4318000D01*
X7175500Y-14428000D02*
X7175500Y-14528000D01*
X7125500Y-14478000D02*
X7225500Y-14478000D01*
X7366000Y-4014000D02*
X7366000Y-4114000D01*
X7316000Y-4064000D02*
X7416000Y-4064000D01*
X7366000Y-4268000D02*
X7366000Y-4368000D01*
X7316000Y-4318000D02*
X7416000Y-4318000D01*
X7429500Y-14428000D02*
X7429500Y-14528000D01*
X7379500Y-14478000D02*
X7479500Y-14478000D01*
X7620000Y-4014000D02*
X7620000Y-4114000D01*
X7570000Y-4064000D02*
X7670000Y-4064000D01*
X7620000Y-4268000D02*
X7620000Y-4368000D01*
X7570000Y-4318000D02*
X7670000Y-4318000D01*
X7683500Y-14428000D02*
X7683500Y-14528000D01*
X7633500Y-14478000D02*
X7733500Y-14478000D01*
X7874000Y-4014000D02*
X7874000Y-4114000D01*
X7824000Y-4064000D02*
X7924000Y-4064000D01*
X7874000Y-4268000D02*
X7874000Y-4368000D01*
X7824000Y-4318000D02*
X7924000Y-4318000D01*
X7937500Y-14428000D02*
X7937500Y-14528000D01*
X7887500Y-14478000D02*
X7987500Y-14478000D01*
X8128000Y-4014000D02*
X8128000Y-4114000D01*
X8078000Y-4064000D02*
X8178000Y-4064000D01*
X8128000Y-4268000D02*
X8128000Y-4368000D01*
X8078000Y-4318000D02*
X8178000Y-4318000D01*
X8191500Y-14428000D02*
X8191500Y-14528000D01*
X8141500Y-14478000D02*
X8241500Y-14478000D01*
X8382000Y-4014000D02*
X8382000Y-4114000D01*
X8332000Y-4064000D02*
X8432000Y-4064000D01*
X8382000Y-4268000D02*
X8382000Y-4368000D01*
X8332000Y-4318000D02*
X8432000Y-4318000D01*
X8445500Y-14428000D02*
X8445500Y-14528000D01*
X8395500Y-14478000D02*
X8495500Y-14478000D01*
X8636000Y-4014000D02*
X8636000Y-4114000D01*
X8586000Y-4064000D02*
X8686000Y-4064000D01*
X8636000Y-4268000D02*
X8636000Y-4368000D01*
X8586000Y-4318000D02*
X8686000Y-4318000D01*
X8890000Y-4014000D02*
X8890000Y-4114000D01*
X8840000Y-4064000D02*
X8940000Y-4064000D01*
X8890000Y-4268000D02*
X8890000Y-4368000D01*
X8840000Y-4318000D02*
X8940000Y-4318000D01*
X9144000Y-4014000D02*
X9144000Y-4114000D01*
X9094000Y-4064000D02*
X9194000Y-4064000D01*
X9144000Y-4268000D02*
X9144000Y-4368000D01*
X9094000Y-4318000D02*
X9194000Y-4318000D01*
X9398000Y-4014000D02*
X9398000Y-4114000D01*
X9348000Y-4064000D02*
X9448000Y-4064000D01*
X9398000Y-4268000D02*
X9398000Y-4368000D01*
X9348000Y-4318000D02*
X9448000Y-4318000D01*
X9398000Y-10872000D02*
X9398000Y-10972000D01*
X9348000Y-10922000D02*
X9448000Y-10922000D01*
X9398000Y-11126000D02*
X9398000Y-11226000D01*
X9348000Y-11176000D02*
X9448000Y-11176000D01*
X9398000Y-11380000D02*
X9398000Y-11480000D01*
X9348000Y-11430000D02*
X9448000Y-11430000D01*
X9398000Y-11634000D02*
X9398000Y-11734000D01*
X9348000Y-11684000D02*
X9448000Y-11684000D01*
X9398000Y-11888000D02*
X9398000Y-11988000D01*
X9348000Y-11938000D02*
X9448000Y-11938000D01*
X9398000Y-12142000D02*
X9398000Y-12242000D01*
X9348000Y-12192000D02*
X9448000Y-12192000D01*
X9398000Y-12396000D02*
X9398000Y-12496000D01*
X9348000Y-12446000D02*
X9448000Y-12446000D01*
X9398000Y-12650000D02*
X9398000Y-12750000D01*
X9348000Y-12700000D02*
X9448000Y-12700000D01*
X9398000Y-12904000D02*
X9398000Y-13004000D01*
X9348000Y-12954000D02*
X9448000Y-12954000D01*
X9398000Y-13158000D02*
X9398000Y-13258000D01*
X9348000Y-13208000D02*
X9448000Y-13208000D01*
X9398000Y-13412000D02*
X9398000Y-13512000D01*
X9348000Y-13462000D02*
X9448000Y-13462000D01*
X9398000Y-13666000D02*
X9398000Y-13766000D01*
X9348000Y-13716000D02*
X9448000Y-13716000D01*
X9398000Y-13920000D02*
X9398000Y-14020000D01*
X9348000Y-13970000D02*
X9448000Y-13970000D01*
X9398000Y-14174000D02*
X9398000Y-14274000D01*
X9348000Y-14224000D02*
X9448000Y-14224000D01*
X9652000Y-4014000D02*
X9652000Y-4114000D01*
X9602000Y-4064000D02*
X9702000Y-4064000D01*
X9652000Y-4268000D02*
X9652000Y-4368000D01*
X9602000Y-4318000D02*
X9702000Y-4318000D01*
X9652000Y-10872000D02*
X9652000Y-10972000D01*
X9602000Y-10922000D02*
X9702000Y-10922000D01*
X9652000Y-11126000D02*
X9652000Y-11226000D01*
X9602000Y-11176000D02*
X9702000Y-11176000D01*
X9652000Y-11380000D02*
X9652000Y-11480000D01*
X9602000Y-11430000D02*
X9702000Y-11430000D01*
X9652000Y-11634000D02*
X9652000Y-11734000D01*
X9602000Y-11684000D02*
X9702000Y-11684000D01*
X9652000Y-11888000D02*
X9652000Y-11988000D01*
X9602000Y-11938000D02*
X9702000Y-11938000D01*
X9652000Y-12142000D02*
X9652000Y-12242000D01*
X9602000Y-12192000D02*
X9702000Y-12192000D01*
X9652000Y-12396000D02*
X9652000Y-12496000D01*
X9602000Y-12446000D02*
X9702000Y-12446000D01*
X9652000Y-12650000D02*
X9652000Y-12750000D01*
X9602000Y-12700000D02*
X9702000Y-12700000D01*
X9652000Y-12904000D02*
X9652000Y-13004000D01*
X9602000Y-12954000D02*
X9702000Y-12954000D01*
X9652000Y-13158000D02*
X9652000Y-13258000D01*
X9602000Y-13208000D02*
X9702000Y-13208000D01*
X9652000Y-13412000D02*
X9652000Y-13512000D01*
X9602000Y-13462000D02*
X9702000Y-13462000D01*
X9652000Y-13666000D02*
X9652000Y-13766000D01*
X9602000Y-13716000D02*
X9702000Y-13716000D01*
X9652000Y-13920000D02*
X9652000Y-14020000D01*
X9602000Y-13970000D02*
X9702000Y-13970000D01*
X9652000Y-14174000D02*
X9652000Y-14274000D01*
X9602000Y-14224000D02*
X9702000Y-14224000D01*
X9906000Y-11126000D02*
X9906000Y-11226000D01*
X9856000Y-11176000D02*
X9956000Y-11176000D01*
X9906000Y-11634000D02*
X9906000Y-11734000D01*
X9856000Y-11684000D02*
X9956000Y-11684000D01*
X9906000Y-12142000D02*
X9906000Y-12242000D01*
X9856000Y-12192000D02*
X9956000Y-12192000D01*
X9906000Y-12650000D02*
X9906000Y-12750000D01*
X9856000Y-12700000D02*
X9956000Y-12700000D01*
X9906000Y-13158000D02*
X9906000Y-13258000D01*
X9856000Y-13208000D02*
X9956000Y-13208000D01*
X9906000Y-13666000D02*
X9906000Y-13766000D01*
X9856000Y-13716000D02*
X9956000Y-13716000D01*
X9906000Y-14174000D02*
X9906000Y-14274000D01*
X9856000Y-14224000D02*
X9956000Y-14224000D01*
X9906000Y-4014000D02*
X9906000Y-4114000D01*
X9856000Y-4064000D02*
X9956000Y-4064000D01*
X9906000Y-4268000D02*
X9906000Y-4368000D01*
X9856000Y-4318000D02*
X9956000Y-4318000D01*
X9906000Y-10872000D02*
X9906000Y-10972000D01*
X9856000Y-10922000D02*
X9956000Y-10922000D01*
X9906000Y-11380000D02*
X9906000Y-11480000D01*
X9856000Y-11430000D02*
X9956000Y-11430000D01*
X9906000Y-11888000D02*
X9906000Y-11988000D01*
X9856000Y-11938000D02*
X9956000Y-11938000D01*
X9906000Y-12396000D02*
X9906000Y-12496000D01*
X9856000Y-12446000D02*
X9956000Y-12446000D01*
X9906000Y-12904000D02*
X9906000Y-13004000D01*
X9856000Y-12954000D02*
X9956000Y-12954000D01*
X9906000Y-13412000D02*
X9906000Y-13512000D01*
X9856000Y-13462000D02*
X9956000Y-13462000D01*
X9906000Y-13920000D02*
X9906000Y-14020000D01*
X9856000Y-13970000D02*
X9956000Y-13970000D01*
X10160000Y-4014000D02*
X10160000Y-4114000D01*
X10110000Y-4064000D02*
X10210000Y-4064000D01*
X10160000Y-4268000D02*
X10160000Y-4368000D01*
X10110000Y-4318000D02*
X10210000Y-4318000D01*
X10160000Y-10872000D02*
X10160000Y-10972000D01*
X10110000Y-10922000D02*
X10210000Y-10922000D01*
X10160000Y-11126000D02*
X10160000Y-11226000D01*
X10110000Y-11176000D02*
X10210000Y-11176000D01*
X10160000Y-11380000D02*
X10160000Y-11480000D01*
X10110000Y-11430000D02*
X10210000Y-11430000D01*
X10160000Y-11634000D02*
X10160000Y-11734000D01*
X10110000Y-11684000D02*
X10210000Y-11684000D01*
X10160000Y-11888000D02*
X10160000Y-11988000D01*
X10110000Y-11938000D02*
X10210000Y-11938000D01*
X10160000Y-12142000D02*
X10160000Y-12242000D01*
X10110000Y-12192000D02*
X10210000Y-12192000D01*
X10160000Y-12396000D02*
X10160000Y-12496000D01*
X10110000Y-12446000D02*
X10210000Y-12446000D01*
X10160000Y-12650000D02*
X10160000Y-12750000D01*
X10110000Y-12700000D02*
X10210000Y-12700000D01*
X10160000Y-12904000D02*
X10160000Y-13004000D01*
X10110000Y-12954000D02*
X10210000Y-12954000D01*
X10160000Y-13158000D02*
X10160000Y-13258000D01*
X10110000Y-13208000D02*
X10210000Y-13208000D01*
X10160000Y-13412000D02*
X10160000Y-13512000D01*
X10110000Y-13462000D02*
X10210000Y-13462000D01*
X10160000Y-13666000D02*
X10160000Y-13766000D01*
X10110000Y-13716000D02*
X10210000Y-13716000D01*
X10160000Y-13920000D02*
X10160000Y-14020000D01*
X10110000Y-13970000D02*
X10210000Y-13970000D01*
X10160000Y-14174000D02*
X10160000Y-14274000D01*
X10110000Y-14224000D02*
X10210000Y-14224000D01*
X10414000Y-4014000D02*
X10414000Y-4114000D01*
X10364000Y-4064000D02*
X10464000Y-4064000D01*
X10414000Y-4268000D02*
X10414000Y-4368000D01*
X10364000Y-4318000D02*
X10464000Y-4318000D01*
X10414000Y-10872000D02*
X10414000Y-10972000D01*
X10364000Y-10922000D02*
X10464000Y-10922000D01*
X10414000Y-11126000D02*
X10414000Y-11226000D01*
X10364000Y-11176000D02*
X10464000Y-11176000D01*
X10414000Y-11380000D02*
X10414000Y-11480000D01*
X10364000Y-11430000D02*
X10464000Y-11430000D01*
X10414000Y-11634000D02*
X10414000Y-11734000D01*
X10364000Y-11684000D02*
X10464000Y-11684000D01*
X10414000Y-11888000D02*
X10414000Y-11988000D01*
X10364000Y-11938000D02*
X10464000Y-11938000D01*
X10414000Y-12142000D02*
X10414000Y-12242000D01*
X10364000Y-12192000D02*
X10464000Y-12192000D01*
X10414000Y-12396000D02*
X10414000Y-12496000D01*
X10364000Y-12446000D02*
X10464000Y-12446000D01*
X10414000Y-12650000D02*
X10414000Y-12750000D01*
X10364000Y-12700000D02*
X10464000Y-12700000D01*
X10414000Y-12904000D02*
X10414000Y-13004000D01*
X10364000Y-12954000D02*
X10464000Y-12954000D01*
X10414000Y-13158000D02*
X10414000Y-13258000D01*
X10364000Y-13208000D02*
X10464000Y-13208000D01*
X10414000Y-13412000D02*
X10414000Y-13512000D01*
X10364000Y-13462000D02*
X10464000Y-13462000D01*
X10414000Y-13666000D02*
X10414000Y-13766000D01*
X10364000Y-13716000D02*
X10464000Y-13716000D01*
X10414000Y-13920000D02*
X10414000Y-14020000D01*
X10364000Y-13970000D02*
X10464000Y-13970000D01*
X10414000Y-14174000D02*
X10414000Y-14274000D01*
X10364000Y-14224000D02*
X10464000Y-14224000D01*
X10668000Y-4014000D02*
X10668000Y-4114000D01*
X10618000Y-4064000D02*
X10718000Y-4064000D01*
X10668000Y-4268000D02*
X10668000Y-4368000D01*
X10618000Y-4318000D02*
X10718000Y-4318000D01*
X10668000Y-10872000D02*
X10668000Y-10972000D01*
X10618000Y-10922000D02*
X10718000Y-10922000D01*
X10668000Y-11126000D02*
X10668000Y-11226000D01*
X10618000Y-11176000D02*
X10718000Y-11176000D01*
X10668000Y-11380000D02*
X10668000Y-11480000D01*
X10618000Y-11430000D02*
X10718000Y-11430000D01*
X10668000Y-11634000D02*
X10668000Y-11734000D01*
X10618000Y-11684000D02*
X10718000Y-11684000D01*
X10668000Y-11888000D02*
X10668000Y-11988000D01*
X10618000Y-11938000D02*
X10718000Y-11938000D01*
X10668000Y-12142000D02*
X10668000Y-12242000D01*
X10618000Y-12192000D02*
X10718000Y-12192000D01*
X10668000Y-12396000D02*
X10668000Y-12496000D01*
X10618000Y-12446000D02*
X10718000Y-12446000D01*
X10668000Y-12650000D02*
X10668000Y-12750000D01*
X10618000Y-12700000D02*
X10718000Y-12700000D01*
X10668000Y-12904000D02*
X10668000Y-13004000D01*
X10618000Y-12954000D02*
X10718000Y-12954000D01*
X10668000Y-13158000D02*
X10668000Y-13258000D01*
X10618000Y-13208000D02*
X10718000Y-13208000D01*
X10668000Y-13412000D02*
X10668000Y-13512000D01*
X10618000Y-13462000D02*
X10718000Y-13462000D01*
X10668000Y-13666000D02*
X10668000Y-13766000D01*
X10618000Y-13716000D02*
X10718000Y-13716000D01*
X10668000Y-13920000D02*
X10668000Y-14020000D01*
X10618000Y-13970000D02*
X10718000Y-13970000D01*
X10668000Y-14174000D02*
X10668000Y-14274000D01*
X10618000Y-14224000D02*
X10718000Y-14224000D01*
X10795000Y-15317000D02*
X10795000Y-15417000D01*
X10745000Y-15367000D02*
X10845000Y-15367000D01*
X10795000Y-15571000D02*
X10795000Y-15671000D01*
X10745000Y-15621000D02*
X10845000Y-15621000D01*
X10795000Y-15825000D02*
X10795000Y-15925000D01*
X10745000Y-15875000D02*
X10845000Y-15875000D01*
X10795000Y-16079000D02*
X10795000Y-16179000D01*
X10745000Y-16129000D02*
X10845000Y-16129000D01*
X10795000Y-16333000D02*
X10795000Y-16433000D01*
X10745000Y-16383000D02*
X10845000Y-16383000D01*
X10795000Y-16587000D02*
X10795000Y-16687000D01*
X10745000Y-16637000D02*
X10845000Y-16637000D01*
X10922000Y-4014000D02*
X10922000Y-4114000D01*
X10872000Y-4064000D02*
X10972000Y-4064000D01*
X10922000Y-4268000D02*
X10922000Y-4368000D01*
X10872000Y-4318000D02*
X10972000Y-4318000D01*
X10922000Y-10872000D02*
X10922000Y-10972000D01*
X10872000Y-10922000D02*
X10972000Y-10922000D01*
X10922000Y-11126000D02*
X10922000Y-11226000D01*
X10872000Y-11176000D02*
X10972000Y-11176000D01*
X10922000Y-11380000D02*
X10922000Y-11480000D01*
X10872000Y-11430000D02*
X10972000Y-11430000D01*
X10922000Y-11634000D02*
X10922000Y-11734000D01*
X10872000Y-11684000D02*
X10972000Y-11684000D01*
X10922000Y-11888000D02*
X10922000Y-11988000D01*
X10872000Y-11938000D02*
X10972000Y-11938000D01*
X10922000Y-12142000D02*
X10922000Y-12242000D01*
X10872000Y-12192000D02*
X10972000Y-12192000D01*
X10922000Y-12396000D02*
X10922000Y-12496000D01*
X10872000Y-12446000D02*
X10972000Y-12446000D01*
X10922000Y-12650000D02*
X10922000Y-12750000D01*
X10872000Y-12700000D02*
X10972000Y-12700000D01*
X10922000Y-12904000D02*
X10922000Y-13004000D01*
X10872000Y-12954000D02*
X10972000Y-12954000D01*
X10922000Y-13158000D02*
X10922000Y-13258000D01*
X10872000Y-13208000D02*
X10972000Y-13208000D01*
X10922000Y-13412000D02*
X10922000Y-13512000D01*
X10872000Y-13462000D02*
X10972000Y-13462000D01*
X10922000Y-13666000D02*
X10922000Y-13766000D01*
X10872000Y-13716000D02*
X10972000Y-13716000D01*
X10922000Y-13920000D02*
X10922000Y-14020000D01*
X10872000Y-13970000D02*
X10972000Y-13970000D01*
X10922000Y-14174000D02*
X10922000Y-14274000D01*
X10872000Y-14224000D02*
X10972000Y-14224000D01*
X11176000Y-4014000D02*
X11176000Y-4114000D01*
X11126000Y-4064000D02*
X11226000Y-4064000D01*
X11176000Y-4268000D02*
X11176000Y-4368000D01*
X11126000Y-4318000D02*
X11226000Y-4318000D01*
X11176000Y-5030000D02*
X11176000Y-5130000D01*
X11126000Y-5080000D02*
X11226000Y-5080000D01*
X11176000Y-5284000D02*
X11176000Y-5384000D01*
X11126000Y-5334000D02*
X11226000Y-5334000D01*
X11176000Y-5538000D02*
X11176000Y-5638000D01*
X11126000Y-5588000D02*
X11226000Y-5588000D01*
X11176000Y-7824000D02*
X11176000Y-7924000D01*
X11126000Y-7874000D02*
X11226000Y-7874000D01*
X11176000Y-8078000D02*
X11176000Y-8178000D01*
X11126000Y-8128000D02*
X11226000Y-8128000D01*
X11176000Y-8332000D02*
X11176000Y-8432000D01*
X11126000Y-8382000D02*
X11226000Y-8382000D01*
X11176000Y-8586000D02*
X11176000Y-8686000D01*
X11126000Y-8636000D02*
X11226000Y-8636000D01*
X11176000Y-8840000D02*
X11176000Y-8940000D01*
X11126000Y-8890000D02*
X11226000Y-8890000D01*
X11176000Y-9094000D02*
X11176000Y-9194000D01*
X11126000Y-9144000D02*
X11226000Y-9144000D01*
X11176000Y-9348000D02*
X11176000Y-9448000D01*
X11126000Y-9398000D02*
X11226000Y-9398000D01*
X11176000Y-9602000D02*
X11176000Y-9702000D01*
X11126000Y-9652000D02*
X11226000Y-9652000D01*
X11176000Y-9856000D02*
X11176000Y-9956000D01*
X11126000Y-9906000D02*
X11226000Y-9906000D01*
X11176000Y-10110000D02*
X11176000Y-10210000D01*
X11126000Y-10160000D02*
X11226000Y-10160000D01*
X11176000Y-10364000D02*
X11176000Y-10464000D01*
X11126000Y-10414000D02*
X11226000Y-10414000D01*
X11176000Y-10618000D02*
X11176000Y-10718000D01*
X11126000Y-10668000D02*
X11226000Y-10668000D01*
X11176000Y-10872000D02*
X11176000Y-10972000D01*
X11126000Y-10922000D02*
X11226000Y-10922000D01*
X11176000Y-11126000D02*
X11176000Y-11226000D01*
X11126000Y-11176000D02*
X11226000Y-11176000D01*
X11176000Y-11380000D02*
X11176000Y-11480000D01*
X11126000Y-11430000D02*
X11226000Y-11430000D01*
X11176000Y-11634000D02*
X11176000Y-11734000D01*
X11126000Y-11684000D02*
X11226000Y-11684000D01*
X11176000Y-11888000D02*
X11176000Y-11988000D01*
X11126000Y-11938000D02*
X11226000Y-11938000D01*
X11176000Y-12142000D02*
X11176000Y-12242000D01*
X11126000Y-12192000D02*
X11226000Y-12192000D01*
X11176000Y-12396000D02*
X11176000Y-12496000D01*
X11126000Y-12446000D02*
X11226000Y-12446000D01*
X11176000Y-12650000D02*
X11176000Y-12750000D01*
X11126000Y-12700000D02*
X11226000Y-12700000D01*
X11176000Y-12904000D02*
X11176000Y-13004000D01*
X11126000Y-12954000D02*
X11226000Y-12954000D01*
X11176000Y-13158000D02*
X11176000Y-13258000D01*
X11126000Y-13208000D02*
X11226000Y-13208000D01*
X11176000Y-13412000D02*
X11176000Y-13512000D01*
X11126000Y-13462000D02*
X11226000Y-13462000D01*
X11176000Y-13666000D02*
X11176000Y-13766000D01*
X11126000Y-13716000D02*
X11226000Y-13716000D01*
X11176000Y-13920000D02*
X11176000Y-14020000D01*
X11126000Y-13970000D02*
X11226000Y-13970000D01*
X11176000Y-14174000D02*
X11176000Y-14274000D01*
X11126000Y-14224000D02*
X11226000Y-14224000D01*
X11176000Y-14428000D02*
X11176000Y-14528000D01*
X11126000Y-14478000D02*
X11226000Y-14478000D01*
X11176000Y-14682000D02*
X11176000Y-14782000D01*
X11126000Y-14732000D02*
X11226000Y-14732000D01*
X11176000Y-14936000D02*
X11176000Y-15036000D01*
X11126000Y-14986000D02*
X11226000Y-14986000D01*
X11176000Y-15190000D02*
X11176000Y-15290000D01*
X11126000Y-15240000D02*
X11226000Y-15240000D01*
X11176000Y-15444000D02*
X11176000Y-15544000D01*
X11126000Y-15494000D02*
X11226000Y-15494000D01*
X11176000Y-15698000D02*
X11176000Y-15798000D01*
X11126000Y-15748000D02*
X11226000Y-15748000D01*
X11176000Y-15952000D02*
X11176000Y-16052000D01*
X11126000Y-16002000D02*
X11226000Y-16002000D01*
X11176000Y-16206000D02*
X11176000Y-16306000D01*
X11126000Y-16256000D02*
X11226000Y-16256000D01*
X11176000Y-16460000D02*
X11176000Y-16560000D01*
X11126000Y-16510000D02*
X11226000Y-16510000D01*
X11176000Y-16714000D02*
X11176000Y-16814000D01*
X11126000Y-16764000D02*
X11226000Y-16764000D01*
X11176000Y-16968000D02*
X11176000Y-17068000D01*
X11126000Y-17018000D02*
X11226000Y-17018000D01*
X11176000Y-17222000D02*
X11176000Y-17322000D01*
X11126000Y-17272000D02*
X11226000Y-17272000D01*
X11177000Y-6300500D02*
X11177000Y-6400500D01*
X11127000Y-6350500D02*
X11227000Y-6350500D01*
X11177000Y-6554500D02*
X11177000Y-6654500D01*
X11127000Y-6604500D02*
X11227000Y-6604500D01*
X11177000Y-6808500D02*
X11177000Y-6908500D01*
X11127000Y-6858500D02*
X11227000Y-6858500D01*
X11177000Y-7062500D02*
X11177000Y-7162500D01*
X11127000Y-7112500D02*
X11227000Y-7112500D01*
X11177000Y-7316500D02*
X11177000Y-7416500D01*
X11127000Y-7366500D02*
X11227000Y-7366500D01*
X11177000Y-7570500D02*
X11177000Y-7670500D01*
X11127000Y-7620500D02*
X11227000Y-7620500D01*
X11430000Y-4014000D02*
X11430000Y-4114000D01*
X11380000Y-4064000D02*
X11480000Y-4064000D01*
X11430000Y-4268000D02*
X11430000Y-4368000D01*
X11380000Y-4318000D02*
X11480000Y-4318000D01*
X11430000Y-7824000D02*
X11430000Y-7924000D01*
X11380000Y-7874000D02*
X11480000Y-7874000D01*
X11430000Y-8078000D02*
X11430000Y-8178000D01*
X11380000Y-8128000D02*
X11480000Y-8128000D01*
X11430000Y-8332000D02*
X11430000Y-8432000D01*
X11380000Y-8382000D02*
X11480000Y-8382000D01*
X11430000Y-8586000D02*
X11430000Y-8686000D01*
X11380000Y-8636000D02*
X11480000Y-8636000D01*
X11430000Y-8840000D02*
X11430000Y-8940000D01*
X11380000Y-8890000D02*
X11480000Y-8890000D01*
X11430000Y-9094000D02*
X11430000Y-9194000D01*
X11380000Y-9144000D02*
X11480000Y-9144000D01*
X11430000Y-9348000D02*
X11430000Y-9448000D01*
X11380000Y-9398000D02*
X11480000Y-9398000D01*
X11430000Y-9602000D02*
X11430000Y-9702000D01*
X11380000Y-9652000D02*
X11480000Y-9652000D01*
X11430000Y-9856000D02*
X11430000Y-9956000D01*
X11380000Y-9906000D02*
X11480000Y-9906000D01*
X11430000Y-10110000D02*
X11430000Y-10210000D01*
X11380000Y-10160000D02*
X11480000Y-10160000D01*
X11430000Y-10364000D02*
X11430000Y-10464000D01*
X11380000Y-10414000D02*
X11480000Y-10414000D01*
X11430000Y-10618000D02*
X11430000Y-10718000D01*
X11380000Y-10668000D02*
X11480000Y-10668000D01*
X11430000Y-10872000D02*
X11430000Y-10972000D01*
X11380000Y-10922000D02*
X11480000Y-10922000D01*
X11430000Y-11126000D02*
X11430000Y-11226000D01*
X11380000Y-11176000D02*
X11480000Y-11176000D01*
X11430000Y-11380000D02*
X11430000Y-11480000D01*
X11380000Y-11430000D02*
X11480000Y-11430000D01*
X11430000Y-11634000D02*
X11430000Y-11734000D01*
X11380000Y-11684000D02*
X11480000Y-11684000D01*
X11430000Y-11888000D02*
X11430000Y-11988000D01*
X11380000Y-11938000D02*
X11480000Y-11938000D01*
X11430000Y-12142000D02*
X11430000Y-12242000D01*
X11380000Y-12192000D02*
X11480000Y-12192000D01*
X11430000Y-12396000D02*
X11430000Y-12496000D01*
X11380000Y-12446000D02*
X11480000Y-12446000D01*
X11430000Y-12650000D02*
X11430000Y-12750000D01*
X11380000Y-12700000D02*
X11480000Y-12700000D01*
X11430000Y-12904000D02*
X11430000Y-13004000D01*
X11380000Y-12954000D02*
X11480000Y-12954000D01*
X11430000Y-13158000D02*
X11430000Y-13258000D01*
X11380000Y-13208000D02*
X11480000Y-13208000D01*
X11430000Y-13412000D02*
X11430000Y-13512000D01*
X11380000Y-13462000D02*
X11480000Y-13462000D01*
X11430000Y-13666000D02*
X11430000Y-13766000D01*
X11380000Y-13716000D02*
X11480000Y-13716000D01*
X11430000Y-13920000D02*
X11430000Y-14020000D01*
X11380000Y-13970000D02*
X11480000Y-13970000D01*
X11430000Y-14174000D02*
X11430000Y-14274000D01*
X11380000Y-14224000D02*
X11480000Y-14224000D01*
X11430000Y-14428000D02*
X11430000Y-14528000D01*
X11380000Y-14478000D02*
X11480000Y-14478000D01*
X11430000Y-14682000D02*
X11430000Y-14782000D01*
X11380000Y-14732000D02*
X11480000Y-14732000D01*
X11430000Y-14936000D02*
X11430000Y-15036000D01*
X11380000Y-14986000D02*
X11480000Y-14986000D01*
X11430000Y-15190000D02*
X11430000Y-15290000D01*
X11380000Y-15240000D02*
X11480000Y-15240000D01*
X11430000Y-15444000D02*
X11430000Y-15544000D01*
X11380000Y-15494000D02*
X11480000Y-15494000D01*
X11430000Y-15698000D02*
X11430000Y-15798000D01*
X11380000Y-15748000D02*
X11480000Y-15748000D01*
X11430000Y-15952000D02*
X11430000Y-16052000D01*
X11380000Y-16002000D02*
X11480000Y-16002000D01*
X11430000Y-16206000D02*
X11430000Y-16306000D01*
X11380000Y-16256000D02*
X11480000Y-16256000D01*
X11430000Y-16460000D02*
X11430000Y-16560000D01*
X11380000Y-16510000D02*
X11480000Y-16510000D01*
X11430000Y-16714000D02*
X11430000Y-16814000D01*
X11380000Y-16764000D02*
X11480000Y-16764000D01*
X11430000Y-16968000D02*
X11430000Y-17068000D01*
X11380000Y-17018000D02*
X11480000Y-17018000D01*
X11430000Y-17222000D02*
X11430000Y-17322000D01*
X11380000Y-17272000D02*
X11480000Y-17272000D01*
X11431000Y-6300500D02*
X11431000Y-6400500D01*
X11381000Y-6350500D02*
X11481000Y-6350500D01*
X11431000Y-6554500D02*
X11431000Y-6654500D01*
X11381000Y-6604500D02*
X11481000Y-6604500D01*
X11431000Y-6808500D02*
X11431000Y-6908500D01*
X11381000Y-6858500D02*
X11481000Y-6858500D01*
X11431000Y-7062500D02*
X11431000Y-7162500D01*
X11381000Y-7112500D02*
X11481000Y-7112500D01*
X11431000Y-7316500D02*
X11431000Y-7416500D01*
X11381000Y-7366500D02*
X11481000Y-7366500D01*
X11431000Y-7570500D02*
X11431000Y-7670500D01*
X11381000Y-7620500D02*
X11481000Y-7620500D01*
X11684000Y-8078000D02*
X11684000Y-8178000D01*
X11634000Y-8128000D02*
X11734000Y-8128000D01*
X11684000Y-8586000D02*
X11684000Y-8686000D01*
X11634000Y-8636000D02*
X11734000Y-8636000D01*
X11684000Y-9094000D02*
X11684000Y-9194000D01*
X11634000Y-9144000D02*
X11734000Y-9144000D01*
X11684000Y-9602000D02*
X11684000Y-9702000D01*
X11634000Y-9652000D02*
X11734000Y-9652000D01*
X11684000Y-10110000D02*
X11684000Y-10210000D01*
X11634000Y-10160000D02*
X11734000Y-10160000D01*
X11684000Y-10618000D02*
X11684000Y-10718000D01*
X11634000Y-10668000D02*
X11734000Y-10668000D01*
X11684000Y-11126000D02*
X11684000Y-11226000D01*
X11634000Y-11176000D02*
X11734000Y-11176000D01*
X11684000Y-11634000D02*
X11684000Y-11734000D01*
X11634000Y-11684000D02*
X11734000Y-11684000D01*
X11684000Y-12142000D02*
X11684000Y-12242000D01*
X11634000Y-12192000D02*
X11734000Y-12192000D01*
X11684000Y-12650000D02*
X11684000Y-12750000D01*
X11634000Y-12700000D02*
X11734000Y-12700000D01*
X11684000Y-13158000D02*
X11684000Y-13258000D01*
X11634000Y-13208000D02*
X11734000Y-13208000D01*
X11684000Y-13666000D02*
X11684000Y-13766000D01*
X11634000Y-13716000D02*
X11734000Y-13716000D01*
X11684000Y-14174000D02*
X11684000Y-14274000D01*
X11634000Y-14224000D02*
X11734000Y-14224000D01*
X11684000Y-14682000D02*
X11684000Y-14782000D01*
X11634000Y-14732000D02*
X11734000Y-14732000D01*
X11684000Y-15190000D02*
X11684000Y-15290000D01*
X11634000Y-15240000D02*
X11734000Y-15240000D01*
X11684000Y-15698000D02*
X11684000Y-15798000D01*
X11634000Y-15748000D02*
X11734000Y-15748000D01*
X11684000Y-16206000D02*
X11684000Y-16306000D01*
X11634000Y-16256000D02*
X11734000Y-16256000D01*
X11684000Y-16714000D02*
X11684000Y-16814000D01*
X11634000Y-16764000D02*
X11734000Y-16764000D01*
X11684000Y-17222000D02*
X11684000Y-17322000D01*
X11634000Y-17272000D02*
X11734000Y-17272000D01*
X11684000Y-4014000D02*
X11684000Y-4114000D01*
X11634000Y-4064000D02*
X11734000Y-4064000D01*
X11684000Y-4268000D02*
X11684000Y-4368000D01*
X11634000Y-4318000D02*
X11734000Y-4318000D01*
X11684000Y-7824000D02*
X11684000Y-7924000D01*
X11634000Y-7874000D02*
X11734000Y-7874000D01*
X11684000Y-8332000D02*
X11684000Y-8432000D01*
X11634000Y-8382000D02*
X11734000Y-8382000D01*
X11684000Y-8840000D02*
X11684000Y-8940000D01*
X11634000Y-8890000D02*
X11734000Y-8890000D01*
X11684000Y-9348000D02*
X11684000Y-9448000D01*
X11634000Y-9398000D02*
X11734000Y-9398000D01*
X11684000Y-9856000D02*
X11684000Y-9956000D01*
X11634000Y-9906000D02*
X11734000Y-9906000D01*
X11684000Y-10364000D02*
X11684000Y-10464000D01*
X11634000Y-10414000D02*
X11734000Y-10414000D01*
X11684000Y-10872000D02*
X11684000Y-10972000D01*
X11634000Y-10922000D02*
X11734000Y-10922000D01*
X11684000Y-11380000D02*
X11684000Y-11480000D01*
X11634000Y-11430000D02*
X11734000Y-11430000D01*
X11684000Y-11888000D02*
X11684000Y-11988000D01*
X11634000Y-11938000D02*
X11734000Y-11938000D01*
X11684000Y-12396000D02*
X11684000Y-12496000D01*
X11634000Y-12446000D02*
X11734000Y-12446000D01*
X11684000Y-12904000D02*
X11684000Y-13004000D01*
X11634000Y-12954000D02*
X11734000Y-12954000D01*
X11684000Y-13412000D02*
X11684000Y-13512000D01*
X11634000Y-13462000D02*
X11734000Y-13462000D01*
X11684000Y-13920000D02*
X11684000Y-14020000D01*
X11634000Y-13970000D02*
X11734000Y-13970000D01*
X11684000Y-14428000D02*
X11684000Y-14528000D01*
X11634000Y-14478000D02*
X11734000Y-14478000D01*
X11684000Y-14936000D02*
X11684000Y-15036000D01*
X11634000Y-14986000D02*
X11734000Y-14986000D01*
X11684000Y-15444000D02*
X11684000Y-15544000D01*
X11634000Y-15494000D02*
X11734000Y-15494000D01*
X11684000Y-15952000D02*
X11684000Y-16052000D01*
X11634000Y-16002000D02*
X11734000Y-16002000D01*
X11684000Y-16460000D02*
X11684000Y-16560000D01*
X11634000Y-16510000D02*
X11734000Y-16510000D01*
X11684000Y-16968000D02*
X11684000Y-17068000D01*
X11634000Y-17018000D02*
X11734000Y-17018000D01*
X11685000Y-6554500D02*
X11685000Y-6654500D01*
X11635000Y-6604500D02*
X11735000Y-6604500D01*
X11685000Y-7062500D02*
X11685000Y-7162500D01*
X11635000Y-7112500D02*
X11735000Y-7112500D01*
X11685000Y-7570500D02*
X11685000Y-7670500D01*
X11635000Y-7620500D02*
X11735000Y-7620500D01*
X11685000Y-6300500D02*
X11685000Y-6400500D01*
X11635000Y-6350500D02*
X11735000Y-6350500D01*
X11685000Y-6808500D02*
X11685000Y-6908500D01*
X11635000Y-6858500D02*
X11735000Y-6858500D01*
X11685000Y-7316500D02*
X11685000Y-7416500D01*
X11635000Y-7366500D02*
X11735000Y-7366500D01*
X11938000Y-4014000D02*
X11938000Y-4114000D01*
X11888000Y-4064000D02*
X11988000Y-4064000D01*
X11938000Y-4268000D02*
X11938000Y-4368000D01*
X11888000Y-4318000D02*
X11988000Y-4318000D01*
X11938000Y-7824000D02*
X11938000Y-7924000D01*
X11888000Y-7874000D02*
X11988000Y-7874000D01*
X11938000Y-8078000D02*
X11938000Y-8178000D01*
X11888000Y-8128000D02*
X11988000Y-8128000D01*
X11938000Y-8332000D02*
X11938000Y-8432000D01*
X11888000Y-8382000D02*
X11988000Y-8382000D01*
X11938000Y-8586000D02*
X11938000Y-8686000D01*
X11888000Y-8636000D02*
X11988000Y-8636000D01*
X11938000Y-8840000D02*
X11938000Y-8940000D01*
X11888000Y-8890000D02*
X11988000Y-8890000D01*
X11938000Y-9094000D02*
X11938000Y-9194000D01*
X11888000Y-9144000D02*
X11988000Y-9144000D01*
X11938000Y-9348000D02*
X11938000Y-9448000D01*
X11888000Y-9398000D02*
X11988000Y-9398000D01*
X11938000Y-9602000D02*
X11938000Y-9702000D01*
X11888000Y-9652000D02*
X11988000Y-9652000D01*
X11938000Y-9856000D02*
X11938000Y-9956000D01*
X11888000Y-9906000D02*
X11988000Y-9906000D01*
X11938000Y-10110000D02*
X11938000Y-10210000D01*
X11888000Y-10160000D02*
X11988000Y-10160000D01*
X11938000Y-10364000D02*
X11938000Y-10464000D01*
X11888000Y-10414000D02*
X11988000Y-10414000D01*
X11938000Y-10618000D02*
X11938000Y-10718000D01*
X11888000Y-10668000D02*
X11988000Y-10668000D01*
X11938000Y-10872000D02*
X11938000Y-10972000D01*
X11888000Y-10922000D02*
X11988000Y-10922000D01*
X11938000Y-11126000D02*
X11938000Y-11226000D01*
X11888000Y-11176000D02*
X11988000Y-11176000D01*
X11938000Y-11380000D02*
X11938000Y-11480000D01*
X11888000Y-11430000D02*
X11988000Y-11430000D01*
X11938000Y-11634000D02*
X11938000Y-11734000D01*
X11888000Y-11684000D02*
X11988000Y-11684000D01*
X11938000Y-11888000D02*
X11938000Y-11988000D01*
X11888000Y-11938000D02*
X11988000Y-11938000D01*
X11938000Y-12142000D02*
X11938000Y-12242000D01*
X11888000Y-12192000D02*
X11988000Y-12192000D01*
X11938000Y-12396000D02*
X11938000Y-12496000D01*
X11888000Y-12446000D02*
X11988000Y-12446000D01*
X11938000Y-12650000D02*
X11938000Y-12750000D01*
X11888000Y-12700000D02*
X11988000Y-12700000D01*
X11938000Y-12904000D02*
X11938000Y-13004000D01*
X11888000Y-12954000D02*
X11988000Y-12954000D01*
X11938000Y-13158000D02*
X11938000Y-13258000D01*
X11888000Y-13208000D02*
X11988000Y-13208000D01*
X11938000Y-13412000D02*
X11938000Y-13512000D01*
X11888000Y-13462000D02*
X11988000Y-13462000D01*
X11938000Y-13666000D02*
X11938000Y-13766000D01*
X11888000Y-13716000D02*
X11988000Y-13716000D01*
X11938000Y-13920000D02*
X11938000Y-14020000D01*
X11888000Y-13970000D02*
X11988000Y-13970000D01*
X11938000Y-14174000D02*
X11938000Y-14274000D01*
X11888000Y-14224000D02*
X11988000Y-14224000D01*
X11938000Y-14428000D02*
X11938000Y-14528000D01*
X11888000Y-14478000D02*
X11988000Y-14478000D01*
X11938000Y-14682000D02*
X11938000Y-14782000D01*
X11888000Y-14732000D02*
X11988000Y-14732000D01*
X11938000Y-14936000D02*
X11938000Y-15036000D01*
X11888000Y-14986000D02*
X11988000Y-14986000D01*
X11938000Y-15190000D02*
X11938000Y-15290000D01*
X11888000Y-15240000D02*
X11988000Y-15240000D01*
X11938000Y-15444000D02*
X11938000Y-15544000D01*
X11888000Y-15494000D02*
X11988000Y-15494000D01*
X11938000Y-15698000D02*
X11938000Y-15798000D01*
X11888000Y-15748000D02*
X11988000Y-15748000D01*
X11938000Y-15952000D02*
X11938000Y-16052000D01*
X11888000Y-16002000D02*
X11988000Y-16002000D01*
X11938000Y-16206000D02*
X11938000Y-16306000D01*
X11888000Y-16256000D02*
X11988000Y-16256000D01*
X11938000Y-16460000D02*
X11938000Y-16560000D01*
X11888000Y-16510000D02*
X11988000Y-16510000D01*
X11938000Y-16714000D02*
X11938000Y-16814000D01*
X11888000Y-16764000D02*
X11988000Y-16764000D01*
X11938000Y-16968000D02*
X11938000Y-17068000D01*
X11888000Y-17018000D02*
X11988000Y-17018000D01*
X11938000Y-17222000D02*
X11938000Y-17322000D01*
X11888000Y-17272000D02*
X11988000Y-17272000D01*
X11939000Y-6300500D02*
X11939000Y-6400500D01*
X11889000Y-6350500D02*
X11989000Y-6350500D01*
X11939000Y-6554500D02*
X11939000Y-6654500D01*
X11889000Y-6604500D02*
X11989000Y-6604500D01*
X11939000Y-6808500D02*
X11939000Y-6908500D01*
X11889000Y-6858500D02*
X11989000Y-6858500D01*
X11939000Y-7062500D02*
X11939000Y-7162500D01*
X11889000Y-7112500D02*
X11989000Y-7112500D01*
X11939000Y-7316500D02*
X11939000Y-7416500D01*
X11889000Y-7366500D02*
X11989000Y-7366500D01*
X11939000Y-7570500D02*
X11939000Y-7670500D01*
X11889000Y-7620500D02*
X11989000Y-7620500D01*
X12192000Y-4014000D02*
X12192000Y-4114000D01*
X12142000Y-4064000D02*
X12242000Y-4064000D01*
X12192000Y-4268000D02*
X12192000Y-4368000D01*
X12142000Y-4318000D02*
X12242000Y-4318000D01*
X12192000Y-7824000D02*
X12192000Y-7924000D01*
X12142000Y-7874000D02*
X12242000Y-7874000D01*
X12192000Y-8078000D02*
X12192000Y-8178000D01*
X12142000Y-8128000D02*
X12242000Y-8128000D01*
X12192000Y-8332000D02*
X12192000Y-8432000D01*
X12142000Y-8382000D02*
X12242000Y-8382000D01*
X12192000Y-8586000D02*
X12192000Y-8686000D01*
X12142000Y-8636000D02*
X12242000Y-8636000D01*
X12192000Y-8840000D02*
X12192000Y-8940000D01*
X12142000Y-8890000D02*
X12242000Y-8890000D01*
X12192000Y-9094000D02*
X12192000Y-9194000D01*
X12142000Y-9144000D02*
X12242000Y-9144000D01*
X12192000Y-9348000D02*
X12192000Y-9448000D01*
X12142000Y-9398000D02*
X12242000Y-9398000D01*
X12192000Y-9602000D02*
X12192000Y-9702000D01*
X12142000Y-9652000D02*
X12242000Y-9652000D01*
X12192000Y-9856000D02*
X12192000Y-9956000D01*
X12142000Y-9906000D02*
X12242000Y-9906000D01*
X12192000Y-10110000D02*
X12192000Y-10210000D01*
X12142000Y-10160000D02*
X12242000Y-10160000D01*
X12192000Y-10364000D02*
X12192000Y-10464000D01*
X12142000Y-10414000D02*
X12242000Y-10414000D01*
X12192000Y-10618000D02*
X12192000Y-10718000D01*
X12142000Y-10668000D02*
X12242000Y-10668000D01*
X12192000Y-10872000D02*
X12192000Y-10972000D01*
X12142000Y-10922000D02*
X12242000Y-10922000D01*
X12192000Y-11126000D02*
X12192000Y-11226000D01*
X12142000Y-11176000D02*
X12242000Y-11176000D01*
X12192000Y-11380000D02*
X12192000Y-11480000D01*
X12142000Y-11430000D02*
X12242000Y-11430000D01*
X12192000Y-11634000D02*
X12192000Y-11734000D01*
X12142000Y-11684000D02*
X12242000Y-11684000D01*
X12192000Y-11888000D02*
X12192000Y-11988000D01*
X12142000Y-11938000D02*
X12242000Y-11938000D01*
X12192000Y-12142000D02*
X12192000Y-12242000D01*
X12142000Y-12192000D02*
X12242000Y-12192000D01*
X12192000Y-12396000D02*
X12192000Y-12496000D01*
X12142000Y-12446000D02*
X12242000Y-12446000D01*
X12192000Y-12650000D02*
X12192000Y-12750000D01*
X12142000Y-12700000D02*
X12242000Y-12700000D01*
X12192000Y-12904000D02*
X12192000Y-13004000D01*
X12142000Y-12954000D02*
X12242000Y-12954000D01*
X12192000Y-13158000D02*
X12192000Y-13258000D01*
X12142000Y-13208000D02*
X12242000Y-13208000D01*
X12192000Y-13412000D02*
X12192000Y-13512000D01*
X12142000Y-13462000D02*
X12242000Y-13462000D01*
X12192000Y-13666000D02*
X12192000Y-13766000D01*
X12142000Y-13716000D02*
X12242000Y-13716000D01*
X12192000Y-13920000D02*
X12192000Y-14020000D01*
X12142000Y-13970000D02*
X12242000Y-13970000D01*
X12192000Y-14174000D02*
X12192000Y-14274000D01*
X12142000Y-14224000D02*
X12242000Y-14224000D01*
X12192000Y-14428000D02*
X12192000Y-14528000D01*
X12142000Y-14478000D02*
X12242000Y-14478000D01*
X12192000Y-14682000D02*
X12192000Y-14782000D01*
X12142000Y-14732000D02*
X12242000Y-14732000D01*
X12192000Y-14936000D02*
X12192000Y-15036000D01*
X12142000Y-14986000D02*
X12242000Y-14986000D01*
X12192000Y-15190000D02*
X12192000Y-15290000D01*
X12142000Y-15240000D02*
X12242000Y-15240000D01*
X12192000Y-15444000D02*
X12192000Y-15544000D01*
X12142000Y-15494000D02*
X12242000Y-15494000D01*
X12192000Y-15698000D02*
X12192000Y-15798000D01*
X12142000Y-15748000D02*
X12242000Y-15748000D01*
X12192000Y-15952000D02*
X12192000Y-16052000D01*
X12142000Y-16002000D02*
X12242000Y-16002000D01*
X12192000Y-16206000D02*
X12192000Y-16306000D01*
X12142000Y-16256000D02*
X12242000Y-16256000D01*
X12192000Y-16460000D02*
X12192000Y-16560000D01*
X12142000Y-16510000D02*
X12242000Y-16510000D01*
X12192000Y-16714000D02*
X12192000Y-16814000D01*
X12142000Y-16764000D02*
X12242000Y-16764000D01*
X12192000Y-16968000D02*
X12192000Y-17068000D01*
X12142000Y-17018000D02*
X12242000Y-17018000D01*
X12192000Y-17222000D02*
X12192000Y-17322000D01*
X12142000Y-17272000D02*
X12242000Y-17272000D01*
X12193000Y-6300500D02*
X12193000Y-6400500D01*
X12143000Y-6350500D02*
X12243000Y-6350500D01*
X12193000Y-6554500D02*
X12193000Y-6654500D01*
X12143000Y-6604500D02*
X12243000Y-6604500D01*
X12193000Y-6808500D02*
X12193000Y-6908500D01*
X12143000Y-6858500D02*
X12243000Y-6858500D01*
X12193000Y-7062500D02*
X12193000Y-7162500D01*
X12143000Y-7112500D02*
X12243000Y-7112500D01*
X12193000Y-7316500D02*
X12193000Y-7416500D01*
X12143000Y-7366500D02*
X12243000Y-7366500D01*
X12193000Y-7570500D02*
X12193000Y-7670500D01*
X12143000Y-7620500D02*
X12243000Y-7620500D01*
X12446000Y-4014000D02*
X12446000Y-4114000D01*
X12396000Y-4064000D02*
X12496000Y-4064000D01*
X12446000Y-4268000D02*
X12446000Y-4368000D01*
X12396000Y-4318000D02*
X12496000Y-4318000D01*
X12446000Y-7824000D02*
X12446000Y-7924000D01*
X12396000Y-7874000D02*
X12496000Y-7874000D01*
X12446000Y-8078000D02*
X12446000Y-8178000D01*
X12396000Y-8128000D02*
X12496000Y-8128000D01*
X12446000Y-8332000D02*
X12446000Y-8432000D01*
X12396000Y-8382000D02*
X12496000Y-8382000D01*
X12446000Y-8586000D02*
X12446000Y-8686000D01*
X12396000Y-8636000D02*
X12496000Y-8636000D01*
X12446000Y-8840000D02*
X12446000Y-8940000D01*
X12396000Y-8890000D02*
X12496000Y-8890000D01*
X12446000Y-9094000D02*
X12446000Y-9194000D01*
X12396000Y-9144000D02*
X12496000Y-9144000D01*
X12446000Y-9348000D02*
X12446000Y-9448000D01*
X12396000Y-9398000D02*
X12496000Y-9398000D01*
X12446000Y-9602000D02*
X12446000Y-9702000D01*
X12396000Y-9652000D02*
X12496000Y-9652000D01*
X12446000Y-9856000D02*
X12446000Y-9956000D01*
X12396000Y-9906000D02*
X12496000Y-9906000D01*
X12446000Y-10110000D02*
X12446000Y-10210000D01*
X12396000Y-10160000D02*
X12496000Y-10160000D01*
X12446000Y-10364000D02*
X12446000Y-10464000D01*
X12396000Y-10414000D02*
X12496000Y-10414000D01*
X12446000Y-10618000D02*
X12446000Y-10718000D01*
X12396000Y-10668000D02*
X12496000Y-10668000D01*
X12446000Y-10872000D02*
X12446000Y-10972000D01*
X12396000Y-10922000D02*
X12496000Y-10922000D01*
X12446000Y-11126000D02*
X12446000Y-11226000D01*
X12396000Y-11176000D02*
X12496000Y-11176000D01*
X12446000Y-11380000D02*
X12446000Y-11480000D01*
X12396000Y-11430000D02*
X12496000Y-11430000D01*
X12446000Y-11634000D02*
X12446000Y-11734000D01*
X12396000Y-11684000D02*
X12496000Y-11684000D01*
X12446000Y-11888000D02*
X12446000Y-11988000D01*
X12396000Y-11938000D02*
X12496000Y-11938000D01*
X12446000Y-12142000D02*
X12446000Y-12242000D01*
X12396000Y-12192000D02*
X12496000Y-12192000D01*
X12446000Y-12396000D02*
X12446000Y-12496000D01*
X12396000Y-12446000D02*
X12496000Y-12446000D01*
X12446000Y-12650000D02*
X12446000Y-12750000D01*
X12396000Y-12700000D02*
X12496000Y-12700000D01*
X12446000Y-12904000D02*
X12446000Y-13004000D01*
X12396000Y-12954000D02*
X12496000Y-12954000D01*
X12446000Y-13158000D02*
X12446000Y-13258000D01*
X12396000Y-13208000D02*
X12496000Y-13208000D01*
X12446000Y-13412000D02*
X12446000Y-13512000D01*
X12396000Y-13462000D02*
X12496000Y-13462000D01*
X12446000Y-13666000D02*
X12446000Y-13766000D01*
X12396000Y-13716000D02*
X12496000Y-13716000D01*
X12446000Y-13920000D02*
X12446000Y-14020000D01*
X12396000Y-13970000D02*
X12496000Y-13970000D01*
X12446000Y-14174000D02*
X12446000Y-14274000D01*
X12396000Y-14224000D02*
X12496000Y-14224000D01*
X12446000Y-14428000D02*
X12446000Y-14528000D01*
X12396000Y-14478000D02*
X12496000Y-14478000D01*
X12446000Y-14682000D02*
X12446000Y-14782000D01*
X12396000Y-14732000D02*
X12496000Y-14732000D01*
X12446000Y-14936000D02*
X12446000Y-15036000D01*
X12396000Y-14986000D02*
X12496000Y-14986000D01*
X12446000Y-15190000D02*
X12446000Y-15290000D01*
X12396000Y-15240000D02*
X12496000Y-15240000D01*
X12446000Y-15444000D02*
X12446000Y-15544000D01*
X12396000Y-15494000D02*
X12496000Y-15494000D01*
X12446000Y-15698000D02*
X12446000Y-15798000D01*
X12396000Y-15748000D02*
X12496000Y-15748000D01*
X12446000Y-15952000D02*
X12446000Y-16052000D01*
X12396000Y-16002000D02*
X12496000Y-16002000D01*
X12446000Y-16206000D02*
X12446000Y-16306000D01*
X12396000Y-16256000D02*
X12496000Y-16256000D01*
X12446000Y-16460000D02*
X12446000Y-16560000D01*
X12396000Y-16510000D02*
X12496000Y-16510000D01*
X12446000Y-16714000D02*
X12446000Y-16814000D01*
X12396000Y-16764000D02*
X12496000Y-16764000D01*
X12446000Y-16968000D02*
X12446000Y-17068000D01*
X12396000Y-17018000D02*
X12496000Y-17018000D01*
X12446000Y-17222000D02*
X12446000Y-17322000D01*
X12396000Y-17272000D02*
X12496000Y-17272000D01*
X12447000Y-6300500D02*
X12447000Y-6400500D01*
X12397000Y-6350500D02*
X12497000Y-6350500D01*
X12447000Y-6554500D02*
X12447000Y-6654500D01*
X12397000Y-6604500D02*
X12497000Y-6604500D01*
X12447000Y-6808500D02*
X12447000Y-6908500D01*
X12397000Y-6858500D02*
X12497000Y-6858500D01*
X12447000Y-7062500D02*
X12447000Y-7162500D01*
X12397000Y-7112500D02*
X12497000Y-7112500D01*
X12447000Y-7316500D02*
X12447000Y-7416500D01*
X12397000Y-7366500D02*
X12497000Y-7366500D01*
X12447000Y-7570500D02*
X12447000Y-7670500D01*
X12397000Y-7620500D02*
X12497000Y-7620500D01*
X12700000Y-4014000D02*
X12700000Y-4114000D01*
X12650000Y-4064000D02*
X12750000Y-4064000D01*
X12700000Y-4268000D02*
X12700000Y-4368000D01*
X12650000Y-4318000D02*
X12750000Y-4318000D01*
X12700000Y-7824000D02*
X12700000Y-7924000D01*
X12650000Y-7874000D02*
X12750000Y-7874000D01*
X12700000Y-8078000D02*
X12700000Y-8178000D01*
X12650000Y-8128000D02*
X12750000Y-8128000D01*
X12700000Y-8332000D02*
X12700000Y-8432000D01*
X12650000Y-8382000D02*
X12750000Y-8382000D01*
X12700000Y-8586000D02*
X12700000Y-8686000D01*
X12650000Y-8636000D02*
X12750000Y-8636000D01*
X12700000Y-8840000D02*
X12700000Y-8940000D01*
X12650000Y-8890000D02*
X12750000Y-8890000D01*
X12700000Y-9094000D02*
X12700000Y-9194000D01*
X12650000Y-9144000D02*
X12750000Y-9144000D01*
X12700000Y-9348000D02*
X12700000Y-9448000D01*
X12650000Y-9398000D02*
X12750000Y-9398000D01*
X12700000Y-9602000D02*
X12700000Y-9702000D01*
X12650000Y-9652000D02*
X12750000Y-9652000D01*
X12700000Y-9856000D02*
X12700000Y-9956000D01*
X12650000Y-9906000D02*
X12750000Y-9906000D01*
X12700000Y-10110000D02*
X12700000Y-10210000D01*
X12650000Y-10160000D02*
X12750000Y-10160000D01*
X12700000Y-10364000D02*
X12700000Y-10464000D01*
X12650000Y-10414000D02*
X12750000Y-10414000D01*
X12700000Y-10618000D02*
X12700000Y-10718000D01*
X12650000Y-10668000D02*
X12750000Y-10668000D01*
X12700000Y-10872000D02*
X12700000Y-10972000D01*
X12650000Y-10922000D02*
X12750000Y-10922000D01*
X12700000Y-11126000D02*
X12700000Y-11226000D01*
X12650000Y-11176000D02*
X12750000Y-11176000D01*
X12700000Y-11380000D02*
X12700000Y-11480000D01*
X12650000Y-11430000D02*
X12750000Y-11430000D01*
X12700000Y-11634000D02*
X12700000Y-11734000D01*
X12650000Y-11684000D02*
X12750000Y-11684000D01*
X12700000Y-11888000D02*
X12700000Y-11988000D01*
X12650000Y-11938000D02*
X12750000Y-11938000D01*
X12700000Y-12142000D02*
X12700000Y-12242000D01*
X12650000Y-12192000D02*
X12750000Y-12192000D01*
X12700000Y-12396000D02*
X12700000Y-12496000D01*
X12650000Y-12446000D02*
X12750000Y-12446000D01*
X12700000Y-12650000D02*
X12700000Y-12750000D01*
X12650000Y-12700000D02*
X12750000Y-12700000D01*
X12700000Y-12904000D02*
X12700000Y-13004000D01*
X12650000Y-12954000D02*
X12750000Y-12954000D01*
X12700000Y-13158000D02*
X12700000Y-13258000D01*
X12650000Y-13208000D02*
X12750000Y-13208000D01*
X12700000Y-13412000D02*
X12700000Y-13512000D01*
X12650000Y-13462000D02*
X12750000Y-13462000D01*
X12700000Y-13666000D02*
X12700000Y-13766000D01*
X12650000Y-13716000D02*
X12750000Y-13716000D01*
X12700000Y-13920000D02*
X12700000Y-14020000D01*
X12650000Y-13970000D02*
X12750000Y-13970000D01*
X12700000Y-14174000D02*
X12700000Y-14274000D01*
X12650000Y-14224000D02*
X12750000Y-14224000D01*
X12700000Y-14428000D02*
X12700000Y-14528000D01*
X12650000Y-14478000D02*
X12750000Y-14478000D01*
X12700000Y-14682000D02*
X12700000Y-14782000D01*
X12650000Y-14732000D02*
X12750000Y-14732000D01*
X12700000Y-14936000D02*
X12700000Y-15036000D01*
X12650000Y-14986000D02*
X12750000Y-14986000D01*
X12700000Y-15190000D02*
X12700000Y-15290000D01*
X12650000Y-15240000D02*
X12750000Y-15240000D01*
X12700000Y-15444000D02*
X12700000Y-15544000D01*
X12650000Y-15494000D02*
X12750000Y-15494000D01*
X12700000Y-15698000D02*
X12700000Y-15798000D01*
X12650000Y-15748000D02*
X12750000Y-15748000D01*
X12700000Y-15952000D02*
X12700000Y-16052000D01*
X12650000Y-16002000D02*
X12750000Y-16002000D01*
X12700000Y-16206000D02*
X12700000Y-16306000D01*
X12650000Y-16256000D02*
X12750000Y-16256000D01*
X12700000Y-16460000D02*
X12700000Y-16560000D01*
X12650000Y-16510000D02*
X12750000Y-16510000D01*
X12700000Y-16714000D02*
X12700000Y-16814000D01*
X12650000Y-16764000D02*
X12750000Y-16764000D01*
X12700000Y-16968000D02*
X12700000Y-17068000D01*
X12650000Y-17018000D02*
X12750000Y-17018000D01*
X12700000Y-17222000D02*
X12700000Y-17322000D01*
X12650000Y-17272000D02*
X12750000Y-17272000D01*
X12701000Y-6300500D02*
X12701000Y-6400500D01*
X12651000Y-6350500D02*
X12751000Y-6350500D01*
X12701000Y-6554500D02*
X12701000Y-6654500D01*
X12651000Y-6604500D02*
X12751000Y-6604500D01*
X12701000Y-6808500D02*
X12701000Y-6908500D01*
X12651000Y-6858500D02*
X12751000Y-6858500D01*
X12701000Y-7062500D02*
X12701000Y-7162500D01*
X12651000Y-7112500D02*
X12751000Y-7112500D01*
X12701000Y-7316500D02*
X12701000Y-7416500D01*
X12651000Y-7366500D02*
X12751000Y-7366500D01*
X12701000Y-7570500D02*
X12701000Y-7670500D01*
X12651000Y-7620500D02*
X12751000Y-7620500D01*
X12954000Y-7824000D02*
X12954000Y-7924000D01*
X12904000Y-7874000D02*
X13004000Y-7874000D01*
X12954000Y-8332000D02*
X12954000Y-8432000D01*
X12904000Y-8382000D02*
X13004000Y-8382000D01*
X12954000Y-8840000D02*
X12954000Y-8940000D01*
X12904000Y-8890000D02*
X13004000Y-8890000D01*
X12954000Y-9348000D02*
X12954000Y-9448000D01*
X12904000Y-9398000D02*
X13004000Y-9398000D01*
X12954000Y-9856000D02*
X12954000Y-9956000D01*
X12904000Y-9906000D02*
X13004000Y-9906000D01*
X12954000Y-10364000D02*
X12954000Y-10464000D01*
X12904000Y-10414000D02*
X13004000Y-10414000D01*
X12954000Y-10872000D02*
X12954000Y-10972000D01*
X12904000Y-10922000D02*
X13004000Y-10922000D01*
X12954000Y-11380000D02*
X12954000Y-11480000D01*
X12904000Y-11430000D02*
X13004000Y-11430000D01*
X12954000Y-11888000D02*
X12954000Y-11988000D01*
X12904000Y-11938000D02*
X13004000Y-11938000D01*
X12954000Y-12396000D02*
X12954000Y-12496000D01*
X12904000Y-12446000D02*
X13004000Y-12446000D01*
X12954000Y-12904000D02*
X12954000Y-13004000D01*
X12904000Y-12954000D02*
X13004000Y-12954000D01*
X12954000Y-13412000D02*
X12954000Y-13512000D01*
X12904000Y-13462000D02*
X13004000Y-13462000D01*
X12954000Y-13920000D02*
X12954000Y-14020000D01*
X12904000Y-13970000D02*
X13004000Y-13970000D01*
X12954000Y-14428000D02*
X12954000Y-14528000D01*
X12904000Y-14478000D02*
X13004000Y-14478000D01*
X12954000Y-14936000D02*
X12954000Y-15036000D01*
X12904000Y-14986000D02*
X13004000Y-14986000D01*
X12954000Y-15444000D02*
X12954000Y-15544000D01*
X12904000Y-15494000D02*
X13004000Y-15494000D01*
X12954000Y-15952000D02*
X12954000Y-16052000D01*
X12904000Y-16002000D02*
X13004000Y-16002000D01*
X12954000Y-16460000D02*
X12954000Y-16560000D01*
X12904000Y-16510000D02*
X13004000Y-16510000D01*
X12954000Y-16968000D02*
X12954000Y-17068000D01*
X12904000Y-17018000D02*
X13004000Y-17018000D01*
X12954000Y-8078000D02*
X12954000Y-8178000D01*
X12904000Y-8128000D02*
X13004000Y-8128000D01*
X12954000Y-8586000D02*
X12954000Y-8686000D01*
X12904000Y-8636000D02*
X13004000Y-8636000D01*
X12954000Y-9094000D02*
X12954000Y-9194000D01*
X12904000Y-9144000D02*
X13004000Y-9144000D01*
X12954000Y-9602000D02*
X12954000Y-9702000D01*
X12904000Y-9652000D02*
X13004000Y-9652000D01*
X12954000Y-10110000D02*
X12954000Y-10210000D01*
X12904000Y-10160000D02*
X13004000Y-10160000D01*
X12954000Y-10618000D02*
X12954000Y-10718000D01*
X12904000Y-10668000D02*
X13004000Y-10668000D01*
X12954000Y-11126000D02*
X12954000Y-11226000D01*
X12904000Y-11176000D02*
X13004000Y-11176000D01*
X12954000Y-11634000D02*
X12954000Y-11734000D01*
X12904000Y-11684000D02*
X13004000Y-11684000D01*
X12954000Y-12142000D02*
X12954000Y-12242000D01*
X12904000Y-12192000D02*
X13004000Y-12192000D01*
X12954000Y-12650000D02*
X12954000Y-12750000D01*
X12904000Y-12700000D02*
X13004000Y-12700000D01*
X12954000Y-13158000D02*
X12954000Y-13258000D01*
X12904000Y-13208000D02*
X13004000Y-13208000D01*
X12954000Y-13666000D02*
X12954000Y-13766000D01*
X12904000Y-13716000D02*
X13004000Y-13716000D01*
X12954000Y-14174000D02*
X12954000Y-14274000D01*
X12904000Y-14224000D02*
X13004000Y-14224000D01*
X12954000Y-14682000D02*
X12954000Y-14782000D01*
X12904000Y-14732000D02*
X13004000Y-14732000D01*
X12954000Y-15190000D02*
X12954000Y-15290000D01*
X12904000Y-15240000D02*
X13004000Y-15240000D01*
X12954000Y-15698000D02*
X12954000Y-15798000D01*
X12904000Y-15748000D02*
X13004000Y-15748000D01*
X12954000Y-16206000D02*
X12954000Y-16306000D01*
X12904000Y-16256000D02*
X13004000Y-16256000D01*
X12954000Y-16714000D02*
X12954000Y-16814000D01*
X12904000Y-16764000D02*
X13004000Y-16764000D01*
X12954000Y-17222000D02*
X12954000Y-17322000D01*
X12904000Y-17272000D02*
X13004000Y-17272000D01*
X12955000Y-6300500D02*
X12955000Y-6400500D01*
X12905000Y-6350500D02*
X13005000Y-6350500D01*
X12955000Y-6808500D02*
X12955000Y-6908500D01*
X12905000Y-6858500D02*
X13005000Y-6858500D01*
X12955000Y-7316500D02*
X12955000Y-7416500D01*
X12905000Y-7366500D02*
X13005000Y-7366500D01*
X12955000Y-6554500D02*
X12955000Y-6654500D01*
X12905000Y-6604500D02*
X13005000Y-6604500D01*
X12955000Y-7062500D02*
X12955000Y-7162500D01*
X12905000Y-7112500D02*
X13005000Y-7112500D01*
X12955000Y-7570500D02*
X12955000Y-7670500D01*
X12905000Y-7620500D02*
X13005000Y-7620500D01*
X13208000Y-7824000D02*
X13208000Y-7924000D01*
X13158000Y-7874000D02*
X13258000Y-7874000D01*
X13208000Y-8078000D02*
X13208000Y-8178000D01*
X13158000Y-8128000D02*
X13258000Y-8128000D01*
X13208000Y-8332000D02*
X13208000Y-8432000D01*
X13158000Y-8382000D02*
X13258000Y-8382000D01*
X13208000Y-8586000D02*
X13208000Y-8686000D01*
X13158000Y-8636000D02*
X13258000Y-8636000D01*
X13208000Y-8840000D02*
X13208000Y-8940000D01*
X13158000Y-8890000D02*
X13258000Y-8890000D01*
X13208000Y-9094000D02*
X13208000Y-9194000D01*
X13158000Y-9144000D02*
X13258000Y-9144000D01*
X13208000Y-9348000D02*
X13208000Y-9448000D01*
X13158000Y-9398000D02*
X13258000Y-9398000D01*
X13208000Y-9602000D02*
X13208000Y-9702000D01*
X13158000Y-9652000D02*
X13258000Y-9652000D01*
X13208000Y-9856000D02*
X13208000Y-9956000D01*
X13158000Y-9906000D02*
X13258000Y-9906000D01*
X13208000Y-10110000D02*
X13208000Y-10210000D01*
X13158000Y-10160000D02*
X13258000Y-10160000D01*
X13208000Y-10364000D02*
X13208000Y-10464000D01*
X13158000Y-10414000D02*
X13258000Y-10414000D01*
X13208000Y-10618000D02*
X13208000Y-10718000D01*
X13158000Y-10668000D02*
X13258000Y-10668000D01*
X13208000Y-10872000D02*
X13208000Y-10972000D01*
X13158000Y-10922000D02*
X13258000Y-10922000D01*
X13208000Y-11126000D02*
X13208000Y-11226000D01*
X13158000Y-11176000D02*
X13258000Y-11176000D01*
X13208000Y-11380000D02*
X13208000Y-11480000D01*
X13158000Y-11430000D02*
X13258000Y-11430000D01*
X13208000Y-11634000D02*
X13208000Y-11734000D01*
X13158000Y-11684000D02*
X13258000Y-11684000D01*
X13208000Y-11888000D02*
X13208000Y-11988000D01*
X13158000Y-11938000D02*
X13258000Y-11938000D01*
X13208000Y-12142000D02*
X13208000Y-12242000D01*
X13158000Y-12192000D02*
X13258000Y-12192000D01*
X13208000Y-12396000D02*
X13208000Y-12496000D01*
X13158000Y-12446000D02*
X13258000Y-12446000D01*
X13208000Y-12650000D02*
X13208000Y-12750000D01*
X13158000Y-12700000D02*
X13258000Y-12700000D01*
X13208000Y-12904000D02*
X13208000Y-13004000D01*
X13158000Y-12954000D02*
X13258000Y-12954000D01*
X13208000Y-13158000D02*
X13208000Y-13258000D01*
X13158000Y-13208000D02*
X13258000Y-13208000D01*
X13208000Y-13412000D02*
X13208000Y-13512000D01*
X13158000Y-13462000D02*
X13258000Y-13462000D01*
X13208000Y-13666000D02*
X13208000Y-13766000D01*
X13158000Y-13716000D02*
X13258000Y-13716000D01*
X13208000Y-13920000D02*
X13208000Y-14020000D01*
X13158000Y-13970000D02*
X13258000Y-13970000D01*
X13208000Y-14174000D02*
X13208000Y-14274000D01*
X13158000Y-14224000D02*
X13258000Y-14224000D01*
X13208000Y-14428000D02*
X13208000Y-14528000D01*
X13158000Y-14478000D02*
X13258000Y-14478000D01*
X13208000Y-14682000D02*
X13208000Y-14782000D01*
X13158000Y-14732000D02*
X13258000Y-14732000D01*
X13208000Y-14936000D02*
X13208000Y-15036000D01*
X13158000Y-14986000D02*
X13258000Y-14986000D01*
X13208000Y-15190000D02*
X13208000Y-15290000D01*
X13158000Y-15240000D02*
X13258000Y-15240000D01*
X13208000Y-15444000D02*
X13208000Y-15544000D01*
X13158000Y-15494000D02*
X13258000Y-15494000D01*
X13208000Y-15698000D02*
X13208000Y-15798000D01*
X13158000Y-15748000D02*
X13258000Y-15748000D01*
X13208000Y-15952000D02*
X13208000Y-16052000D01*
X13158000Y-16002000D02*
X13258000Y-16002000D01*
X13208000Y-16206000D02*
X13208000Y-16306000D01*
X13158000Y-16256000D02*
X13258000Y-16256000D01*
X13208000Y-16460000D02*
X13208000Y-16560000D01*
X13158000Y-16510000D02*
X13258000Y-16510000D01*
X13208000Y-16714000D02*
X13208000Y-16814000D01*
X13158000Y-16764000D02*
X13258000Y-16764000D01*
X13208000Y-16968000D02*
X13208000Y-17068000D01*
X13158000Y-17018000D02*
X13258000Y-17018000D01*
X13208000Y-17222000D02*
X13208000Y-17322000D01*
X13158000Y-17272000D02*
X13258000Y-17272000D01*
X13209000Y-6300500D02*
X13209000Y-6400500D01*
X13159000Y-6350500D02*
X13259000Y-6350500D01*
X13209000Y-6554500D02*
X13209000Y-6654500D01*
X13159000Y-6604500D02*
X13259000Y-6604500D01*
X13209000Y-6808500D02*
X13209000Y-6908500D01*
X13159000Y-6858500D02*
X13259000Y-6858500D01*
X13209000Y-7062500D02*
X13209000Y-7162500D01*
X13159000Y-7112500D02*
X13259000Y-7112500D01*
X13209000Y-7316500D02*
X13209000Y-7416500D01*
X13159000Y-7366500D02*
X13259000Y-7366500D01*
X13209000Y-7570500D02*
X13209000Y-7670500D01*
X13159000Y-7620500D02*
X13259000Y-7620500D01*
X13462000Y-7824000D02*
X13462000Y-7924000D01*
X13412000Y-7874000D02*
X13512000Y-7874000D01*
X13462000Y-8078000D02*
X13462000Y-8178000D01*
X13412000Y-8128000D02*
X13512000Y-8128000D01*
X13462000Y-8332000D02*
X13462000Y-8432000D01*
X13412000Y-8382000D02*
X13512000Y-8382000D01*
X13462000Y-8586000D02*
X13462000Y-8686000D01*
X13412000Y-8636000D02*
X13512000Y-8636000D01*
X13462000Y-8840000D02*
X13462000Y-8940000D01*
X13412000Y-8890000D02*
X13512000Y-8890000D01*
X13462000Y-9094000D02*
X13462000Y-9194000D01*
X13412000Y-9144000D02*
X13512000Y-9144000D01*
X13462000Y-9348000D02*
X13462000Y-9448000D01*
X13412000Y-9398000D02*
X13512000Y-9398000D01*
X13462000Y-9602000D02*
X13462000Y-9702000D01*
X13412000Y-9652000D02*
X13512000Y-9652000D01*
X13462000Y-9856000D02*
X13462000Y-9956000D01*
X13412000Y-9906000D02*
X13512000Y-9906000D01*
X13462000Y-10110000D02*
X13462000Y-10210000D01*
X13412000Y-10160000D02*
X13512000Y-10160000D01*
X13462000Y-10364000D02*
X13462000Y-10464000D01*
X13412000Y-10414000D02*
X13512000Y-10414000D01*
X13462000Y-10618000D02*
X13462000Y-10718000D01*
X13412000Y-10668000D02*
X13512000Y-10668000D01*
X13462000Y-10872000D02*
X13462000Y-10972000D01*
X13412000Y-10922000D02*
X13512000Y-10922000D01*
X13462000Y-11126000D02*
X13462000Y-11226000D01*
X13412000Y-11176000D02*
X13512000Y-11176000D01*
X13462000Y-11380000D02*
X13462000Y-11480000D01*
X13412000Y-11430000D02*
X13512000Y-11430000D01*
X13462000Y-11634000D02*
X13462000Y-11734000D01*
X13412000Y-11684000D02*
X13512000Y-11684000D01*
X13462000Y-11888000D02*
X13462000Y-11988000D01*
X13412000Y-11938000D02*
X13512000Y-11938000D01*
X13462000Y-12142000D02*
X13462000Y-12242000D01*
X13412000Y-12192000D02*
X13512000Y-12192000D01*
X13462000Y-12396000D02*
X13462000Y-12496000D01*
X13412000Y-12446000D02*
X13512000Y-12446000D01*
X13462000Y-12650000D02*
X13462000Y-12750000D01*
X13412000Y-12700000D02*
X13512000Y-12700000D01*
X13462000Y-12904000D02*
X13462000Y-13004000D01*
X13412000Y-12954000D02*
X13512000Y-12954000D01*
X13462000Y-13158000D02*
X13462000Y-13258000D01*
X13412000Y-13208000D02*
X13512000Y-13208000D01*
X13462000Y-13412000D02*
X13462000Y-13512000D01*
X13412000Y-13462000D02*
X13512000Y-13462000D01*
X13462000Y-13666000D02*
X13462000Y-13766000D01*
X13412000Y-13716000D02*
X13512000Y-13716000D01*
X13462000Y-13920000D02*
X13462000Y-14020000D01*
X13412000Y-13970000D02*
X13512000Y-13970000D01*
X13462000Y-14174000D02*
X13462000Y-14274000D01*
X13412000Y-14224000D02*
X13512000Y-14224000D01*
X13462000Y-14428000D02*
X13462000Y-14528000D01*
X13412000Y-14478000D02*
X13512000Y-14478000D01*
X13462000Y-14682000D02*
X13462000Y-14782000D01*
X13412000Y-14732000D02*
X13512000Y-14732000D01*
X13462000Y-14936000D02*
X13462000Y-15036000D01*
X13412000Y-14986000D02*
X13512000Y-14986000D01*
X13462000Y-15190000D02*
X13462000Y-15290000D01*
X13412000Y-15240000D02*
X13512000Y-15240000D01*
X13462000Y-15444000D02*
X13462000Y-15544000D01*
X13412000Y-15494000D02*
X13512000Y-15494000D01*
X13462000Y-15698000D02*
X13462000Y-15798000D01*
X13412000Y-15748000D02*
X13512000Y-15748000D01*
X13462000Y-15952000D02*
X13462000Y-16052000D01*
X13412000Y-16002000D02*
X13512000Y-16002000D01*
X13462000Y-16206000D02*
X13462000Y-16306000D01*
X13412000Y-16256000D02*
X13512000Y-16256000D01*
X13462000Y-16460000D02*
X13462000Y-16560000D01*
X13412000Y-16510000D02*
X13512000Y-16510000D01*
X13462000Y-16714000D02*
X13462000Y-16814000D01*
X13412000Y-16764000D02*
X13512000Y-16764000D01*
X13462000Y-16968000D02*
X13462000Y-17068000D01*
X13412000Y-17018000D02*
X13512000Y-17018000D01*
X13462000Y-17222000D02*
X13462000Y-17322000D01*
X13412000Y-17272000D02*
X13512000Y-17272000D01*
X13463000Y-6300500D02*
X13463000Y-6400500D01*
X13413000Y-6350500D02*
X13513000Y-6350500D01*
X13463000Y-6554500D02*
X13463000Y-6654500D01*
X13413000Y-6604500D02*
X13513000Y-6604500D01*
X13463000Y-6808500D02*
X13463000Y-6908500D01*
X13413000Y-6858500D02*
X13513000Y-6858500D01*
X13463000Y-7062500D02*
X13463000Y-7162500D01*
X13413000Y-7112500D02*
X13513000Y-7112500D01*
X13463000Y-7316500D02*
X13463000Y-7416500D01*
X13413000Y-7366500D02*
X13513000Y-7366500D01*
X13463000Y-7570500D02*
X13463000Y-7670500D01*
X13413000Y-7620500D02*
X13513000Y-7620500D01*
X13716000Y-7824000D02*
X13716000Y-7924000D01*
X13666000Y-7874000D02*
X13766000Y-7874000D01*
X13716000Y-8078000D02*
X13716000Y-8178000D01*
X13666000Y-8128000D02*
X13766000Y-8128000D01*
X13716000Y-8332000D02*
X13716000Y-8432000D01*
X13666000Y-8382000D02*
X13766000Y-8382000D01*
X13716000Y-8586000D02*
X13716000Y-8686000D01*
X13666000Y-8636000D02*
X13766000Y-8636000D01*
X13716000Y-8840000D02*
X13716000Y-8940000D01*
X13666000Y-8890000D02*
X13766000Y-8890000D01*
X13716000Y-9094000D02*
X13716000Y-9194000D01*
X13666000Y-9144000D02*
X13766000Y-9144000D01*
X13716000Y-9348000D02*
X13716000Y-9448000D01*
X13666000Y-9398000D02*
X13766000Y-9398000D01*
X13716000Y-9602000D02*
X13716000Y-9702000D01*
X13666000Y-9652000D02*
X13766000Y-9652000D01*
X13716000Y-9856000D02*
X13716000Y-9956000D01*
X13666000Y-9906000D02*
X13766000Y-9906000D01*
X13716000Y-10110000D02*
X13716000Y-10210000D01*
X13666000Y-10160000D02*
X13766000Y-10160000D01*
X13716000Y-10364000D02*
X13716000Y-10464000D01*
X13666000Y-10414000D02*
X13766000Y-10414000D01*
X13716000Y-10618000D02*
X13716000Y-10718000D01*
X13666000Y-10668000D02*
X13766000Y-10668000D01*
X13716000Y-10872000D02*
X13716000Y-10972000D01*
X13666000Y-10922000D02*
X13766000Y-10922000D01*
X13716000Y-11126000D02*
X13716000Y-11226000D01*
X13666000Y-11176000D02*
X13766000Y-11176000D01*
X13716000Y-11380000D02*
X13716000Y-11480000D01*
X13666000Y-11430000D02*
X13766000Y-11430000D01*
X13716000Y-11634000D02*
X13716000Y-11734000D01*
X13666000Y-11684000D02*
X13766000Y-11684000D01*
X13716000Y-11888000D02*
X13716000Y-11988000D01*
X13666000Y-11938000D02*
X13766000Y-11938000D01*
X13716000Y-12142000D02*
X13716000Y-12242000D01*
X13666000Y-12192000D02*
X13766000Y-12192000D01*
X13716000Y-12396000D02*
X13716000Y-12496000D01*
X13666000Y-12446000D02*
X13766000Y-12446000D01*
X13716000Y-12650000D02*
X13716000Y-12750000D01*
X13666000Y-12700000D02*
X13766000Y-12700000D01*
X13716000Y-12904000D02*
X13716000Y-13004000D01*
X13666000Y-12954000D02*
X13766000Y-12954000D01*
X13716000Y-13158000D02*
X13716000Y-13258000D01*
X13666000Y-13208000D02*
X13766000Y-13208000D01*
X13716000Y-13412000D02*
X13716000Y-13512000D01*
X13666000Y-13462000D02*
X13766000Y-13462000D01*
X13716000Y-13666000D02*
X13716000Y-13766000D01*
X13666000Y-13716000D02*
X13766000Y-13716000D01*
X13716000Y-13920000D02*
X13716000Y-14020000D01*
X13666000Y-13970000D02*
X13766000Y-13970000D01*
X13716000Y-14174000D02*
X13716000Y-14274000D01*
X13666000Y-14224000D02*
X13766000Y-14224000D01*
X13716000Y-14428000D02*
X13716000Y-14528000D01*
X13666000Y-14478000D02*
X13766000Y-14478000D01*
X13716000Y-14682000D02*
X13716000Y-14782000D01*
X13666000Y-14732000D02*
X13766000Y-14732000D01*
X13716000Y-14936000D02*
X13716000Y-15036000D01*
X13666000Y-14986000D02*
X13766000Y-14986000D01*
X13716000Y-15190000D02*
X13716000Y-15290000D01*
X13666000Y-15240000D02*
X13766000Y-15240000D01*
X13716000Y-15444000D02*
X13716000Y-15544000D01*
X13666000Y-15494000D02*
X13766000Y-15494000D01*
X13716000Y-15698000D02*
X13716000Y-15798000D01*
X13666000Y-15748000D02*
X13766000Y-15748000D01*
X13716000Y-15952000D02*
X13716000Y-16052000D01*
X13666000Y-16002000D02*
X13766000Y-16002000D01*
X13716000Y-16206000D02*
X13716000Y-16306000D01*
X13666000Y-16256000D02*
X13766000Y-16256000D01*
X13716000Y-16460000D02*
X13716000Y-16560000D01*
X13666000Y-16510000D02*
X13766000Y-16510000D01*
X13716000Y-16714000D02*
X13716000Y-16814000D01*
X13666000Y-16764000D02*
X13766000Y-16764000D01*
X13716000Y-16968000D02*
X13716000Y-17068000D01*
X13666000Y-17018000D02*
X13766000Y-17018000D01*
X13716000Y-17222000D02*
X13716000Y-17322000D01*
X13666000Y-17272000D02*
X13766000Y-17272000D01*
X13717000Y-6300500D02*
X13717000Y-6400500D01*
X13667000Y-6350500D02*
X13767000Y-6350500D01*
X13717000Y-6554500D02*
X13717000Y-6654500D01*
X13667000Y-6604500D02*
X13767000Y-6604500D01*
X13717000Y-6808500D02*
X13717000Y-6908500D01*
X13667000Y-6858500D02*
X13767000Y-6858500D01*
X13717000Y-7062500D02*
X13717000Y-7162500D01*
X13667000Y-7112500D02*
X13767000Y-7112500D01*
X13717000Y-7316500D02*
X13717000Y-7416500D01*
X13667000Y-7366500D02*
X13767000Y-7366500D01*
X13717000Y-7570500D02*
X13717000Y-7670500D01*
X13667000Y-7620500D02*
X13767000Y-7620500D01*
X13970000Y-8078000D02*
X13970000Y-8178000D01*
X13920000Y-8128000D02*
X14020000Y-8128000D01*
X13970000Y-8586000D02*
X13970000Y-8686000D01*
X13920000Y-8636000D02*
X14020000Y-8636000D01*
X13970000Y-9094000D02*
X13970000Y-9194000D01*
X13920000Y-9144000D02*
X14020000Y-9144000D01*
X13970000Y-9602000D02*
X13970000Y-9702000D01*
X13920000Y-9652000D02*
X14020000Y-9652000D01*
X13970000Y-10110000D02*
X13970000Y-10210000D01*
X13920000Y-10160000D02*
X14020000Y-10160000D01*
X13970000Y-10618000D02*
X13970000Y-10718000D01*
X13920000Y-10668000D02*
X14020000Y-10668000D01*
X13970000Y-11126000D02*
X13970000Y-11226000D01*
X13920000Y-11176000D02*
X14020000Y-11176000D01*
X13970000Y-11634000D02*
X13970000Y-11734000D01*
X13920000Y-11684000D02*
X14020000Y-11684000D01*
X13970000Y-12142000D02*
X13970000Y-12242000D01*
X13920000Y-12192000D02*
X14020000Y-12192000D01*
X13970000Y-12650000D02*
X13970000Y-12750000D01*
X13920000Y-12700000D02*
X14020000Y-12700000D01*
X13970000Y-13158000D02*
X13970000Y-13258000D01*
X13920000Y-13208000D02*
X14020000Y-13208000D01*
X13970000Y-13666000D02*
X13970000Y-13766000D01*
X13920000Y-13716000D02*
X14020000Y-13716000D01*
X13970000Y-14174000D02*
X13970000Y-14274000D01*
X13920000Y-14224000D02*
X14020000Y-14224000D01*
X13970000Y-14682000D02*
X13970000Y-14782000D01*
X13920000Y-14732000D02*
X14020000Y-14732000D01*
X13970000Y-15190000D02*
X13970000Y-15290000D01*
X13920000Y-15240000D02*
X14020000Y-15240000D01*
X13970000Y-15698000D02*
X13970000Y-15798000D01*
X13920000Y-15748000D02*
X14020000Y-15748000D01*
X13970000Y-16206000D02*
X13970000Y-16306000D01*
X13920000Y-16256000D02*
X14020000Y-16256000D01*
X13970000Y-16714000D02*
X13970000Y-16814000D01*
X13920000Y-16764000D02*
X14020000Y-16764000D01*
X13970000Y-17222000D02*
X13970000Y-17322000D01*
X13920000Y-17272000D02*
X14020000Y-17272000D01*
X13970000Y-7824000D02*
X13970000Y-7924000D01*
X13920000Y-7874000D02*
X14020000Y-7874000D01*
X13970000Y-8332000D02*
X13970000Y-8432000D01*
X13920000Y-8382000D02*
X14020000Y-8382000D01*
X13970000Y-8840000D02*
X13970000Y-8940000D01*
X13920000Y-8890000D02*
X14020000Y-8890000D01*
X13970000Y-9348000D02*
X13970000Y-9448000D01*
X13920000Y-9398000D02*
X14020000Y-9398000D01*
X13970000Y-9856000D02*
X13970000Y-9956000D01*
X13920000Y-9906000D02*
X14020000Y-9906000D01*
X13970000Y-10364000D02*
X13970000Y-10464000D01*
X13920000Y-10414000D02*
X14020000Y-10414000D01*
X13970000Y-10872000D02*
X13970000Y-10972000D01*
X13920000Y-10922000D02*
X14020000Y-10922000D01*
X13970000Y-11380000D02*
X13970000Y-11480000D01*
X13920000Y-11430000D02*
X14020000Y-11430000D01*
X13970000Y-11888000D02*
X13970000Y-11988000D01*
X13920000Y-11938000D02*
X14020000Y-11938000D01*
X13970000Y-12396000D02*
X13970000Y-12496000D01*
X13920000Y-12446000D02*
X14020000Y-12446000D01*
X13970000Y-12904000D02*
X13970000Y-13004000D01*
X13920000Y-12954000D02*
X14020000Y-12954000D01*
X13970000Y-13412000D02*
X13970000Y-13512000D01*
X13920000Y-13462000D02*
X14020000Y-13462000D01*
X13970000Y-13920000D02*
X13970000Y-14020000D01*
X13920000Y-13970000D02*
X14020000Y-13970000D01*
X13970000Y-14428000D02*
X13970000Y-14528000D01*
X13920000Y-14478000D02*
X14020000Y-14478000D01*
X13970000Y-14936000D02*
X13970000Y-15036000D01*
X13920000Y-14986000D02*
X14020000Y-14986000D01*
X13970000Y-15444000D02*
X13970000Y-15544000D01*
X13920000Y-15494000D02*
X14020000Y-15494000D01*
X13970000Y-15952000D02*
X13970000Y-16052000D01*
X13920000Y-16002000D02*
X14020000Y-16002000D01*
X13970000Y-16460000D02*
X13970000Y-16560000D01*
X13920000Y-16510000D02*
X14020000Y-16510000D01*
X13970000Y-16968000D02*
X13970000Y-17068000D01*
X13920000Y-17018000D02*
X14020000Y-17018000D01*
X13971000Y-6554500D02*
X13971000Y-6654500D01*
X13921000Y-6604500D02*
X14021000Y-6604500D01*
X13971000Y-7062500D02*
X13971000Y-7162500D01*
X13921000Y-7112500D02*
X14021000Y-7112500D01*
X13971000Y-7570500D02*
X13971000Y-7670500D01*
X13921000Y-7620500D02*
X14021000Y-7620500D01*
X13971000Y-6300500D02*
X13971000Y-6400500D01*
X13921000Y-6350500D02*
X14021000Y-6350500D01*
X13971000Y-6808500D02*
X13971000Y-6908500D01*
X13921000Y-6858500D02*
X14021000Y-6858500D01*
X13971000Y-7316500D02*
X13971000Y-7416500D01*
X13921000Y-7366500D02*
X14021000Y-7366500D01*
X14224000Y-7824000D02*
X14224000Y-7924000D01*
X14174000Y-7874000D02*
X14274000Y-7874000D01*
X14224000Y-8078000D02*
X14224000Y-8178000D01*
X14174000Y-8128000D02*
X14274000Y-8128000D01*
X14224000Y-8332000D02*
X14224000Y-8432000D01*
X14174000Y-8382000D02*
X14274000Y-8382000D01*
X14224000Y-8586000D02*
X14224000Y-8686000D01*
X14174000Y-8636000D02*
X14274000Y-8636000D01*
X14224000Y-8840000D02*
X14224000Y-8940000D01*
X14174000Y-8890000D02*
X14274000Y-8890000D01*
X14224000Y-9094000D02*
X14224000Y-9194000D01*
X14174000Y-9144000D02*
X14274000Y-9144000D01*
X14224000Y-9348000D02*
X14224000Y-9448000D01*
X14174000Y-9398000D02*
X14274000Y-9398000D01*
X14224000Y-9602000D02*
X14224000Y-9702000D01*
X14174000Y-9652000D02*
X14274000Y-9652000D01*
X14224000Y-9856000D02*
X14224000Y-9956000D01*
X14174000Y-9906000D02*
X14274000Y-9906000D01*
X14224000Y-10110000D02*
X14224000Y-10210000D01*
X14174000Y-10160000D02*
X14274000Y-10160000D01*
X14224000Y-10364000D02*
X14224000Y-10464000D01*
X14174000Y-10414000D02*
X14274000Y-10414000D01*
X14224000Y-10618000D02*
X14224000Y-10718000D01*
X14174000Y-10668000D02*
X14274000Y-10668000D01*
X14224000Y-10872000D02*
X14224000Y-10972000D01*
X14174000Y-10922000D02*
X14274000Y-10922000D01*
X14224000Y-11126000D02*
X14224000Y-11226000D01*
X14174000Y-11176000D02*
X14274000Y-11176000D01*
X14224000Y-11380000D02*
X14224000Y-11480000D01*
X14174000Y-11430000D02*
X14274000Y-11430000D01*
X14224000Y-11634000D02*
X14224000Y-11734000D01*
X14174000Y-11684000D02*
X14274000Y-11684000D01*
X14224000Y-11888000D02*
X14224000Y-11988000D01*
X14174000Y-11938000D02*
X14274000Y-11938000D01*
X14224000Y-12142000D02*
X14224000Y-12242000D01*
X14174000Y-12192000D02*
X14274000Y-12192000D01*
X14224000Y-12396000D02*
X14224000Y-12496000D01*
X14174000Y-12446000D02*
X14274000Y-12446000D01*
X14224000Y-12650000D02*
X14224000Y-12750000D01*
X14174000Y-12700000D02*
X14274000Y-12700000D01*
X14224000Y-12904000D02*
X14224000Y-13004000D01*
X14174000Y-12954000D02*
X14274000Y-12954000D01*
X14224000Y-13158000D02*
X14224000Y-13258000D01*
X14174000Y-13208000D02*
X14274000Y-13208000D01*
X14224000Y-13412000D02*
X14224000Y-13512000D01*
X14174000Y-13462000D02*
X14274000Y-13462000D01*
X14224000Y-13666000D02*
X14224000Y-13766000D01*
X14174000Y-13716000D02*
X14274000Y-13716000D01*
X14224000Y-13920000D02*
X14224000Y-14020000D01*
X14174000Y-13970000D02*
X14274000Y-13970000D01*
X14224000Y-14174000D02*
X14224000Y-14274000D01*
X14174000Y-14224000D02*
X14274000Y-14224000D01*
X14224000Y-14428000D02*
X14224000Y-14528000D01*
X14174000Y-14478000D02*
X14274000Y-14478000D01*
X14224000Y-14682000D02*
X14224000Y-14782000D01*
X14174000Y-14732000D02*
X14274000Y-14732000D01*
X14224000Y-14936000D02*
X14224000Y-15036000D01*
X14174000Y-14986000D02*
X14274000Y-14986000D01*
X14224000Y-15190000D02*
X14224000Y-15290000D01*
X14174000Y-15240000D02*
X14274000Y-15240000D01*
X14224000Y-15444000D02*
X14224000Y-15544000D01*
X14174000Y-15494000D02*
X14274000Y-15494000D01*
X14224000Y-15698000D02*
X14224000Y-15798000D01*
X14174000Y-15748000D02*
X14274000Y-15748000D01*
X14224000Y-15952000D02*
X14224000Y-16052000D01*
X14174000Y-16002000D02*
X14274000Y-16002000D01*
X14224000Y-16206000D02*
X14224000Y-16306000D01*
X14174000Y-16256000D02*
X14274000Y-16256000D01*
X14224000Y-16460000D02*
X14224000Y-16560000D01*
X14174000Y-16510000D02*
X14274000Y-16510000D01*
X14224000Y-16714000D02*
X14224000Y-16814000D01*
X14174000Y-16764000D02*
X14274000Y-16764000D01*
X14224000Y-16968000D02*
X14224000Y-17068000D01*
X14174000Y-17018000D02*
X14274000Y-17018000D01*
X14224000Y-17222000D02*
X14224000Y-17322000D01*
X14174000Y-17272000D02*
X14274000Y-17272000D01*
X14225000Y-6300500D02*
X14225000Y-6400500D01*
X14175000Y-6350500D02*
X14275000Y-6350500D01*
X14225000Y-6554500D02*
X14225000Y-6654500D01*
X14175000Y-6604500D02*
X14275000Y-6604500D01*
X14225000Y-6808500D02*
X14225000Y-6908500D01*
X14175000Y-6858500D02*
X14275000Y-6858500D01*
X14225000Y-7062500D02*
X14225000Y-7162500D01*
X14175000Y-7112500D02*
X14275000Y-7112500D01*
X14225000Y-7316500D02*
X14225000Y-7416500D01*
X14175000Y-7366500D02*
X14275000Y-7366500D01*
X14225000Y-7570500D02*
X14225000Y-7670500D01*
X14175000Y-7620500D02*
X14275000Y-7620500D01*
X14478000Y-7824000D02*
X14478000Y-7924000D01*
X14428000Y-7874000D02*
X14528000Y-7874000D01*
X14478000Y-8078000D02*
X14478000Y-8178000D01*
X14428000Y-8128000D02*
X14528000Y-8128000D01*
X14478000Y-8332000D02*
X14478000Y-8432000D01*
X14428000Y-8382000D02*
X14528000Y-8382000D01*
X14478000Y-8586000D02*
X14478000Y-8686000D01*
X14428000Y-8636000D02*
X14528000Y-8636000D01*
X14478000Y-8840000D02*
X14478000Y-8940000D01*
X14428000Y-8890000D02*
X14528000Y-8890000D01*
X14478000Y-9094000D02*
X14478000Y-9194000D01*
X14428000Y-9144000D02*
X14528000Y-9144000D01*
X14478000Y-9348000D02*
X14478000Y-9448000D01*
X14428000Y-9398000D02*
X14528000Y-9398000D01*
X14478000Y-9602000D02*
X14478000Y-9702000D01*
X14428000Y-9652000D02*
X14528000Y-9652000D01*
X14478000Y-9856000D02*
X14478000Y-9956000D01*
X14428000Y-9906000D02*
X14528000Y-9906000D01*
X14478000Y-10110000D02*
X14478000Y-10210000D01*
X14428000Y-10160000D02*
X14528000Y-10160000D01*
X14478000Y-10364000D02*
X14478000Y-10464000D01*
X14428000Y-10414000D02*
X14528000Y-10414000D01*
X14478000Y-10618000D02*
X14478000Y-10718000D01*
X14428000Y-10668000D02*
X14528000Y-10668000D01*
X14478000Y-10872000D02*
X14478000Y-10972000D01*
X14428000Y-10922000D02*
X14528000Y-10922000D01*
X14478000Y-11126000D02*
X14478000Y-11226000D01*
X14428000Y-11176000D02*
X14528000Y-11176000D01*
X14478000Y-11380000D02*
X14478000Y-11480000D01*
X14428000Y-11430000D02*
X14528000Y-11430000D01*
X14478000Y-11634000D02*
X14478000Y-11734000D01*
X14428000Y-11684000D02*
X14528000Y-11684000D01*
X14478000Y-11888000D02*
X14478000Y-11988000D01*
X14428000Y-11938000D02*
X14528000Y-11938000D01*
X14478000Y-12142000D02*
X14478000Y-12242000D01*
X14428000Y-12192000D02*
X14528000Y-12192000D01*
X14478000Y-12396000D02*
X14478000Y-12496000D01*
X14428000Y-12446000D02*
X14528000Y-12446000D01*
X14478000Y-12650000D02*
X14478000Y-12750000D01*
X14428000Y-12700000D02*
X14528000Y-12700000D01*
X14478000Y-12904000D02*
X14478000Y-13004000D01*
X14428000Y-12954000D02*
X14528000Y-12954000D01*
X14478000Y-13158000D02*
X14478000Y-13258000D01*
X14428000Y-13208000D02*
X14528000Y-13208000D01*
X14478000Y-13412000D02*
X14478000Y-13512000D01*
X14428000Y-13462000D02*
X14528000Y-13462000D01*
X14478000Y-13666000D02*
X14478000Y-13766000D01*
X14428000Y-13716000D02*
X14528000Y-13716000D01*
X14478000Y-13920000D02*
X14478000Y-14020000D01*
X14428000Y-13970000D02*
X14528000Y-13970000D01*
X14478000Y-14174000D02*
X14478000Y-14274000D01*
X14428000Y-14224000D02*
X14528000Y-14224000D01*
X14478000Y-14428000D02*
X14478000Y-14528000D01*
X14428000Y-14478000D02*
X14528000Y-14478000D01*
X14478000Y-14682000D02*
X14478000Y-14782000D01*
X14428000Y-14732000D02*
X14528000Y-14732000D01*
X14478000Y-14936000D02*
X14478000Y-15036000D01*
X14428000Y-14986000D02*
X14528000Y-14986000D01*
X14478000Y-15190000D02*
X14478000Y-15290000D01*
X14428000Y-15240000D02*
X14528000Y-15240000D01*
X14478000Y-15444000D02*
X14478000Y-15544000D01*
X14428000Y-15494000D02*
X14528000Y-15494000D01*
X14478000Y-15698000D02*
X14478000Y-15798000D01*
X14428000Y-15748000D02*
X14528000Y-15748000D01*
X14478000Y-15952000D02*
X14478000Y-16052000D01*
X14428000Y-16002000D02*
X14528000Y-16002000D01*
X14478000Y-16206000D02*
X14478000Y-16306000D01*
X14428000Y-16256000D02*
X14528000Y-16256000D01*
X14478000Y-16460000D02*
X14478000Y-16560000D01*
X14428000Y-16510000D02*
X14528000Y-16510000D01*
X14478000Y-16714000D02*
X14478000Y-16814000D01*
X14428000Y-16764000D02*
X14528000Y-16764000D01*
X14478000Y-16968000D02*
X14478000Y-17068000D01*
X14428000Y-17018000D02*
X14528000Y-17018000D01*
X14478000Y-17222000D02*
X14478000Y-17322000D01*
X14428000Y-17272000D02*
X14528000Y-17272000D01*
X14479000Y-6300500D02*
X14479000Y-6400500D01*
X14429000Y-6350500D02*
X14529000Y-6350500D01*
X14479000Y-6554500D02*
X14479000Y-6654500D01*
X14429000Y-6604500D02*
X14529000Y-6604500D01*
X14479000Y-6808500D02*
X14479000Y-6908500D01*
X14429000Y-6858500D02*
X14529000Y-6858500D01*
X14479000Y-7062500D02*
X14479000Y-7162500D01*
X14429000Y-7112500D02*
X14529000Y-7112500D01*
X14479000Y-7316500D02*
X14479000Y-7416500D01*
X14429000Y-7366500D02*
X14529000Y-7366500D01*
X14479000Y-7570500D02*
X14479000Y-7670500D01*
X14429000Y-7620500D02*
X14529000Y-7620500D01*
D13*
X5433563Y-15149063D02*
X5433563Y-15076937D01*
X5361437Y-15076937D01*
X5361437Y-15149063D01*
X5433563Y-15149063D01*
X5433563Y-16927063D02*
X5433563Y-16854937D01*
X5361437Y-16854937D01*
X5361437Y-16927063D01*
X5433563Y-16927063D01*
X5687563Y-15149063D02*
X5687563Y-15076937D01*
X5615437Y-15076937D01*
X5615437Y-15149063D01*
X5687563Y-15149063D01*
X5687563Y-16927063D02*
X5687563Y-16854937D01*
X5615437Y-16854937D01*
X5615437Y-16927063D01*
X5687563Y-16927063D01*
X5941563Y-15149063D02*
X5941563Y-15076937D01*
X5869437Y-15076937D01*
X5869437Y-15149063D01*
X5941563Y-15149063D01*
X5941563Y-16927063D02*
X5941563Y-16854937D01*
X5869437Y-16854937D01*
X5869437Y-16927063D01*
X5941563Y-16927063D01*
X6195563Y-15149063D02*
X6195563Y-15076937D01*
X6123437Y-15076937D01*
X6123437Y-15149063D01*
X6195563Y-15149063D01*
X6195563Y-16927063D02*
X6195563Y-16854937D01*
X6123437Y-16854937D01*
X6123437Y-16927063D01*
X6195563Y-16927063D01*
X6449563Y-15149063D02*
X6449563Y-15076937D01*
X6377437Y-15076937D01*
X6377437Y-15149063D01*
X6449563Y-15149063D01*
X6449563Y-16927063D02*
X6449563Y-16854937D01*
X6377437Y-16854937D01*
X6377437Y-16927063D01*
X6449563Y-16927063D01*
X6703563Y-15149063D02*
X6703563Y-15076937D01*
X6631437Y-15076937D01*
X6631437Y-15149063D01*
X6703563Y-15149063D01*
X6703563Y-16927063D02*
X6703563Y-16854937D01*
X6631437Y-16854937D01*
X6631437Y-16927063D01*
X6703563Y-16927063D01*
X6957563Y-15149063D02*
X6957563Y-15076937D01*
X6885437Y-15076937D01*
X6885437Y-15149063D01*
X6957563Y-15149063D01*
X6957563Y-16927063D02*
X6957563Y-16854937D01*
X6885437Y-16854937D01*
X6885437Y-16927063D01*
X6957563Y-16927063D01*
X7211563Y-15149063D02*
X7211563Y-15076937D01*
X7139437Y-15076937D01*
X7139437Y-15149063D01*
X7211563Y-15149063D01*
X7211563Y-16927063D02*
X7211563Y-16854937D01*
X7139437Y-16854937D01*
X7139437Y-16927063D01*
X7211563Y-16927063D01*
X7465563Y-15149063D02*
X7465563Y-15076937D01*
X7393437Y-15076937D01*
X7393437Y-15149063D01*
X7465563Y-15149063D01*
X7465563Y-16927063D02*
X7465563Y-16854937D01*
X7393437Y-16854937D01*
X7393437Y-16927063D01*
X7465563Y-16927063D01*
X7719563Y-15149063D02*
X7719563Y-15076937D01*
X7647437Y-15076937D01*
X7647437Y-15149063D01*
X7719563Y-15149063D01*
X7719563Y-16927063D02*
X7719563Y-16854937D01*
X7647437Y-16854937D01*
X7647437Y-16927063D01*
X7719563Y-16927063D01*
X7973563Y-15149063D02*
X7973563Y-15076937D01*
X7901437Y-15076937D01*
X7901437Y-15149063D01*
X7973563Y-15149063D01*
X7973563Y-16927063D02*
X7973563Y-16854937D01*
X7901437Y-16854937D01*
X7901437Y-16927063D01*
X7973563Y-16927063D01*
X8227563Y-15149063D02*
X8227563Y-15076937D01*
X8155437Y-15076937D01*
X8155437Y-15149063D01*
X8227563Y-15149063D01*
X8227563Y-16927063D02*
X8227563Y-16854937D01*
X8155437Y-16854937D01*
X8155437Y-16927063D01*
X8227563Y-16927063D01*
X8481563Y-15149063D02*
X8481563Y-15076937D01*
X8409437Y-15076937D01*
X8409437Y-15149063D01*
X8481563Y-15149063D01*
X8481563Y-16927063D02*
X8481563Y-16854937D01*
X8409437Y-16854937D01*
X8409437Y-16927063D01*
X8481563Y-16927063D01*
X8735563Y-15149063D02*
X8735563Y-15076937D01*
X8663437Y-15076937D01*
X8663437Y-15149063D01*
X8735563Y-15149063D01*
X8735563Y-16927063D02*
X8735563Y-16854937D01*
X8663437Y-16854937D01*
X8663437Y-16927063D01*
X8735563Y-16927063D01*
X8989563Y-15149063D02*
X8989563Y-15076937D01*
X8917437Y-15076937D01*
X8917437Y-15149063D01*
X8989563Y-15149063D01*
X8989563Y-16927063D02*
X8989563Y-16854937D01*
X8917437Y-16854937D01*
X8917437Y-16927063D01*
X8989563Y-16927063D01*
X9243563Y-15149063D02*
X9243563Y-15076937D01*
X9171437Y-15076937D01*
X9171437Y-15149063D01*
X9243563Y-15149063D01*
X9243563Y-16927063D02*
X9243563Y-16854937D01*
X9171437Y-16854937D01*
X9171437Y-16927063D01*
X9243563Y-16927063D01*
X9497563Y-15149063D02*
X9497563Y-15076937D01*
X9425437Y-15076937D01*
X9425437Y-15149063D01*
X9497563Y-15149063D01*
X9497563Y-16927063D02*
X9497563Y-16854937D01*
X9425437Y-16854937D01*
X9425437Y-16927063D01*
X9497563Y-16927063D01*
X9751563Y-15149063D02*
X9751563Y-15076937D01*
X9679437Y-15076937D01*
X9679437Y-15149063D01*
X9751563Y-15149063D01*
X9751563Y-16927063D02*
X9751563Y-16854937D01*
X9679437Y-16854937D01*
X9679437Y-16927063D01*
X9751563Y-16927063D01*
X10005563Y-15149063D02*
X10005563Y-15076937D01*
X9933437Y-15076937D01*
X9933437Y-15149063D01*
X10005563Y-15149063D01*
X10005563Y-16927063D02*
X10005563Y-16854937D01*
X9933437Y-16854937D01*
X9933437Y-16927063D01*
X10005563Y-16927063D01*
X10236563Y-15784063D02*
X10236563Y-15711937D01*
X10164437Y-15711937D01*
X10164437Y-15784063D01*
X10236563Y-15784063D01*
X10236563Y-16038063D02*
X10236563Y-15965937D01*
X10164437Y-15965937D01*
X10164437Y-16038063D01*
X10236563Y-16038063D01*
X10236563Y-16292063D02*
X10236563Y-16219937D01*
X10164437Y-16219937D01*
X10164437Y-16292063D01*
X10236563Y-16292063D01*
X10259563Y-15149063D02*
X10259563Y-15076937D01*
X10187437Y-15076937D01*
X10187437Y-15149063D01*
X10259563Y-15149063D01*
X10259563Y-16927063D02*
X10259563Y-16854937D01*
X10187437Y-16854937D01*
X10187437Y-16927063D01*
X10259563Y-16927063D01*
D14*
X5981533Y-10466000D02*
X6141533Y-10306000D01*
X5981533Y-10146000D01*
X5821533Y-10306000D01*
X5981533Y-10466000D01*
X5981533Y-12966000D02*
X6141533Y-12806000D01*
X5981533Y-12646000D01*
X5821533Y-12806000D01*
X5981533Y-12966000D01*
D11*
X5498277Y-18593984D02*
X5498277Y-18393984D01*
X5498277Y-18393984D02*
X5545896Y-18393984D01*
X5545896Y-18393984D02*
X5574467Y-18403508D01*
X5574467Y-18403508D02*
X5593515Y-18422555D01*
X5593515Y-18422555D02*
X5603039Y-18441603D01*
X5603039Y-18441603D02*
X5612562Y-18479698D01*
X5612562Y-18479698D02*
X5612562Y-18508270D01*
X5612562Y-18508270D02*
X5603039Y-18546365D01*
X5603039Y-18546365D02*
X5593515Y-18565412D01*
X5593515Y-18565412D02*
X5574467Y-18584460D01*
X5574467Y-18584460D02*
X5545896Y-18593984D01*
X5545896Y-18593984D02*
X5498277Y-18593984D01*
X5698277Y-18593984D02*
X5698277Y-18460650D01*
X5698277Y-18498746D02*
X5707801Y-18479698D01*
X5707801Y-18479698D02*
X5717324Y-18470174D01*
X5717324Y-18470174D02*
X5736372Y-18460650D01*
X5736372Y-18460650D02*
X5755420Y-18460650D01*
X5822086Y-18593984D02*
X5822086Y-18460650D01*
X5822086Y-18393984D02*
X5812562Y-18403508D01*
X5812562Y-18403508D02*
X5822086Y-18413031D01*
X5822086Y-18413031D02*
X5831610Y-18403508D01*
X5831610Y-18403508D02*
X5822086Y-18393984D01*
X5822086Y-18393984D02*
X5822086Y-18413031D01*
X5945896Y-18593984D02*
X5926848Y-18584460D01*
X5926848Y-18584460D02*
X5917324Y-18565412D01*
X5917324Y-18565412D02*
X5917324Y-18393984D01*
X6050658Y-18593984D02*
X6031610Y-18584460D01*
X6031610Y-18584460D02*
X6022086Y-18565412D01*
X6022086Y-18565412D02*
X6022086Y-18393984D01*
X6279229Y-18593984D02*
X6279229Y-18393984D01*
X6279229Y-18393984D02*
X6345896Y-18536841D01*
X6345896Y-18536841D02*
X6412562Y-18393984D01*
X6412562Y-18393984D02*
X6412562Y-18593984D01*
X6593515Y-18593984D02*
X6593515Y-18489222D01*
X6593515Y-18489222D02*
X6583991Y-18470174D01*
X6583991Y-18470174D02*
X6564943Y-18460650D01*
X6564943Y-18460650D02*
X6526848Y-18460650D01*
X6526848Y-18460650D02*
X6507801Y-18470174D01*
X6593515Y-18584460D02*
X6574467Y-18593984D01*
X6574467Y-18593984D02*
X6526848Y-18593984D01*
X6526848Y-18593984D02*
X6507801Y-18584460D01*
X6507801Y-18584460D02*
X6498277Y-18565412D01*
X6498277Y-18565412D02*
X6498277Y-18546365D01*
X6498277Y-18546365D02*
X6507801Y-18527317D01*
X6507801Y-18527317D02*
X6526848Y-18517793D01*
X6526848Y-18517793D02*
X6574467Y-18517793D01*
X6574467Y-18517793D02*
X6593515Y-18508270D01*
X6688753Y-18460650D02*
X6688753Y-18660650D01*
X6688753Y-18470174D02*
X6707801Y-18460650D01*
X6707801Y-18460650D02*
X6745896Y-18460650D01*
X6745896Y-18460650D02*
X6764943Y-18470174D01*
X6764943Y-18470174D02*
X6774467Y-18479698D01*
X6774467Y-18479698D02*
X6783991Y-18498746D01*
X6783991Y-18498746D02*
X6783991Y-18555889D01*
X6783991Y-18555889D02*
X6774467Y-18574936D01*
X6774467Y-18574936D02*
X6764943Y-18584460D01*
X6764943Y-18584460D02*
X6745896Y-18593984D01*
X6745896Y-18593984D02*
X6707801Y-18593984D01*
X6707801Y-18593984D02*
X6688753Y-18584460D01*
X6869705Y-18574936D02*
X6879229Y-18584460D01*
X6879229Y-18584460D02*
X6869705Y-18593984D01*
X6869705Y-18593984D02*
X6860182Y-18584460D01*
X6860182Y-18584460D02*
X6869705Y-18574936D01*
X6869705Y-18574936D02*
X6869705Y-18593984D01*
X6869705Y-18470174D02*
X6879229Y-18479698D01*
X6879229Y-18479698D02*
X6869705Y-18489222D01*
X6869705Y-18489222D02*
X6860182Y-18479698D01*
X6860182Y-18479698D02*
X6869705Y-18470174D01*
X6869705Y-18470174D02*
X6869705Y-18489222D01*
D12*
X5187500Y-18897500D02*
X5237500Y-18947500D01*
X5237500Y-18897500D02*
X5187500Y-18947500D01*
D11*
X5536372Y-18813984D02*
X5555420Y-18813984D01*
X5555420Y-18813984D02*
X5574467Y-18823508D01*
X5574467Y-18823508D02*
X5583991Y-18833031D01*
X5583991Y-18833031D02*
X5593515Y-18852079D01*
X5593515Y-18852079D02*
X5603039Y-18890174D01*
X5603039Y-18890174D02*
X5603039Y-18937793D01*
X5603039Y-18937793D02*
X5593515Y-18975889D01*
X5593515Y-18975889D02*
X5583991Y-18994936D01*
X5583991Y-18994936D02*
X5574467Y-19004460D01*
X5574467Y-19004460D02*
X5555420Y-19013984D01*
X5555420Y-19013984D02*
X5536372Y-19013984D01*
X5536372Y-19013984D02*
X5517324Y-19004460D01*
X5517324Y-19004460D02*
X5507801Y-18994936D01*
X5507801Y-18994936D02*
X5498277Y-18975889D01*
X5498277Y-18975889D02*
X5488753Y-18937793D01*
X5488753Y-18937793D02*
X5488753Y-18890174D01*
X5488753Y-18890174D02*
X5498277Y-18852079D01*
X5498277Y-18852079D02*
X5507801Y-18833031D01*
X5507801Y-18833031D02*
X5517324Y-18823508D01*
X5517324Y-18823508D02*
X5536372Y-18813984D01*
X5688753Y-18994936D02*
X5698277Y-19004460D01*
X5698277Y-19004460D02*
X5688753Y-19013984D01*
X5688753Y-19013984D02*
X5679229Y-19004460D01*
X5679229Y-19004460D02*
X5688753Y-18994936D01*
X5688753Y-18994936D02*
X5688753Y-19013984D01*
X5879229Y-18813984D02*
X5783991Y-18813984D01*
X5783991Y-18813984D02*
X5774467Y-18909222D01*
X5774467Y-18909222D02*
X5783991Y-18899698D01*
X5783991Y-18899698D02*
X5803039Y-18890174D01*
X5803039Y-18890174D02*
X5850658Y-18890174D01*
X5850658Y-18890174D02*
X5869705Y-18899698D01*
X5869705Y-18899698D02*
X5879229Y-18909222D01*
X5879229Y-18909222D02*
X5888753Y-18928270D01*
X5888753Y-18928270D02*
X5888753Y-18975889D01*
X5888753Y-18975889D02*
X5879229Y-18994936D01*
X5879229Y-18994936D02*
X5869705Y-19004460D01*
X5869705Y-19004460D02*
X5850658Y-19013984D01*
X5850658Y-19013984D02*
X5803039Y-19013984D01*
X5803039Y-19013984D02*
X5783991Y-19004460D01*
X5783991Y-19004460D02*
X5774467Y-18994936D01*
X6012562Y-18813984D02*
X6031610Y-18813984D01*
X6031610Y-18813984D02*
X6050658Y-18823508D01*
X6050658Y-18823508D02*
X6060182Y-18833031D01*
X6060182Y-18833031D02*
X6069705Y-18852079D01*
X6069705Y-18852079D02*
X6079229Y-18890174D01*
X6079229Y-18890174D02*
X6079229Y-18937793D01*
X6079229Y-18937793D02*
X6069705Y-18975889D01*
X6069705Y-18975889D02*
X6060182Y-18994936D01*
X6060182Y-18994936D02*
X6050658Y-19004460D01*
X6050658Y-19004460D02*
X6031610Y-19013984D01*
X6031610Y-19013984D02*
X6012562Y-19013984D01*
X6012562Y-19013984D02*
X5993515Y-19004460D01*
X5993515Y-19004460D02*
X5983991Y-18994936D01*
X5983991Y-18994936D02*
X5974467Y-18975889D01*
X5974467Y-18975889D02*
X5964943Y-18937793D01*
X5964943Y-18937793D02*
X5964943Y-18890174D01*
X5964943Y-18890174D02*
X5974467Y-18852079D01*
X5974467Y-18852079D02*
X5983991Y-18833031D01*
X5983991Y-18833031D02*
X5993515Y-18823508D01*
X5993515Y-18823508D02*
X6012562Y-18813984D01*
X6203039Y-18813984D02*
X6222086Y-18813984D01*
X6222086Y-18813984D02*
X6241134Y-18823508D01*
X6241134Y-18823508D02*
X6250658Y-18833031D01*
X6250658Y-18833031D02*
X6260182Y-18852079D01*
X6260182Y-18852079D02*
X6269705Y-18890174D01*
X6269705Y-18890174D02*
X6269705Y-18937793D01*
X6269705Y-18937793D02*
X6260182Y-18975889D01*
X6260182Y-18975889D02*
X6250658Y-18994936D01*
X6250658Y-18994936D02*
X6241134Y-19004460D01*
X6241134Y-19004460D02*
X6222086Y-19013984D01*
X6222086Y-19013984D02*
X6203039Y-19013984D01*
X6203039Y-19013984D02*
X6183991Y-19004460D01*
X6183991Y-19004460D02*
X6174467Y-18994936D01*
X6174467Y-18994936D02*
X6164943Y-18975889D01*
X6164943Y-18975889D02*
X6155420Y-18937793D01*
X6155420Y-18937793D02*
X6155420Y-18890174D01*
X6155420Y-18890174D02*
X6164943Y-18852079D01*
X6164943Y-18852079D02*
X6174467Y-18833031D01*
X6174467Y-18833031D02*
X6183991Y-18823508D01*
X6183991Y-18823508D02*
X6203039Y-18813984D01*
X6355420Y-19013984D02*
X6355420Y-18880650D01*
X6355420Y-18899698D02*
X6364943Y-18890174D01*
X6364943Y-18890174D02*
X6383991Y-18880650D01*
X6383991Y-18880650D02*
X6412563Y-18880650D01*
X6412563Y-18880650D02*
X6431610Y-18890174D01*
X6431610Y-18890174D02*
X6441134Y-18909222D01*
X6441134Y-18909222D02*
X6441134Y-19013984D01*
X6441134Y-18909222D02*
X6450658Y-18890174D01*
X6450658Y-18890174D02*
X6469705Y-18880650D01*
X6469705Y-18880650D02*
X6498277Y-18880650D01*
X6498277Y-18880650D02*
X6517324Y-18890174D01*
X6517324Y-18890174D02*
X6526848Y-18909222D01*
X6526848Y-18909222D02*
X6526848Y-19013984D01*
X6622086Y-19013984D02*
X6622086Y-18880650D01*
X6622086Y-18899698D02*
X6631610Y-18890174D01*
X6631610Y-18890174D02*
X6650658Y-18880650D01*
X6650658Y-18880650D02*
X6679229Y-18880650D01*
X6679229Y-18880650D02*
X6698277Y-18890174D01*
X6698277Y-18890174D02*
X6707801Y-18909222D01*
X6707801Y-18909222D02*
X6707801Y-19013984D01*
X6707801Y-18909222D02*
X6717324Y-18890174D01*
X6717324Y-18890174D02*
X6736372Y-18880650D01*
X6736372Y-18880650D02*
X6764943Y-18880650D01*
X6764943Y-18880650D02*
X6783991Y-18890174D01*
X6783991Y-18890174D02*
X6793515Y-18909222D01*
X6793515Y-18909222D02*
X6793515Y-19013984D01*
X7183991Y-18804460D02*
X7012563Y-19061603D01*
X7441134Y-18813984D02*
X7460182Y-18813984D01*
X7460182Y-18813984D02*
X7479229Y-18823508D01*
X7479229Y-18823508D02*
X7488753Y-18833031D01*
X7488753Y-18833031D02*
X7498277Y-18852079D01*
X7498277Y-18852079D02*
X7507801Y-18890174D01*
X7507801Y-18890174D02*
X7507801Y-18937793D01*
X7507801Y-18937793D02*
X7498277Y-18975889D01*
X7498277Y-18975889D02*
X7488753Y-18994936D01*
X7488753Y-18994936D02*
X7479229Y-19004460D01*
X7479229Y-19004460D02*
X7460182Y-19013984D01*
X7460182Y-19013984D02*
X7441134Y-19013984D01*
X7441134Y-19013984D02*
X7422086Y-19004460D01*
X7422086Y-19004460D02*
X7412563Y-18994936D01*
X7412563Y-18994936D02*
X7403039Y-18975889D01*
X7403039Y-18975889D02*
X7393515Y-18937793D01*
X7393515Y-18937793D02*
X7393515Y-18890174D01*
X7393515Y-18890174D02*
X7403039Y-18852079D01*
X7403039Y-18852079D02*
X7412563Y-18833031D01*
X7412563Y-18833031D02*
X7422086Y-18823508D01*
X7422086Y-18823508D02*
X7441134Y-18813984D01*
X7593515Y-18994936D02*
X7603039Y-19004460D01*
X7603039Y-19004460D02*
X7593515Y-19013984D01*
X7593515Y-19013984D02*
X7583991Y-19004460D01*
X7583991Y-19004460D02*
X7593515Y-18994936D01*
X7593515Y-18994936D02*
X7593515Y-19013984D01*
X7726848Y-18813984D02*
X7745896Y-18813984D01*
X7745896Y-18813984D02*
X7764944Y-18823508D01*
X7764944Y-18823508D02*
X7774467Y-18833031D01*
X7774467Y-18833031D02*
X7783991Y-18852079D01*
X7783991Y-18852079D02*
X7793515Y-18890174D01*
X7793515Y-18890174D02*
X7793515Y-18937793D01*
X7793515Y-18937793D02*
X7783991Y-18975889D01*
X7783991Y-18975889D02*
X7774467Y-18994936D01*
X7774467Y-18994936D02*
X7764944Y-19004460D01*
X7764944Y-19004460D02*
X7745896Y-19013984D01*
X7745896Y-19013984D02*
X7726848Y-19013984D01*
X7726848Y-19013984D02*
X7707801Y-19004460D01*
X7707801Y-19004460D02*
X7698277Y-18994936D01*
X7698277Y-18994936D02*
X7688753Y-18975889D01*
X7688753Y-18975889D02*
X7679229Y-18937793D01*
X7679229Y-18937793D02*
X7679229Y-18890174D01*
X7679229Y-18890174D02*
X7688753Y-18852079D01*
X7688753Y-18852079D02*
X7698277Y-18833031D01*
X7698277Y-18833031D02*
X7707801Y-18823508D01*
X7707801Y-18823508D02*
X7726848Y-18813984D01*
X7983991Y-19013984D02*
X7869706Y-19013984D01*
X7926848Y-19013984D02*
X7926848Y-18813984D01*
X7926848Y-18813984D02*
X7907801Y-18842555D01*
X7907801Y-18842555D02*
X7888753Y-18861603D01*
X7888753Y-18861603D02*
X7869706Y-18871127D01*
X8079229Y-19013984D02*
X8117325Y-19013984D01*
X8117325Y-19013984D02*
X8136372Y-19004460D01*
X8136372Y-19004460D02*
X8145896Y-18994936D01*
X8145896Y-18994936D02*
X8164944Y-18966365D01*
X8164944Y-18966365D02*
X8174467Y-18928270D01*
X8174467Y-18928270D02*
X8174467Y-18852079D01*
X8174467Y-18852079D02*
X8164944Y-18833031D01*
X8164944Y-18833031D02*
X8155420Y-18823508D01*
X8155420Y-18823508D02*
X8136372Y-18813984D01*
X8136372Y-18813984D02*
X8098277Y-18813984D01*
X8098277Y-18813984D02*
X8079229Y-18823508D01*
X8079229Y-18823508D02*
X8069706Y-18833031D01*
X8069706Y-18833031D02*
X8060182Y-18852079D01*
X8060182Y-18852079D02*
X8060182Y-18899698D01*
X8060182Y-18899698D02*
X8069706Y-18918746D01*
X8069706Y-18918746D02*
X8079229Y-18928270D01*
X8079229Y-18928270D02*
X8098277Y-18937793D01*
X8098277Y-18937793D02*
X8136372Y-18937793D01*
X8136372Y-18937793D02*
X8155420Y-18928270D01*
X8155420Y-18928270D02*
X8164944Y-18918746D01*
X8164944Y-18918746D02*
X8174467Y-18899698D01*
X8241134Y-18813984D02*
X8374467Y-18813984D01*
X8374467Y-18813984D02*
X8288753Y-19013984D01*
X8441134Y-18813984D02*
X8441134Y-18852079D01*
X8517325Y-18813984D02*
X8517325Y-18852079D01*
X8812563Y-19090174D02*
X8803039Y-19080650D01*
X8803039Y-19080650D02*
X8783991Y-19052079D01*
X8783991Y-19052079D02*
X8774468Y-19033031D01*
X8774468Y-19033031D02*
X8764944Y-19004460D01*
X8764944Y-19004460D02*
X8755420Y-18956841D01*
X8755420Y-18956841D02*
X8755420Y-18918746D01*
X8755420Y-18918746D02*
X8764944Y-18871127D01*
X8764944Y-18871127D02*
X8774468Y-18842555D01*
X8774468Y-18842555D02*
X8783991Y-18823508D01*
X8783991Y-18823508D02*
X8803039Y-18794936D01*
X8803039Y-18794936D02*
X8812563Y-18785412D01*
X8898277Y-19013984D02*
X8936372Y-19013984D01*
X8936372Y-19013984D02*
X8955420Y-19004460D01*
X8955420Y-19004460D02*
X8964944Y-18994936D01*
X8964944Y-18994936D02*
X8983991Y-18966365D01*
X8983991Y-18966365D02*
X8993515Y-18928270D01*
X8993515Y-18928270D02*
X8993515Y-18852079D01*
X8993515Y-18852079D02*
X8983991Y-18833031D01*
X8983991Y-18833031D02*
X8974468Y-18823508D01*
X8974468Y-18823508D02*
X8955420Y-18813984D01*
X8955420Y-18813984D02*
X8917325Y-18813984D01*
X8917325Y-18813984D02*
X8898277Y-18823508D01*
X8898277Y-18823508D02*
X8888753Y-18833031D01*
X8888753Y-18833031D02*
X8879230Y-18852079D01*
X8879230Y-18852079D02*
X8879230Y-18899698D01*
X8879230Y-18899698D02*
X8888753Y-18918746D01*
X8888753Y-18918746D02*
X8898277Y-18928270D01*
X8898277Y-18928270D02*
X8917325Y-18937793D01*
X8917325Y-18937793D02*
X8955420Y-18937793D01*
X8955420Y-18937793D02*
X8974468Y-18928270D01*
X8974468Y-18928270D02*
X8983991Y-18918746D01*
X8983991Y-18918746D02*
X8993515Y-18899698D01*
X9174468Y-18813984D02*
X9079230Y-18813984D01*
X9079230Y-18813984D02*
X9069706Y-18909222D01*
X9069706Y-18909222D02*
X9079230Y-18899698D01*
X9079230Y-18899698D02*
X9098277Y-18890174D01*
X9098277Y-18890174D02*
X9145896Y-18890174D01*
X9145896Y-18890174D02*
X9164944Y-18899698D01*
X9164944Y-18899698D02*
X9174468Y-18909222D01*
X9174468Y-18909222D02*
X9183991Y-18928270D01*
X9183991Y-18928270D02*
X9183991Y-18975889D01*
X9183991Y-18975889D02*
X9174468Y-18994936D01*
X9174468Y-18994936D02*
X9164944Y-19004460D01*
X9164944Y-19004460D02*
X9145896Y-19013984D01*
X9145896Y-19013984D02*
X9098277Y-19013984D01*
X9098277Y-19013984D02*
X9079230Y-19004460D01*
X9079230Y-19004460D02*
X9069706Y-18994936D01*
X9422087Y-19013984D02*
X9422087Y-18813984D01*
X9507801Y-19013984D02*
X9507801Y-18909222D01*
X9507801Y-18909222D02*
X9498277Y-18890174D01*
X9498277Y-18890174D02*
X9479230Y-18880650D01*
X9479230Y-18880650D02*
X9450658Y-18880650D01*
X9450658Y-18880650D02*
X9431611Y-18890174D01*
X9431611Y-18890174D02*
X9422087Y-18899698D01*
X9631611Y-19013984D02*
X9612563Y-19004460D01*
X9612563Y-19004460D02*
X9603039Y-18994936D01*
X9603039Y-18994936D02*
X9593515Y-18975889D01*
X9593515Y-18975889D02*
X9593515Y-18918746D01*
X9593515Y-18918746D02*
X9603039Y-18899698D01*
X9603039Y-18899698D02*
X9612563Y-18890174D01*
X9612563Y-18890174D02*
X9631611Y-18880650D01*
X9631611Y-18880650D02*
X9660182Y-18880650D01*
X9660182Y-18880650D02*
X9679230Y-18890174D01*
X9679230Y-18890174D02*
X9688753Y-18899698D01*
X9688753Y-18899698D02*
X9698277Y-18918746D01*
X9698277Y-18918746D02*
X9698277Y-18975889D01*
X9698277Y-18975889D02*
X9688753Y-18994936D01*
X9688753Y-18994936D02*
X9679230Y-19004460D01*
X9679230Y-19004460D02*
X9660182Y-19013984D01*
X9660182Y-19013984D02*
X9631611Y-19013984D01*
X9812563Y-19013984D02*
X9793515Y-19004460D01*
X9793515Y-19004460D02*
X9783992Y-18985412D01*
X9783992Y-18985412D02*
X9783992Y-18813984D01*
X9964944Y-19004460D02*
X9945896Y-19013984D01*
X9945896Y-19013984D02*
X9907801Y-19013984D01*
X9907801Y-19013984D02*
X9888753Y-19004460D01*
X9888753Y-19004460D02*
X9879230Y-18985412D01*
X9879230Y-18985412D02*
X9879230Y-18909222D01*
X9879230Y-18909222D02*
X9888753Y-18890174D01*
X9888753Y-18890174D02*
X9907801Y-18880650D01*
X9907801Y-18880650D02*
X9945896Y-18880650D01*
X9945896Y-18880650D02*
X9964944Y-18890174D01*
X9964944Y-18890174D02*
X9974468Y-18909222D01*
X9974468Y-18909222D02*
X9974468Y-18928270D01*
X9974468Y-18928270D02*
X9879230Y-18947317D01*
X10050658Y-19004460D02*
X10069706Y-19013984D01*
X10069706Y-19013984D02*
X10107801Y-19013984D01*
X10107801Y-19013984D02*
X10126849Y-19004460D01*
X10126849Y-19004460D02*
X10136373Y-18985412D01*
X10136373Y-18985412D02*
X10136373Y-18975889D01*
X10136373Y-18975889D02*
X10126849Y-18956841D01*
X10126849Y-18956841D02*
X10107801Y-18947317D01*
X10107801Y-18947317D02*
X10079230Y-18947317D01*
X10079230Y-18947317D02*
X10060182Y-18937793D01*
X10060182Y-18937793D02*
X10050658Y-18918746D01*
X10050658Y-18918746D02*
X10050658Y-18909222D01*
X10050658Y-18909222D02*
X10060182Y-18890174D01*
X10060182Y-18890174D02*
X10079230Y-18880650D01*
X10079230Y-18880650D02*
X10107801Y-18880650D01*
X10107801Y-18880650D02*
X10126849Y-18890174D01*
X10203039Y-19090174D02*
X10212563Y-19080650D01*
X10212563Y-19080650D02*
X10231611Y-19052079D01*
X10231611Y-19052079D02*
X10241134Y-19033031D01*
X10241134Y-19033031D02*
X10250658Y-19004460D01*
X10250658Y-19004460D02*
X10260182Y-18956841D01*
X10260182Y-18956841D02*
X10260182Y-18918746D01*
X10260182Y-18918746D02*
X10250658Y-18871127D01*
X10250658Y-18871127D02*
X10241134Y-18842555D01*
X10241134Y-18842555D02*
X10231611Y-18823508D01*
X10231611Y-18823508D02*
X10212563Y-18794936D01*
X10212563Y-18794936D02*
X10203039Y-18785412D01*
D12*
X5237500Y-19186500D02*
G75*
G02*
X5167500Y-19186500I-35000J0D01*
G01*
X5167500Y-19186500D02*
G75*
G02*
X5237500Y-19186500I35000J0D01*
G01*
D11*
X5536372Y-19077984D02*
X5555420Y-19077984D01*
X5555420Y-19077984D02*
X5574467Y-19087508D01*
X5574467Y-19087508D02*
X5583991Y-19097031D01*
X5583991Y-19097031D02*
X5593515Y-19116079D01*
X5593515Y-19116079D02*
X5603039Y-19154174D01*
X5603039Y-19154174D02*
X5603039Y-19201793D01*
X5603039Y-19201793D02*
X5593515Y-19239889D01*
X5593515Y-19239889D02*
X5583991Y-19258936D01*
X5583991Y-19258936D02*
X5574467Y-19268460D01*
X5574467Y-19268460D02*
X5555420Y-19277984D01*
X5555420Y-19277984D02*
X5536372Y-19277984D01*
X5536372Y-19277984D02*
X5517324Y-19268460D01*
X5517324Y-19268460D02*
X5507801Y-19258936D01*
X5507801Y-19258936D02*
X5498277Y-19239889D01*
X5498277Y-19239889D02*
X5488753Y-19201793D01*
X5488753Y-19201793D02*
X5488753Y-19154174D01*
X5488753Y-19154174D02*
X5498277Y-19116079D01*
X5498277Y-19116079D02*
X5507801Y-19097031D01*
X5507801Y-19097031D02*
X5517324Y-19087508D01*
X5517324Y-19087508D02*
X5536372Y-19077984D01*
X5688753Y-19258936D02*
X5698277Y-19268460D01*
X5698277Y-19268460D02*
X5688753Y-19277984D01*
X5688753Y-19277984D02*
X5679229Y-19268460D01*
X5679229Y-19268460D02*
X5688753Y-19258936D01*
X5688753Y-19258936D02*
X5688753Y-19277984D01*
X5764943Y-19077984D02*
X5898277Y-19077984D01*
X5898277Y-19077984D02*
X5812562Y-19277984D01*
X6012562Y-19077984D02*
X6031610Y-19077984D01*
X6031610Y-19077984D02*
X6050658Y-19087508D01*
X6050658Y-19087508D02*
X6060182Y-19097031D01*
X6060182Y-19097031D02*
X6069705Y-19116079D01*
X6069705Y-19116079D02*
X6079229Y-19154174D01*
X6079229Y-19154174D02*
X6079229Y-19201793D01*
X6079229Y-19201793D02*
X6069705Y-19239889D01*
X6069705Y-19239889D02*
X6060182Y-19258936D01*
X6060182Y-19258936D02*
X6050658Y-19268460D01*
X6050658Y-19268460D02*
X6031610Y-19277984D01*
X6031610Y-19277984D02*
X6012562Y-19277984D01*
X6012562Y-19277984D02*
X5993515Y-19268460D01*
X5993515Y-19268460D02*
X5983991Y-19258936D01*
X5983991Y-19258936D02*
X5974467Y-19239889D01*
X5974467Y-19239889D02*
X5964943Y-19201793D01*
X5964943Y-19201793D02*
X5964943Y-19154174D01*
X5964943Y-19154174D02*
X5974467Y-19116079D01*
X5974467Y-19116079D02*
X5983991Y-19097031D01*
X5983991Y-19097031D02*
X5993515Y-19087508D01*
X5993515Y-19087508D02*
X6012562Y-19077984D01*
X6203039Y-19077984D02*
X6222086Y-19077984D01*
X6222086Y-19077984D02*
X6241134Y-19087508D01*
X6241134Y-19087508D02*
X6250658Y-19097031D01*
X6250658Y-19097031D02*
X6260182Y-19116079D01*
X6260182Y-19116079D02*
X6269705Y-19154174D01*
X6269705Y-19154174D02*
X6269705Y-19201793D01*
X6269705Y-19201793D02*
X6260182Y-19239889D01*
X6260182Y-19239889D02*
X6250658Y-19258936D01*
X6250658Y-19258936D02*
X6241134Y-19268460D01*
X6241134Y-19268460D02*
X6222086Y-19277984D01*
X6222086Y-19277984D02*
X6203039Y-19277984D01*
X6203039Y-19277984D02*
X6183991Y-19268460D01*
X6183991Y-19268460D02*
X6174467Y-19258936D01*
X6174467Y-19258936D02*
X6164943Y-19239889D01*
X6164943Y-19239889D02*
X6155420Y-19201793D01*
X6155420Y-19201793D02*
X6155420Y-19154174D01*
X6155420Y-19154174D02*
X6164943Y-19116079D01*
X6164943Y-19116079D02*
X6174467Y-19097031D01*
X6174467Y-19097031D02*
X6183991Y-19087508D01*
X6183991Y-19087508D02*
X6203039Y-19077984D01*
X6355420Y-19277984D02*
X6355420Y-19144650D01*
X6355420Y-19163698D02*
X6364943Y-19154174D01*
X6364943Y-19154174D02*
X6383991Y-19144650D01*
X6383991Y-19144650D02*
X6412563Y-19144650D01*
X6412563Y-19144650D02*
X6431610Y-19154174D01*
X6431610Y-19154174D02*
X6441134Y-19173222D01*
X6441134Y-19173222D02*
X6441134Y-19277984D01*
X6441134Y-19173222D02*
X6450658Y-19154174D01*
X6450658Y-19154174D02*
X6469705Y-19144650D01*
X6469705Y-19144650D02*
X6498277Y-19144650D01*
X6498277Y-19144650D02*
X6517324Y-19154174D01*
X6517324Y-19154174D02*
X6526848Y-19173222D01*
X6526848Y-19173222D02*
X6526848Y-19277984D01*
X6622086Y-19277984D02*
X6622086Y-19144650D01*
X6622086Y-19163698D02*
X6631610Y-19154174D01*
X6631610Y-19154174D02*
X6650658Y-19144650D01*
X6650658Y-19144650D02*
X6679229Y-19144650D01*
X6679229Y-19144650D02*
X6698277Y-19154174D01*
X6698277Y-19154174D02*
X6707801Y-19173222D01*
X6707801Y-19173222D02*
X6707801Y-19277984D01*
X6707801Y-19173222D02*
X6717324Y-19154174D01*
X6717324Y-19154174D02*
X6736372Y-19144650D01*
X6736372Y-19144650D02*
X6764943Y-19144650D01*
X6764943Y-19144650D02*
X6783991Y-19154174D01*
X6783991Y-19154174D02*
X6793515Y-19173222D01*
X6793515Y-19173222D02*
X6793515Y-19277984D01*
X7183991Y-19068460D02*
X7012563Y-19325603D01*
X7441134Y-19077984D02*
X7460182Y-19077984D01*
X7460182Y-19077984D02*
X7479229Y-19087508D01*
X7479229Y-19087508D02*
X7488753Y-19097031D01*
X7488753Y-19097031D02*
X7498277Y-19116079D01*
X7498277Y-19116079D02*
X7507801Y-19154174D01*
X7507801Y-19154174D02*
X7507801Y-19201793D01*
X7507801Y-19201793D02*
X7498277Y-19239889D01*
X7498277Y-19239889D02*
X7488753Y-19258936D01*
X7488753Y-19258936D02*
X7479229Y-19268460D01*
X7479229Y-19268460D02*
X7460182Y-19277984D01*
X7460182Y-19277984D02*
X7441134Y-19277984D01*
X7441134Y-19277984D02*
X7422086Y-19268460D01*
X7422086Y-19268460D02*
X7412563Y-19258936D01*
X7412563Y-19258936D02*
X7403039Y-19239889D01*
X7403039Y-19239889D02*
X7393515Y-19201793D01*
X7393515Y-19201793D02*
X7393515Y-19154174D01*
X7393515Y-19154174D02*
X7403039Y-19116079D01*
X7403039Y-19116079D02*
X7412563Y-19097031D01*
X7412563Y-19097031D02*
X7422086Y-19087508D01*
X7422086Y-19087508D02*
X7441134Y-19077984D01*
X7593515Y-19258936D02*
X7603039Y-19268460D01*
X7603039Y-19268460D02*
X7593515Y-19277984D01*
X7593515Y-19277984D02*
X7583991Y-19268460D01*
X7583991Y-19268460D02*
X7593515Y-19258936D01*
X7593515Y-19258936D02*
X7593515Y-19277984D01*
X7726848Y-19077984D02*
X7745896Y-19077984D01*
X7745896Y-19077984D02*
X7764944Y-19087508D01*
X7764944Y-19087508D02*
X7774467Y-19097031D01*
X7774467Y-19097031D02*
X7783991Y-19116079D01*
X7783991Y-19116079D02*
X7793515Y-19154174D01*
X7793515Y-19154174D02*
X7793515Y-19201793D01*
X7793515Y-19201793D02*
X7783991Y-19239889D01*
X7783991Y-19239889D02*
X7774467Y-19258936D01*
X7774467Y-19258936D02*
X7764944Y-19268460D01*
X7764944Y-19268460D02*
X7745896Y-19277984D01*
X7745896Y-19277984D02*
X7726848Y-19277984D01*
X7726848Y-19277984D02*
X7707801Y-19268460D01*
X7707801Y-19268460D02*
X7698277Y-19258936D01*
X7698277Y-19258936D02*
X7688753Y-19239889D01*
X7688753Y-19239889D02*
X7679229Y-19201793D01*
X7679229Y-19201793D02*
X7679229Y-19154174D01*
X7679229Y-19154174D02*
X7688753Y-19116079D01*
X7688753Y-19116079D02*
X7698277Y-19097031D01*
X7698277Y-19097031D02*
X7707801Y-19087508D01*
X7707801Y-19087508D02*
X7726848Y-19077984D01*
X7869706Y-19097031D02*
X7879229Y-19087508D01*
X7879229Y-19087508D02*
X7898277Y-19077984D01*
X7898277Y-19077984D02*
X7945896Y-19077984D01*
X7945896Y-19077984D02*
X7964944Y-19087508D01*
X7964944Y-19087508D02*
X7974467Y-19097031D01*
X7974467Y-19097031D02*
X7983991Y-19116079D01*
X7983991Y-19116079D02*
X7983991Y-19135127D01*
X7983991Y-19135127D02*
X7974467Y-19163698D01*
X7974467Y-19163698D02*
X7860182Y-19277984D01*
X7860182Y-19277984D02*
X7983991Y-19277984D01*
X8050658Y-19077984D02*
X8183991Y-19077984D01*
X8183991Y-19077984D02*
X8098277Y-19277984D01*
X8345896Y-19077984D02*
X8307801Y-19077984D01*
X8307801Y-19077984D02*
X8288753Y-19087508D01*
X8288753Y-19087508D02*
X8279229Y-19097031D01*
X8279229Y-19097031D02*
X8260182Y-19125603D01*
X8260182Y-19125603D02*
X8250658Y-19163698D01*
X8250658Y-19163698D02*
X8250658Y-19239889D01*
X8250658Y-19239889D02*
X8260182Y-19258936D01*
X8260182Y-19258936D02*
X8269706Y-19268460D01*
X8269706Y-19268460D02*
X8288753Y-19277984D01*
X8288753Y-19277984D02*
X8326848Y-19277984D01*
X8326848Y-19277984D02*
X8345896Y-19268460D01*
X8345896Y-19268460D02*
X8355420Y-19258936D01*
X8355420Y-19258936D02*
X8364944Y-19239889D01*
X8364944Y-19239889D02*
X8364944Y-19192270D01*
X8364944Y-19192270D02*
X8355420Y-19173222D01*
X8355420Y-19173222D02*
X8345896Y-19163698D01*
X8345896Y-19163698D02*
X8326848Y-19154174D01*
X8326848Y-19154174D02*
X8288753Y-19154174D01*
X8288753Y-19154174D02*
X8269706Y-19163698D01*
X8269706Y-19163698D02*
X8260182Y-19173222D01*
X8260182Y-19173222D02*
X8250658Y-19192270D01*
X8441134Y-19077984D02*
X8441134Y-19116079D01*
X8517325Y-19077984D02*
X8517325Y-19116079D01*
X8812563Y-19354174D02*
X8803039Y-19344650D01*
X8803039Y-19344650D02*
X8783991Y-19316079D01*
X8783991Y-19316079D02*
X8774468Y-19297031D01*
X8774468Y-19297031D02*
X8764944Y-19268460D01*
X8764944Y-19268460D02*
X8755420Y-19220841D01*
X8755420Y-19220841D02*
X8755420Y-19182746D01*
X8755420Y-19182746D02*
X8764944Y-19135127D01*
X8764944Y-19135127D02*
X8774468Y-19106555D01*
X8774468Y-19106555D02*
X8783991Y-19087508D01*
X8783991Y-19087508D02*
X8803039Y-19058936D01*
X8803039Y-19058936D02*
X8812563Y-19049412D01*
X8879230Y-19097031D02*
X8888753Y-19087508D01*
X8888753Y-19087508D02*
X8907801Y-19077984D01*
X8907801Y-19077984D02*
X8955420Y-19077984D01*
X8955420Y-19077984D02*
X8974468Y-19087508D01*
X8974468Y-19087508D02*
X8983991Y-19097031D01*
X8983991Y-19097031D02*
X8993515Y-19116079D01*
X8993515Y-19116079D02*
X8993515Y-19135127D01*
X8993515Y-19135127D02*
X8983991Y-19163698D01*
X8983991Y-19163698D02*
X8869706Y-19277984D01*
X8869706Y-19277984D02*
X8993515Y-19277984D01*
X9231611Y-19277984D02*
X9231611Y-19077984D01*
X9317325Y-19277984D02*
X9317325Y-19173222D01*
X9317325Y-19173222D02*
X9307801Y-19154174D01*
X9307801Y-19154174D02*
X9288753Y-19144650D01*
X9288753Y-19144650D02*
X9260182Y-19144650D01*
X9260182Y-19144650D02*
X9241134Y-19154174D01*
X9241134Y-19154174D02*
X9231611Y-19163698D01*
X9441134Y-19277984D02*
X9422087Y-19268460D01*
X9422087Y-19268460D02*
X9412563Y-19258936D01*
X9412563Y-19258936D02*
X9403039Y-19239889D01*
X9403039Y-19239889D02*
X9403039Y-19182746D01*
X9403039Y-19182746D02*
X9412563Y-19163698D01*
X9412563Y-19163698D02*
X9422087Y-19154174D01*
X9422087Y-19154174D02*
X9441134Y-19144650D01*
X9441134Y-19144650D02*
X9469706Y-19144650D01*
X9469706Y-19144650D02*
X9488753Y-19154174D01*
X9488753Y-19154174D02*
X9498277Y-19163698D01*
X9498277Y-19163698D02*
X9507801Y-19182746D01*
X9507801Y-19182746D02*
X9507801Y-19239889D01*
X9507801Y-19239889D02*
X9498277Y-19258936D01*
X9498277Y-19258936D02*
X9488753Y-19268460D01*
X9488753Y-19268460D02*
X9469706Y-19277984D01*
X9469706Y-19277984D02*
X9441134Y-19277984D01*
X9622087Y-19277984D02*
X9603039Y-19268460D01*
X9603039Y-19268460D02*
X9593515Y-19249412D01*
X9593515Y-19249412D02*
X9593515Y-19077984D01*
X9774468Y-19268460D02*
X9755420Y-19277984D01*
X9755420Y-19277984D02*
X9717325Y-19277984D01*
X9717325Y-19277984D02*
X9698277Y-19268460D01*
X9698277Y-19268460D02*
X9688753Y-19249412D01*
X9688753Y-19249412D02*
X9688753Y-19173222D01*
X9688753Y-19173222D02*
X9698277Y-19154174D01*
X9698277Y-19154174D02*
X9717325Y-19144650D01*
X9717325Y-19144650D02*
X9755420Y-19144650D01*
X9755420Y-19144650D02*
X9774468Y-19154174D01*
X9774468Y-19154174D02*
X9783992Y-19173222D01*
X9783992Y-19173222D02*
X9783992Y-19192270D01*
X9783992Y-19192270D02*
X9688753Y-19211317D01*
X9860182Y-19268460D02*
X9879230Y-19277984D01*
X9879230Y-19277984D02*
X9917325Y-19277984D01*
X9917325Y-19277984D02*
X9936373Y-19268460D01*
X9936373Y-19268460D02*
X9945896Y-19249412D01*
X9945896Y-19249412D02*
X9945896Y-19239889D01*
X9945896Y-19239889D02*
X9936373Y-19220841D01*
X9936373Y-19220841D02*
X9917325Y-19211317D01*
X9917325Y-19211317D02*
X9888753Y-19211317D01*
X9888753Y-19211317D02*
X9869706Y-19201793D01*
X9869706Y-19201793D02*
X9860182Y-19182746D01*
X9860182Y-19182746D02*
X9860182Y-19173222D01*
X9860182Y-19173222D02*
X9869706Y-19154174D01*
X9869706Y-19154174D02*
X9888753Y-19144650D01*
X9888753Y-19144650D02*
X9917325Y-19144650D01*
X9917325Y-19144650D02*
X9936373Y-19154174D01*
X10012563Y-19354174D02*
X10022087Y-19344650D01*
X10022087Y-19344650D02*
X10041134Y-19316079D01*
X10041134Y-19316079D02*
X10050658Y-19297031D01*
X10050658Y-19297031D02*
X10060182Y-19268460D01*
X10060182Y-19268460D02*
X10069706Y-19220841D01*
X10069706Y-19220841D02*
X10069706Y-19182746D01*
X10069706Y-19182746D02*
X10060182Y-19135127D01*
X10060182Y-19135127D02*
X10050658Y-19106555D01*
X10050658Y-19106555D02*
X10041134Y-19087508D01*
X10041134Y-19087508D02*
X10022087Y-19058936D01*
X10022087Y-19058936D02*
X10012563Y-19049412D01*
D12*
X5187500Y-19400500D02*
X5187500Y-19500500D01*
X5137500Y-19450500D02*
X5237500Y-19450500D01*
D11*
X5603039Y-19541984D02*
X5488753Y-19541984D01*
X5545896Y-19541984D02*
X5545896Y-19341984D01*
X5545896Y-19341984D02*
X5526848Y-19370555D01*
X5526848Y-19370555D02*
X5507801Y-19389603D01*
X5507801Y-19389603D02*
X5488753Y-19399127D01*
X5688753Y-19522936D02*
X5698277Y-19532460D01*
X5698277Y-19532460D02*
X5688753Y-19541984D01*
X5688753Y-19541984D02*
X5679229Y-19532460D01*
X5679229Y-19532460D02*
X5688753Y-19522936D01*
X5688753Y-19522936D02*
X5688753Y-19541984D01*
X5822086Y-19341984D02*
X5841134Y-19341984D01*
X5841134Y-19341984D02*
X5860182Y-19351508D01*
X5860182Y-19351508D02*
X5869705Y-19361031D01*
X5869705Y-19361031D02*
X5879229Y-19380079D01*
X5879229Y-19380079D02*
X5888753Y-19418174D01*
X5888753Y-19418174D02*
X5888753Y-19465793D01*
X5888753Y-19465793D02*
X5879229Y-19503889D01*
X5879229Y-19503889D02*
X5869705Y-19522936D01*
X5869705Y-19522936D02*
X5860182Y-19532460D01*
X5860182Y-19532460D02*
X5841134Y-19541984D01*
X5841134Y-19541984D02*
X5822086Y-19541984D01*
X5822086Y-19541984D02*
X5803039Y-19532460D01*
X5803039Y-19532460D02*
X5793515Y-19522936D01*
X5793515Y-19522936D02*
X5783991Y-19503889D01*
X5783991Y-19503889D02*
X5774467Y-19465793D01*
X5774467Y-19465793D02*
X5774467Y-19418174D01*
X5774467Y-19418174D02*
X5783991Y-19380079D01*
X5783991Y-19380079D02*
X5793515Y-19361031D01*
X5793515Y-19361031D02*
X5803039Y-19351508D01*
X5803039Y-19351508D02*
X5822086Y-19341984D01*
X6012562Y-19341984D02*
X6031610Y-19341984D01*
X6031610Y-19341984D02*
X6050658Y-19351508D01*
X6050658Y-19351508D02*
X6060182Y-19361031D01*
X6060182Y-19361031D02*
X6069705Y-19380079D01*
X6069705Y-19380079D02*
X6079229Y-19418174D01*
X6079229Y-19418174D02*
X6079229Y-19465793D01*
X6079229Y-19465793D02*
X6069705Y-19503889D01*
X6069705Y-19503889D02*
X6060182Y-19522936D01*
X6060182Y-19522936D02*
X6050658Y-19532460D01*
X6050658Y-19532460D02*
X6031610Y-19541984D01*
X6031610Y-19541984D02*
X6012562Y-19541984D01*
X6012562Y-19541984D02*
X5993515Y-19532460D01*
X5993515Y-19532460D02*
X5983991Y-19522936D01*
X5983991Y-19522936D02*
X5974467Y-19503889D01*
X5974467Y-19503889D02*
X5964943Y-19465793D01*
X5964943Y-19465793D02*
X5964943Y-19418174D01*
X5964943Y-19418174D02*
X5974467Y-19380079D01*
X5974467Y-19380079D02*
X5983991Y-19361031D01*
X5983991Y-19361031D02*
X5993515Y-19351508D01*
X5993515Y-19351508D02*
X6012562Y-19341984D01*
X6203039Y-19341984D02*
X6222086Y-19341984D01*
X6222086Y-19341984D02*
X6241134Y-19351508D01*
X6241134Y-19351508D02*
X6250658Y-19361031D01*
X6250658Y-19361031D02*
X6260182Y-19380079D01*
X6260182Y-19380079D02*
X6269705Y-19418174D01*
X6269705Y-19418174D02*
X6269705Y-19465793D01*
X6269705Y-19465793D02*
X6260182Y-19503889D01*
X6260182Y-19503889D02*
X6250658Y-19522936D01*
X6250658Y-19522936D02*
X6241134Y-19532460D01*
X6241134Y-19532460D02*
X6222086Y-19541984D01*
X6222086Y-19541984D02*
X6203039Y-19541984D01*
X6203039Y-19541984D02*
X6183991Y-19532460D01*
X6183991Y-19532460D02*
X6174467Y-19522936D01*
X6174467Y-19522936D02*
X6164943Y-19503889D01*
X6164943Y-19503889D02*
X6155420Y-19465793D01*
X6155420Y-19465793D02*
X6155420Y-19418174D01*
X6155420Y-19418174D02*
X6164943Y-19380079D01*
X6164943Y-19380079D02*
X6174467Y-19361031D01*
X6174467Y-19361031D02*
X6183991Y-19351508D01*
X6183991Y-19351508D02*
X6203039Y-19341984D01*
X6355420Y-19541984D02*
X6355420Y-19408650D01*
X6355420Y-19427698D02*
X6364943Y-19418174D01*
X6364943Y-19418174D02*
X6383991Y-19408650D01*
X6383991Y-19408650D02*
X6412563Y-19408650D01*
X6412563Y-19408650D02*
X6431610Y-19418174D01*
X6431610Y-19418174D02*
X6441134Y-19437222D01*
X6441134Y-19437222D02*
X6441134Y-19541984D01*
X6441134Y-19437222D02*
X6450658Y-19418174D01*
X6450658Y-19418174D02*
X6469705Y-19408650D01*
X6469705Y-19408650D02*
X6498277Y-19408650D01*
X6498277Y-19408650D02*
X6517324Y-19418174D01*
X6517324Y-19418174D02*
X6526848Y-19437222D01*
X6526848Y-19437222D02*
X6526848Y-19541984D01*
X6622086Y-19541984D02*
X6622086Y-19408650D01*
X6622086Y-19427698D02*
X6631610Y-19418174D01*
X6631610Y-19418174D02*
X6650658Y-19408650D01*
X6650658Y-19408650D02*
X6679229Y-19408650D01*
X6679229Y-19408650D02*
X6698277Y-19418174D01*
X6698277Y-19418174D02*
X6707801Y-19437222D01*
X6707801Y-19437222D02*
X6707801Y-19541984D01*
X6707801Y-19437222D02*
X6717324Y-19418174D01*
X6717324Y-19418174D02*
X6736372Y-19408650D01*
X6736372Y-19408650D02*
X6764943Y-19408650D01*
X6764943Y-19408650D02*
X6783991Y-19418174D01*
X6783991Y-19418174D02*
X6793515Y-19437222D01*
X6793515Y-19437222D02*
X6793515Y-19541984D01*
X7183991Y-19332460D02*
X7012563Y-19589603D01*
X7441134Y-19341984D02*
X7460182Y-19341984D01*
X7460182Y-19341984D02*
X7479229Y-19351508D01*
X7479229Y-19351508D02*
X7488753Y-19361031D01*
X7488753Y-19361031D02*
X7498277Y-19380079D01*
X7498277Y-19380079D02*
X7507801Y-19418174D01*
X7507801Y-19418174D02*
X7507801Y-19465793D01*
X7507801Y-19465793D02*
X7498277Y-19503889D01*
X7498277Y-19503889D02*
X7488753Y-19522936D01*
X7488753Y-19522936D02*
X7479229Y-19532460D01*
X7479229Y-19532460D02*
X7460182Y-19541984D01*
X7460182Y-19541984D02*
X7441134Y-19541984D01*
X7441134Y-19541984D02*
X7422086Y-19532460D01*
X7422086Y-19532460D02*
X7412563Y-19522936D01*
X7412563Y-19522936D02*
X7403039Y-19503889D01*
X7403039Y-19503889D02*
X7393515Y-19465793D01*
X7393515Y-19465793D02*
X7393515Y-19418174D01*
X7393515Y-19418174D02*
X7403039Y-19380079D01*
X7403039Y-19380079D02*
X7412563Y-19361031D01*
X7412563Y-19361031D02*
X7422086Y-19351508D01*
X7422086Y-19351508D02*
X7441134Y-19341984D01*
X7593515Y-19522936D02*
X7603039Y-19532460D01*
X7603039Y-19532460D02*
X7593515Y-19541984D01*
X7593515Y-19541984D02*
X7583991Y-19532460D01*
X7583991Y-19532460D02*
X7593515Y-19522936D01*
X7593515Y-19522936D02*
X7593515Y-19541984D01*
X7726848Y-19341984D02*
X7745896Y-19341984D01*
X7745896Y-19341984D02*
X7764944Y-19351508D01*
X7764944Y-19351508D02*
X7774467Y-19361031D01*
X7774467Y-19361031D02*
X7783991Y-19380079D01*
X7783991Y-19380079D02*
X7793515Y-19418174D01*
X7793515Y-19418174D02*
X7793515Y-19465793D01*
X7793515Y-19465793D02*
X7783991Y-19503889D01*
X7783991Y-19503889D02*
X7774467Y-19522936D01*
X7774467Y-19522936D02*
X7764944Y-19532460D01*
X7764944Y-19532460D02*
X7745896Y-19541984D01*
X7745896Y-19541984D02*
X7726848Y-19541984D01*
X7726848Y-19541984D02*
X7707801Y-19532460D01*
X7707801Y-19532460D02*
X7698277Y-19522936D01*
X7698277Y-19522936D02*
X7688753Y-19503889D01*
X7688753Y-19503889D02*
X7679229Y-19465793D01*
X7679229Y-19465793D02*
X7679229Y-19418174D01*
X7679229Y-19418174D02*
X7688753Y-19380079D01*
X7688753Y-19380079D02*
X7698277Y-19361031D01*
X7698277Y-19361031D02*
X7707801Y-19351508D01*
X7707801Y-19351508D02*
X7726848Y-19341984D01*
X7860182Y-19341984D02*
X7983991Y-19341984D01*
X7983991Y-19341984D02*
X7917325Y-19418174D01*
X7917325Y-19418174D02*
X7945896Y-19418174D01*
X7945896Y-19418174D02*
X7964944Y-19427698D01*
X7964944Y-19427698D02*
X7974467Y-19437222D01*
X7974467Y-19437222D02*
X7983991Y-19456270D01*
X7983991Y-19456270D02*
X7983991Y-19503889D01*
X7983991Y-19503889D02*
X7974467Y-19522936D01*
X7974467Y-19522936D02*
X7964944Y-19532460D01*
X7964944Y-19532460D02*
X7945896Y-19541984D01*
X7945896Y-19541984D02*
X7888753Y-19541984D01*
X7888753Y-19541984D02*
X7869706Y-19532460D01*
X7869706Y-19532460D02*
X7860182Y-19522936D01*
X8079229Y-19541984D02*
X8117325Y-19541984D01*
X8117325Y-19541984D02*
X8136372Y-19532460D01*
X8136372Y-19532460D02*
X8145896Y-19522936D01*
X8145896Y-19522936D02*
X8164944Y-19494365D01*
X8164944Y-19494365D02*
X8174467Y-19456270D01*
X8174467Y-19456270D02*
X8174467Y-19380079D01*
X8174467Y-19380079D02*
X8164944Y-19361031D01*
X8164944Y-19361031D02*
X8155420Y-19351508D01*
X8155420Y-19351508D02*
X8136372Y-19341984D01*
X8136372Y-19341984D02*
X8098277Y-19341984D01*
X8098277Y-19341984D02*
X8079229Y-19351508D01*
X8079229Y-19351508D02*
X8069706Y-19361031D01*
X8069706Y-19361031D02*
X8060182Y-19380079D01*
X8060182Y-19380079D02*
X8060182Y-19427698D01*
X8060182Y-19427698D02*
X8069706Y-19446746D01*
X8069706Y-19446746D02*
X8079229Y-19456270D01*
X8079229Y-19456270D02*
X8098277Y-19465793D01*
X8098277Y-19465793D02*
X8136372Y-19465793D01*
X8136372Y-19465793D02*
X8155420Y-19456270D01*
X8155420Y-19456270D02*
X8164944Y-19446746D01*
X8164944Y-19446746D02*
X8174467Y-19427698D01*
X8345896Y-19408650D02*
X8345896Y-19541984D01*
X8298277Y-19332460D02*
X8250658Y-19475317D01*
X8250658Y-19475317D02*
X8374467Y-19475317D01*
X8441134Y-19341984D02*
X8441134Y-19380079D01*
X8517325Y-19341984D02*
X8517325Y-19380079D01*
X8812563Y-19618174D02*
X8803039Y-19608650D01*
X8803039Y-19608650D02*
X8783991Y-19580079D01*
X8783991Y-19580079D02*
X8774468Y-19561031D01*
X8774468Y-19561031D02*
X8764944Y-19532460D01*
X8764944Y-19532460D02*
X8755420Y-19484841D01*
X8755420Y-19484841D02*
X8755420Y-19446746D01*
X8755420Y-19446746D02*
X8764944Y-19399127D01*
X8764944Y-19399127D02*
X8774468Y-19370555D01*
X8774468Y-19370555D02*
X8783991Y-19351508D01*
X8783991Y-19351508D02*
X8803039Y-19322936D01*
X8803039Y-19322936D02*
X8812563Y-19313412D01*
X8869706Y-19341984D02*
X9003039Y-19341984D01*
X9003039Y-19341984D02*
X8917325Y-19541984D01*
X9088753Y-19541984D02*
X9126849Y-19541984D01*
X9126849Y-19541984D02*
X9145896Y-19532460D01*
X9145896Y-19532460D02*
X9155420Y-19522936D01*
X9155420Y-19522936D02*
X9174468Y-19494365D01*
X9174468Y-19494365D02*
X9183991Y-19456270D01*
X9183991Y-19456270D02*
X9183991Y-19380079D01*
X9183991Y-19380079D02*
X9174468Y-19361031D01*
X9174468Y-19361031D02*
X9164944Y-19351508D01*
X9164944Y-19351508D02*
X9145896Y-19341984D01*
X9145896Y-19341984D02*
X9107801Y-19341984D01*
X9107801Y-19341984D02*
X9088753Y-19351508D01*
X9088753Y-19351508D02*
X9079230Y-19361031D01*
X9079230Y-19361031D02*
X9069706Y-19380079D01*
X9069706Y-19380079D02*
X9069706Y-19427698D01*
X9069706Y-19427698D02*
X9079230Y-19446746D01*
X9079230Y-19446746D02*
X9088753Y-19456270D01*
X9088753Y-19456270D02*
X9107801Y-19465793D01*
X9107801Y-19465793D02*
X9145896Y-19465793D01*
X9145896Y-19465793D02*
X9164944Y-19456270D01*
X9164944Y-19456270D02*
X9174468Y-19446746D01*
X9174468Y-19446746D02*
X9183991Y-19427698D01*
X9298277Y-19427698D02*
X9279230Y-19418174D01*
X9279230Y-19418174D02*
X9269706Y-19408650D01*
X9269706Y-19408650D02*
X9260182Y-19389603D01*
X9260182Y-19389603D02*
X9260182Y-19380079D01*
X9260182Y-19380079D02*
X9269706Y-19361031D01*
X9269706Y-19361031D02*
X9279230Y-19351508D01*
X9279230Y-19351508D02*
X9298277Y-19341984D01*
X9298277Y-19341984D02*
X9336372Y-19341984D01*
X9336372Y-19341984D02*
X9355420Y-19351508D01*
X9355420Y-19351508D02*
X9364944Y-19361031D01*
X9364944Y-19361031D02*
X9374468Y-19380079D01*
X9374468Y-19380079D02*
X9374468Y-19389603D01*
X9374468Y-19389603D02*
X9364944Y-19408650D01*
X9364944Y-19408650D02*
X9355420Y-19418174D01*
X9355420Y-19418174D02*
X9336372Y-19427698D01*
X9336372Y-19427698D02*
X9298277Y-19427698D01*
X9298277Y-19427698D02*
X9279230Y-19437222D01*
X9279230Y-19437222D02*
X9269706Y-19446746D01*
X9269706Y-19446746D02*
X9260182Y-19465793D01*
X9260182Y-19465793D02*
X9260182Y-19503889D01*
X9260182Y-19503889D02*
X9269706Y-19522936D01*
X9269706Y-19522936D02*
X9279230Y-19532460D01*
X9279230Y-19532460D02*
X9298277Y-19541984D01*
X9298277Y-19541984D02*
X9336372Y-19541984D01*
X9336372Y-19541984D02*
X9355420Y-19532460D01*
X9355420Y-19532460D02*
X9364944Y-19522936D01*
X9364944Y-19522936D02*
X9374468Y-19503889D01*
X9374468Y-19503889D02*
X9374468Y-19465793D01*
X9374468Y-19465793D02*
X9364944Y-19446746D01*
X9364944Y-19446746D02*
X9355420Y-19437222D01*
X9355420Y-19437222D02*
X9336372Y-19427698D01*
X9612563Y-19541984D02*
X9612563Y-19341984D01*
X9698277Y-19541984D02*
X9698277Y-19437222D01*
X9698277Y-19437222D02*
X9688753Y-19418174D01*
X9688753Y-19418174D02*
X9669706Y-19408650D01*
X9669706Y-19408650D02*
X9641134Y-19408650D01*
X9641134Y-19408650D02*
X9622087Y-19418174D01*
X9622087Y-19418174D02*
X9612563Y-19427698D01*
X9822087Y-19541984D02*
X9803039Y-19532460D01*
X9803039Y-19532460D02*
X9793515Y-19522936D01*
X9793515Y-19522936D02*
X9783992Y-19503889D01*
X9783992Y-19503889D02*
X9783992Y-19446746D01*
X9783992Y-19446746D02*
X9793515Y-19427698D01*
X9793515Y-19427698D02*
X9803039Y-19418174D01*
X9803039Y-19418174D02*
X9822087Y-19408650D01*
X9822087Y-19408650D02*
X9850658Y-19408650D01*
X9850658Y-19408650D02*
X9869706Y-19418174D01*
X9869706Y-19418174D02*
X9879230Y-19427698D01*
X9879230Y-19427698D02*
X9888753Y-19446746D01*
X9888753Y-19446746D02*
X9888753Y-19503889D01*
X9888753Y-19503889D02*
X9879230Y-19522936D01*
X9879230Y-19522936D02*
X9869706Y-19532460D01*
X9869706Y-19532460D02*
X9850658Y-19541984D01*
X9850658Y-19541984D02*
X9822087Y-19541984D01*
X10003039Y-19541984D02*
X9983992Y-19532460D01*
X9983992Y-19532460D02*
X9974468Y-19513412D01*
X9974468Y-19513412D02*
X9974468Y-19341984D01*
X10155420Y-19532460D02*
X10136373Y-19541984D01*
X10136373Y-19541984D02*
X10098277Y-19541984D01*
X10098277Y-19541984D02*
X10079230Y-19532460D01*
X10079230Y-19532460D02*
X10069706Y-19513412D01*
X10069706Y-19513412D02*
X10069706Y-19437222D01*
X10069706Y-19437222D02*
X10079230Y-19418174D01*
X10079230Y-19418174D02*
X10098277Y-19408650D01*
X10098277Y-19408650D02*
X10136373Y-19408650D01*
X10136373Y-19408650D02*
X10155420Y-19418174D01*
X10155420Y-19418174D02*
X10164944Y-19437222D01*
X10164944Y-19437222D02*
X10164944Y-19456270D01*
X10164944Y-19456270D02*
X10069706Y-19475317D01*
X10241134Y-19532460D02*
X10260182Y-19541984D01*
X10260182Y-19541984D02*
X10298277Y-19541984D01*
X10298277Y-19541984D02*
X10317325Y-19532460D01*
X10317325Y-19532460D02*
X10326849Y-19513412D01*
X10326849Y-19513412D02*
X10326849Y-19503889D01*
X10326849Y-19503889D02*
X10317325Y-19484841D01*
X10317325Y-19484841D02*
X10298277Y-19475317D01*
X10298277Y-19475317D02*
X10269706Y-19475317D01*
X10269706Y-19475317D02*
X10250658Y-19465793D01*
X10250658Y-19465793D02*
X10241134Y-19446746D01*
X10241134Y-19446746D02*
X10241134Y-19437222D01*
X10241134Y-19437222D02*
X10250658Y-19418174D01*
X10250658Y-19418174D02*
X10269706Y-19408650D01*
X10269706Y-19408650D02*
X10298277Y-19408650D01*
X10298277Y-19408650D02*
X10317325Y-19418174D01*
X10393515Y-19618174D02*
X10403039Y-19608650D01*
X10403039Y-19608650D02*
X10422087Y-19580079D01*
X10422087Y-19580079D02*
X10431611Y-19561031D01*
X10431611Y-19561031D02*
X10441134Y-19532460D01*
X10441134Y-19532460D02*
X10450658Y-19484841D01*
X10450658Y-19484841D02*
X10450658Y-19446746D01*
X10450658Y-19446746D02*
X10441134Y-19399127D01*
X10441134Y-19399127D02*
X10431611Y-19370555D01*
X10431611Y-19370555D02*
X10422087Y-19351508D01*
X10422087Y-19351508D02*
X10403039Y-19322936D01*
X10403039Y-19322936D02*
X10393515Y-19313412D01*
D13*
X5222563Y-19750563D02*
X5222563Y-19678437D01*
X5150437Y-19678437D01*
X5150437Y-19750563D01*
X5222563Y-19750563D01*
D11*
X5603039Y-19805984D02*
X5488753Y-19805984D01*
X5545896Y-19805984D02*
X5545896Y-19605984D01*
X5545896Y-19605984D02*
X5526848Y-19634555D01*
X5526848Y-19634555D02*
X5507801Y-19653603D01*
X5507801Y-19653603D02*
X5488753Y-19663127D01*
X5688753Y-19786936D02*
X5698277Y-19796460D01*
X5698277Y-19796460D02*
X5688753Y-19805984D01*
X5688753Y-19805984D02*
X5679229Y-19796460D01*
X5679229Y-19796460D02*
X5688753Y-19786936D01*
X5688753Y-19786936D02*
X5688753Y-19805984D01*
X5822086Y-19605984D02*
X5841134Y-19605984D01*
X5841134Y-19605984D02*
X5860182Y-19615508D01*
X5860182Y-19615508D02*
X5869705Y-19625031D01*
X5869705Y-19625031D02*
X5879229Y-19644079D01*
X5879229Y-19644079D02*
X5888753Y-19682174D01*
X5888753Y-19682174D02*
X5888753Y-19729793D01*
X5888753Y-19729793D02*
X5879229Y-19767889D01*
X5879229Y-19767889D02*
X5869705Y-19786936D01*
X5869705Y-19786936D02*
X5860182Y-19796460D01*
X5860182Y-19796460D02*
X5841134Y-19805984D01*
X5841134Y-19805984D02*
X5822086Y-19805984D01*
X5822086Y-19805984D02*
X5803039Y-19796460D01*
X5803039Y-19796460D02*
X5793515Y-19786936D01*
X5793515Y-19786936D02*
X5783991Y-19767889D01*
X5783991Y-19767889D02*
X5774467Y-19729793D01*
X5774467Y-19729793D02*
X5774467Y-19682174D01*
X5774467Y-19682174D02*
X5783991Y-19644079D01*
X5783991Y-19644079D02*
X5793515Y-19625031D01*
X5793515Y-19625031D02*
X5803039Y-19615508D01*
X5803039Y-19615508D02*
X5822086Y-19605984D01*
X5964943Y-19625031D02*
X5974467Y-19615508D01*
X5974467Y-19615508D02*
X5993515Y-19605984D01*
X5993515Y-19605984D02*
X6041134Y-19605984D01*
X6041134Y-19605984D02*
X6060182Y-19615508D01*
X6060182Y-19615508D02*
X6069705Y-19625031D01*
X6069705Y-19625031D02*
X6079229Y-19644079D01*
X6079229Y-19644079D02*
X6079229Y-19663127D01*
X6079229Y-19663127D02*
X6069705Y-19691698D01*
X6069705Y-19691698D02*
X5955420Y-19805984D01*
X5955420Y-19805984D02*
X6079229Y-19805984D01*
X6203039Y-19605984D02*
X6222086Y-19605984D01*
X6222086Y-19605984D02*
X6241134Y-19615508D01*
X6241134Y-19615508D02*
X6250658Y-19625031D01*
X6250658Y-19625031D02*
X6260182Y-19644079D01*
X6260182Y-19644079D02*
X6269705Y-19682174D01*
X6269705Y-19682174D02*
X6269705Y-19729793D01*
X6269705Y-19729793D02*
X6260182Y-19767889D01*
X6260182Y-19767889D02*
X6250658Y-19786936D01*
X6250658Y-19786936D02*
X6241134Y-19796460D01*
X6241134Y-19796460D02*
X6222086Y-19805984D01*
X6222086Y-19805984D02*
X6203039Y-19805984D01*
X6203039Y-19805984D02*
X6183991Y-19796460D01*
X6183991Y-19796460D02*
X6174467Y-19786936D01*
X6174467Y-19786936D02*
X6164943Y-19767889D01*
X6164943Y-19767889D02*
X6155420Y-19729793D01*
X6155420Y-19729793D02*
X6155420Y-19682174D01*
X6155420Y-19682174D02*
X6164943Y-19644079D01*
X6164943Y-19644079D02*
X6174467Y-19625031D01*
X6174467Y-19625031D02*
X6183991Y-19615508D01*
X6183991Y-19615508D02*
X6203039Y-19605984D01*
X6355420Y-19805984D02*
X6355420Y-19672650D01*
X6355420Y-19691698D02*
X6364943Y-19682174D01*
X6364943Y-19682174D02*
X6383991Y-19672650D01*
X6383991Y-19672650D02*
X6412563Y-19672650D01*
X6412563Y-19672650D02*
X6431610Y-19682174D01*
X6431610Y-19682174D02*
X6441134Y-19701222D01*
X6441134Y-19701222D02*
X6441134Y-19805984D01*
X6441134Y-19701222D02*
X6450658Y-19682174D01*
X6450658Y-19682174D02*
X6469705Y-19672650D01*
X6469705Y-19672650D02*
X6498277Y-19672650D01*
X6498277Y-19672650D02*
X6517324Y-19682174D01*
X6517324Y-19682174D02*
X6526848Y-19701222D01*
X6526848Y-19701222D02*
X6526848Y-19805984D01*
X6622086Y-19805984D02*
X6622086Y-19672650D01*
X6622086Y-19691698D02*
X6631610Y-19682174D01*
X6631610Y-19682174D02*
X6650658Y-19672650D01*
X6650658Y-19672650D02*
X6679229Y-19672650D01*
X6679229Y-19672650D02*
X6698277Y-19682174D01*
X6698277Y-19682174D02*
X6707801Y-19701222D01*
X6707801Y-19701222D02*
X6707801Y-19805984D01*
X6707801Y-19701222D02*
X6717324Y-19682174D01*
X6717324Y-19682174D02*
X6736372Y-19672650D01*
X6736372Y-19672650D02*
X6764943Y-19672650D01*
X6764943Y-19672650D02*
X6783991Y-19682174D01*
X6783991Y-19682174D02*
X6793515Y-19701222D01*
X6793515Y-19701222D02*
X6793515Y-19805984D01*
X7183991Y-19596460D02*
X7012563Y-19853603D01*
X7441134Y-19605984D02*
X7460182Y-19605984D01*
X7460182Y-19605984D02*
X7479229Y-19615508D01*
X7479229Y-19615508D02*
X7488753Y-19625031D01*
X7488753Y-19625031D02*
X7498277Y-19644079D01*
X7498277Y-19644079D02*
X7507801Y-19682174D01*
X7507801Y-19682174D02*
X7507801Y-19729793D01*
X7507801Y-19729793D02*
X7498277Y-19767889D01*
X7498277Y-19767889D02*
X7488753Y-19786936D01*
X7488753Y-19786936D02*
X7479229Y-19796460D01*
X7479229Y-19796460D02*
X7460182Y-19805984D01*
X7460182Y-19805984D02*
X7441134Y-19805984D01*
X7441134Y-19805984D02*
X7422086Y-19796460D01*
X7422086Y-19796460D02*
X7412563Y-19786936D01*
X7412563Y-19786936D02*
X7403039Y-19767889D01*
X7403039Y-19767889D02*
X7393515Y-19729793D01*
X7393515Y-19729793D02*
X7393515Y-19682174D01*
X7393515Y-19682174D02*
X7403039Y-19644079D01*
X7403039Y-19644079D02*
X7412563Y-19625031D01*
X7412563Y-19625031D02*
X7422086Y-19615508D01*
X7422086Y-19615508D02*
X7441134Y-19605984D01*
X7593515Y-19786936D02*
X7603039Y-19796460D01*
X7603039Y-19796460D02*
X7593515Y-19805984D01*
X7593515Y-19805984D02*
X7583991Y-19796460D01*
X7583991Y-19796460D02*
X7593515Y-19786936D01*
X7593515Y-19786936D02*
X7593515Y-19805984D01*
X7726848Y-19605984D02*
X7745896Y-19605984D01*
X7745896Y-19605984D02*
X7764944Y-19615508D01*
X7764944Y-19615508D02*
X7774467Y-19625031D01*
X7774467Y-19625031D02*
X7783991Y-19644079D01*
X7783991Y-19644079D02*
X7793515Y-19682174D01*
X7793515Y-19682174D02*
X7793515Y-19729793D01*
X7793515Y-19729793D02*
X7783991Y-19767889D01*
X7783991Y-19767889D02*
X7774467Y-19786936D01*
X7774467Y-19786936D02*
X7764944Y-19796460D01*
X7764944Y-19796460D02*
X7745896Y-19805984D01*
X7745896Y-19805984D02*
X7726848Y-19805984D01*
X7726848Y-19805984D02*
X7707801Y-19796460D01*
X7707801Y-19796460D02*
X7698277Y-19786936D01*
X7698277Y-19786936D02*
X7688753Y-19767889D01*
X7688753Y-19767889D02*
X7679229Y-19729793D01*
X7679229Y-19729793D02*
X7679229Y-19682174D01*
X7679229Y-19682174D02*
X7688753Y-19644079D01*
X7688753Y-19644079D02*
X7698277Y-19625031D01*
X7698277Y-19625031D02*
X7707801Y-19615508D01*
X7707801Y-19615508D02*
X7726848Y-19605984D01*
X7964944Y-19672650D02*
X7964944Y-19805984D01*
X7917325Y-19596460D02*
X7869706Y-19739317D01*
X7869706Y-19739317D02*
X7993515Y-19739317D01*
X8107801Y-19605984D02*
X8126848Y-19605984D01*
X8126848Y-19605984D02*
X8145896Y-19615508D01*
X8145896Y-19615508D02*
X8155420Y-19625031D01*
X8155420Y-19625031D02*
X8164944Y-19644079D01*
X8164944Y-19644079D02*
X8174467Y-19682174D01*
X8174467Y-19682174D02*
X8174467Y-19729793D01*
X8174467Y-19729793D02*
X8164944Y-19767889D01*
X8164944Y-19767889D02*
X8155420Y-19786936D01*
X8155420Y-19786936D02*
X8145896Y-19796460D01*
X8145896Y-19796460D02*
X8126848Y-19805984D01*
X8126848Y-19805984D02*
X8107801Y-19805984D01*
X8107801Y-19805984D02*
X8088753Y-19796460D01*
X8088753Y-19796460D02*
X8079229Y-19786936D01*
X8079229Y-19786936D02*
X8069706Y-19767889D01*
X8069706Y-19767889D02*
X8060182Y-19729793D01*
X8060182Y-19729793D02*
X8060182Y-19682174D01*
X8060182Y-19682174D02*
X8069706Y-19644079D01*
X8069706Y-19644079D02*
X8079229Y-19625031D01*
X8079229Y-19625031D02*
X8088753Y-19615508D01*
X8088753Y-19615508D02*
X8107801Y-19605984D01*
X8250658Y-19625031D02*
X8260182Y-19615508D01*
X8260182Y-19615508D02*
X8279229Y-19605984D01*
X8279229Y-19605984D02*
X8326848Y-19605984D01*
X8326848Y-19605984D02*
X8345896Y-19615508D01*
X8345896Y-19615508D02*
X8355420Y-19625031D01*
X8355420Y-19625031D02*
X8364944Y-19644079D01*
X8364944Y-19644079D02*
X8364944Y-19663127D01*
X8364944Y-19663127D02*
X8355420Y-19691698D01*
X8355420Y-19691698D02*
X8241134Y-19805984D01*
X8241134Y-19805984D02*
X8364944Y-19805984D01*
X8441134Y-19605984D02*
X8441134Y-19644079D01*
X8517325Y-19605984D02*
X8517325Y-19644079D01*
X8812563Y-19882174D02*
X8803039Y-19872650D01*
X8803039Y-19872650D02*
X8783991Y-19844079D01*
X8783991Y-19844079D02*
X8774468Y-19825031D01*
X8774468Y-19825031D02*
X8764944Y-19796460D01*
X8764944Y-19796460D02*
X8755420Y-19748841D01*
X8755420Y-19748841D02*
X8755420Y-19710746D01*
X8755420Y-19710746D02*
X8764944Y-19663127D01*
X8764944Y-19663127D02*
X8774468Y-19634555D01*
X8774468Y-19634555D02*
X8783991Y-19615508D01*
X8783991Y-19615508D02*
X8803039Y-19586936D01*
X8803039Y-19586936D02*
X8812563Y-19577412D01*
X8974468Y-19672650D02*
X8974468Y-19805984D01*
X8926849Y-19596460D02*
X8879230Y-19739317D01*
X8879230Y-19739317D02*
X9003039Y-19739317D01*
X9060182Y-19605984D02*
X9183991Y-19605984D01*
X9183991Y-19605984D02*
X9117325Y-19682174D01*
X9117325Y-19682174D02*
X9145896Y-19682174D01*
X9145896Y-19682174D02*
X9164944Y-19691698D01*
X9164944Y-19691698D02*
X9174468Y-19701222D01*
X9174468Y-19701222D02*
X9183991Y-19720270D01*
X9183991Y-19720270D02*
X9183991Y-19767889D01*
X9183991Y-19767889D02*
X9174468Y-19786936D01*
X9174468Y-19786936D02*
X9164944Y-19796460D01*
X9164944Y-19796460D02*
X9145896Y-19805984D01*
X9145896Y-19805984D02*
X9088753Y-19805984D01*
X9088753Y-19805984D02*
X9069706Y-19796460D01*
X9069706Y-19796460D02*
X9060182Y-19786936D01*
X9422087Y-19805984D02*
X9422087Y-19605984D01*
X9507801Y-19805984D02*
X9507801Y-19701222D01*
X9507801Y-19701222D02*
X9498277Y-19682174D01*
X9498277Y-19682174D02*
X9479230Y-19672650D01*
X9479230Y-19672650D02*
X9450658Y-19672650D01*
X9450658Y-19672650D02*
X9431611Y-19682174D01*
X9431611Y-19682174D02*
X9422087Y-19691698D01*
X9631611Y-19805984D02*
X9612563Y-19796460D01*
X9612563Y-19796460D02*
X9603039Y-19786936D01*
X9603039Y-19786936D02*
X9593515Y-19767889D01*
X9593515Y-19767889D02*
X9593515Y-19710746D01*
X9593515Y-19710746D02*
X9603039Y-19691698D01*
X9603039Y-19691698D02*
X9612563Y-19682174D01*
X9612563Y-19682174D02*
X9631611Y-19672650D01*
X9631611Y-19672650D02*
X9660182Y-19672650D01*
X9660182Y-19672650D02*
X9679230Y-19682174D01*
X9679230Y-19682174D02*
X9688753Y-19691698D01*
X9688753Y-19691698D02*
X9698277Y-19710746D01*
X9698277Y-19710746D02*
X9698277Y-19767889D01*
X9698277Y-19767889D02*
X9688753Y-19786936D01*
X9688753Y-19786936D02*
X9679230Y-19796460D01*
X9679230Y-19796460D02*
X9660182Y-19805984D01*
X9660182Y-19805984D02*
X9631611Y-19805984D01*
X9812563Y-19805984D02*
X9793515Y-19796460D01*
X9793515Y-19796460D02*
X9783992Y-19777412D01*
X9783992Y-19777412D02*
X9783992Y-19605984D01*
X9964944Y-19796460D02*
X9945896Y-19805984D01*
X9945896Y-19805984D02*
X9907801Y-19805984D01*
X9907801Y-19805984D02*
X9888753Y-19796460D01*
X9888753Y-19796460D02*
X9879230Y-19777412D01*
X9879230Y-19777412D02*
X9879230Y-19701222D01*
X9879230Y-19701222D02*
X9888753Y-19682174D01*
X9888753Y-19682174D02*
X9907801Y-19672650D01*
X9907801Y-19672650D02*
X9945896Y-19672650D01*
X9945896Y-19672650D02*
X9964944Y-19682174D01*
X9964944Y-19682174D02*
X9974468Y-19701222D01*
X9974468Y-19701222D02*
X9974468Y-19720270D01*
X9974468Y-19720270D02*
X9879230Y-19739317D01*
X10050658Y-19796460D02*
X10069706Y-19805984D01*
X10069706Y-19805984D02*
X10107801Y-19805984D01*
X10107801Y-19805984D02*
X10126849Y-19796460D01*
X10126849Y-19796460D02*
X10136373Y-19777412D01*
X10136373Y-19777412D02*
X10136373Y-19767889D01*
X10136373Y-19767889D02*
X10126849Y-19748841D01*
X10126849Y-19748841D02*
X10107801Y-19739317D01*
X10107801Y-19739317D02*
X10079230Y-19739317D01*
X10079230Y-19739317D02*
X10060182Y-19729793D01*
X10060182Y-19729793D02*
X10050658Y-19710746D01*
X10050658Y-19710746D02*
X10050658Y-19701222D01*
X10050658Y-19701222D02*
X10060182Y-19682174D01*
X10060182Y-19682174D02*
X10079230Y-19672650D01*
X10079230Y-19672650D02*
X10107801Y-19672650D01*
X10107801Y-19672650D02*
X10126849Y-19682174D01*
X10203039Y-19882174D02*
X10212563Y-19872650D01*
X10212563Y-19872650D02*
X10231611Y-19844079D01*
X10231611Y-19844079D02*
X10241134Y-19825031D01*
X10241134Y-19825031D02*
X10250658Y-19796460D01*
X10250658Y-19796460D02*
X10260182Y-19748841D01*
X10260182Y-19748841D02*
X10260182Y-19710746D01*
X10260182Y-19710746D02*
X10250658Y-19663127D01*
X10250658Y-19663127D02*
X10241134Y-19634555D01*
X10241134Y-19634555D02*
X10231611Y-19615508D01*
X10231611Y-19615508D02*
X10212563Y-19586936D01*
X10212563Y-19586936D02*
X10203039Y-19577412D01*
X5137500Y-20078500D02*
X5237500Y-19978500D01*
X5137500Y-19878500D01*
X5037500Y-19978500D01*
X5137500Y-20078500D01*
X5479229Y-19869984D02*
X5603039Y-19869984D01*
X5603039Y-19869984D02*
X5536372Y-19946174D01*
X5536372Y-19946174D02*
X5564944Y-19946174D01*
X5564944Y-19946174D02*
X5583991Y-19955698D01*
X5583991Y-19955698D02*
X5593515Y-19965222D01*
X5593515Y-19965222D02*
X5603039Y-19984270D01*
X5603039Y-19984270D02*
X5603039Y-20031889D01*
X5603039Y-20031889D02*
X5593515Y-20050936D01*
X5593515Y-20050936D02*
X5583991Y-20060460D01*
X5583991Y-20060460D02*
X5564944Y-20069984D01*
X5564944Y-20069984D02*
X5507801Y-20069984D01*
X5507801Y-20069984D02*
X5488753Y-20060460D01*
X5488753Y-20060460D02*
X5479229Y-20050936D01*
X5688753Y-20050936D02*
X5698277Y-20060460D01*
X5698277Y-20060460D02*
X5688753Y-20069984D01*
X5688753Y-20069984D02*
X5679229Y-20060460D01*
X5679229Y-20060460D02*
X5688753Y-20050936D01*
X5688753Y-20050936D02*
X5688753Y-20069984D01*
X5774467Y-19889031D02*
X5783991Y-19879508D01*
X5783991Y-19879508D02*
X5803039Y-19869984D01*
X5803039Y-19869984D02*
X5850658Y-19869984D01*
X5850658Y-19869984D02*
X5869705Y-19879508D01*
X5869705Y-19879508D02*
X5879229Y-19889031D01*
X5879229Y-19889031D02*
X5888753Y-19908079D01*
X5888753Y-19908079D02*
X5888753Y-19927127D01*
X5888753Y-19927127D02*
X5879229Y-19955698D01*
X5879229Y-19955698D02*
X5764943Y-20069984D01*
X5764943Y-20069984D02*
X5888753Y-20069984D01*
X6012562Y-19869984D02*
X6031610Y-19869984D01*
X6031610Y-19869984D02*
X6050658Y-19879508D01*
X6050658Y-19879508D02*
X6060182Y-19889031D01*
X6060182Y-19889031D02*
X6069705Y-19908079D01*
X6069705Y-19908079D02*
X6079229Y-19946174D01*
X6079229Y-19946174D02*
X6079229Y-19993793D01*
X6079229Y-19993793D02*
X6069705Y-20031889D01*
X6069705Y-20031889D02*
X6060182Y-20050936D01*
X6060182Y-20050936D02*
X6050658Y-20060460D01*
X6050658Y-20060460D02*
X6031610Y-20069984D01*
X6031610Y-20069984D02*
X6012562Y-20069984D01*
X6012562Y-20069984D02*
X5993515Y-20060460D01*
X5993515Y-20060460D02*
X5983991Y-20050936D01*
X5983991Y-20050936D02*
X5974467Y-20031889D01*
X5974467Y-20031889D02*
X5964943Y-19993793D01*
X5964943Y-19993793D02*
X5964943Y-19946174D01*
X5964943Y-19946174D02*
X5974467Y-19908079D01*
X5974467Y-19908079D02*
X5983991Y-19889031D01*
X5983991Y-19889031D02*
X5993515Y-19879508D01*
X5993515Y-19879508D02*
X6012562Y-19869984D01*
X6203039Y-19869984D02*
X6222086Y-19869984D01*
X6222086Y-19869984D02*
X6241134Y-19879508D01*
X6241134Y-19879508D02*
X6250658Y-19889031D01*
X6250658Y-19889031D02*
X6260182Y-19908079D01*
X6260182Y-19908079D02*
X6269705Y-19946174D01*
X6269705Y-19946174D02*
X6269705Y-19993793D01*
X6269705Y-19993793D02*
X6260182Y-20031889D01*
X6260182Y-20031889D02*
X6250658Y-20050936D01*
X6250658Y-20050936D02*
X6241134Y-20060460D01*
X6241134Y-20060460D02*
X6222086Y-20069984D01*
X6222086Y-20069984D02*
X6203039Y-20069984D01*
X6203039Y-20069984D02*
X6183991Y-20060460D01*
X6183991Y-20060460D02*
X6174467Y-20050936D01*
X6174467Y-20050936D02*
X6164943Y-20031889D01*
X6164943Y-20031889D02*
X6155420Y-19993793D01*
X6155420Y-19993793D02*
X6155420Y-19946174D01*
X6155420Y-19946174D02*
X6164943Y-19908079D01*
X6164943Y-19908079D02*
X6174467Y-19889031D01*
X6174467Y-19889031D02*
X6183991Y-19879508D01*
X6183991Y-19879508D02*
X6203039Y-19869984D01*
X6355420Y-20069984D02*
X6355420Y-19936650D01*
X6355420Y-19955698D02*
X6364943Y-19946174D01*
X6364943Y-19946174D02*
X6383991Y-19936650D01*
X6383991Y-19936650D02*
X6412563Y-19936650D01*
X6412563Y-19936650D02*
X6431610Y-19946174D01*
X6431610Y-19946174D02*
X6441134Y-19965222D01*
X6441134Y-19965222D02*
X6441134Y-20069984D01*
X6441134Y-19965222D02*
X6450658Y-19946174D01*
X6450658Y-19946174D02*
X6469705Y-19936650D01*
X6469705Y-19936650D02*
X6498277Y-19936650D01*
X6498277Y-19936650D02*
X6517324Y-19946174D01*
X6517324Y-19946174D02*
X6526848Y-19965222D01*
X6526848Y-19965222D02*
X6526848Y-20069984D01*
X6622086Y-20069984D02*
X6622086Y-19936650D01*
X6622086Y-19955698D02*
X6631610Y-19946174D01*
X6631610Y-19946174D02*
X6650658Y-19936650D01*
X6650658Y-19936650D02*
X6679229Y-19936650D01*
X6679229Y-19936650D02*
X6698277Y-19946174D01*
X6698277Y-19946174D02*
X6707801Y-19965222D01*
X6707801Y-19965222D02*
X6707801Y-20069984D01*
X6707801Y-19965222D02*
X6717324Y-19946174D01*
X6717324Y-19946174D02*
X6736372Y-19936650D01*
X6736372Y-19936650D02*
X6764943Y-19936650D01*
X6764943Y-19936650D02*
X6783991Y-19946174D01*
X6783991Y-19946174D02*
X6793515Y-19965222D01*
X6793515Y-19965222D02*
X6793515Y-20069984D01*
X7183991Y-19860460D02*
X7012563Y-20117603D01*
X7441134Y-19869984D02*
X7460182Y-19869984D01*
X7460182Y-19869984D02*
X7479229Y-19879508D01*
X7479229Y-19879508D02*
X7488753Y-19889031D01*
X7488753Y-19889031D02*
X7498277Y-19908079D01*
X7498277Y-19908079D02*
X7507801Y-19946174D01*
X7507801Y-19946174D02*
X7507801Y-19993793D01*
X7507801Y-19993793D02*
X7498277Y-20031889D01*
X7498277Y-20031889D02*
X7488753Y-20050936D01*
X7488753Y-20050936D02*
X7479229Y-20060460D01*
X7479229Y-20060460D02*
X7460182Y-20069984D01*
X7460182Y-20069984D02*
X7441134Y-20069984D01*
X7441134Y-20069984D02*
X7422086Y-20060460D01*
X7422086Y-20060460D02*
X7412563Y-20050936D01*
X7412563Y-20050936D02*
X7403039Y-20031889D01*
X7403039Y-20031889D02*
X7393515Y-19993793D01*
X7393515Y-19993793D02*
X7393515Y-19946174D01*
X7393515Y-19946174D02*
X7403039Y-19908079D01*
X7403039Y-19908079D02*
X7412563Y-19889031D01*
X7412563Y-19889031D02*
X7422086Y-19879508D01*
X7422086Y-19879508D02*
X7441134Y-19869984D01*
X7593515Y-20050936D02*
X7603039Y-20060460D01*
X7603039Y-20060460D02*
X7593515Y-20069984D01*
X7593515Y-20069984D02*
X7583991Y-20060460D01*
X7583991Y-20060460D02*
X7593515Y-20050936D01*
X7593515Y-20050936D02*
X7593515Y-20069984D01*
X7793515Y-20069984D02*
X7679229Y-20069984D01*
X7736372Y-20069984D02*
X7736372Y-19869984D01*
X7736372Y-19869984D02*
X7717325Y-19898555D01*
X7717325Y-19898555D02*
X7698277Y-19917603D01*
X7698277Y-19917603D02*
X7679229Y-19927127D01*
X7869706Y-19889031D02*
X7879229Y-19879508D01*
X7879229Y-19879508D02*
X7898277Y-19869984D01*
X7898277Y-19869984D02*
X7945896Y-19869984D01*
X7945896Y-19869984D02*
X7964944Y-19879508D01*
X7964944Y-19879508D02*
X7974467Y-19889031D01*
X7974467Y-19889031D02*
X7983991Y-19908079D01*
X7983991Y-19908079D02*
X7983991Y-19927127D01*
X7983991Y-19927127D02*
X7974467Y-19955698D01*
X7974467Y-19955698D02*
X7860182Y-20069984D01*
X7860182Y-20069984D02*
X7983991Y-20069984D01*
X8155420Y-19869984D02*
X8117325Y-19869984D01*
X8117325Y-19869984D02*
X8098277Y-19879508D01*
X8098277Y-19879508D02*
X8088753Y-19889031D01*
X8088753Y-19889031D02*
X8069706Y-19917603D01*
X8069706Y-19917603D02*
X8060182Y-19955698D01*
X8060182Y-19955698D02*
X8060182Y-20031889D01*
X8060182Y-20031889D02*
X8069706Y-20050936D01*
X8069706Y-20050936D02*
X8079229Y-20060460D01*
X8079229Y-20060460D02*
X8098277Y-20069984D01*
X8098277Y-20069984D02*
X8136372Y-20069984D01*
X8136372Y-20069984D02*
X8155420Y-20060460D01*
X8155420Y-20060460D02*
X8164944Y-20050936D01*
X8164944Y-20050936D02*
X8174467Y-20031889D01*
X8174467Y-20031889D02*
X8174467Y-19984270D01*
X8174467Y-19984270D02*
X8164944Y-19965222D01*
X8164944Y-19965222D02*
X8155420Y-19955698D01*
X8155420Y-19955698D02*
X8136372Y-19946174D01*
X8136372Y-19946174D02*
X8098277Y-19946174D01*
X8098277Y-19946174D02*
X8079229Y-19955698D01*
X8079229Y-19955698D02*
X8069706Y-19965222D01*
X8069706Y-19965222D02*
X8060182Y-19984270D01*
X8298277Y-19869984D02*
X8317325Y-19869984D01*
X8317325Y-19869984D02*
X8336372Y-19879508D01*
X8336372Y-19879508D02*
X8345896Y-19889031D01*
X8345896Y-19889031D02*
X8355420Y-19908079D01*
X8355420Y-19908079D02*
X8364944Y-19946174D01*
X8364944Y-19946174D02*
X8364944Y-19993793D01*
X8364944Y-19993793D02*
X8355420Y-20031889D01*
X8355420Y-20031889D02*
X8345896Y-20050936D01*
X8345896Y-20050936D02*
X8336372Y-20060460D01*
X8336372Y-20060460D02*
X8317325Y-20069984D01*
X8317325Y-20069984D02*
X8298277Y-20069984D01*
X8298277Y-20069984D02*
X8279229Y-20060460D01*
X8279229Y-20060460D02*
X8269706Y-20050936D01*
X8269706Y-20050936D02*
X8260182Y-20031889D01*
X8260182Y-20031889D02*
X8250658Y-19993793D01*
X8250658Y-19993793D02*
X8250658Y-19946174D01*
X8250658Y-19946174D02*
X8260182Y-19908079D01*
X8260182Y-19908079D02*
X8269706Y-19889031D01*
X8269706Y-19889031D02*
X8279229Y-19879508D01*
X8279229Y-19879508D02*
X8298277Y-19869984D01*
X8441134Y-19869984D02*
X8441134Y-19908079D01*
X8517325Y-19869984D02*
X8517325Y-19908079D01*
X8812563Y-20146174D02*
X8803039Y-20136650D01*
X8803039Y-20136650D02*
X8783991Y-20108079D01*
X8783991Y-20108079D02*
X8774468Y-20089031D01*
X8774468Y-20089031D02*
X8764944Y-20060460D01*
X8764944Y-20060460D02*
X8755420Y-20012841D01*
X8755420Y-20012841D02*
X8755420Y-19974746D01*
X8755420Y-19974746D02*
X8764944Y-19927127D01*
X8764944Y-19927127D02*
X8774468Y-19898555D01*
X8774468Y-19898555D02*
X8783991Y-19879508D01*
X8783991Y-19879508D02*
X8803039Y-19850936D01*
X8803039Y-19850936D02*
X8812563Y-19841412D01*
X8879230Y-19889031D02*
X8888753Y-19879508D01*
X8888753Y-19879508D02*
X8907801Y-19869984D01*
X8907801Y-19869984D02*
X8955420Y-19869984D01*
X8955420Y-19869984D02*
X8974468Y-19879508D01*
X8974468Y-19879508D02*
X8983991Y-19889031D01*
X8983991Y-19889031D02*
X8993515Y-19908079D01*
X8993515Y-19908079D02*
X8993515Y-19927127D01*
X8993515Y-19927127D02*
X8983991Y-19955698D01*
X8983991Y-19955698D02*
X8869706Y-20069984D01*
X8869706Y-20069984D02*
X8993515Y-20069984D01*
X9231611Y-20069984D02*
X9231611Y-19869984D01*
X9317325Y-20069984D02*
X9317325Y-19965222D01*
X9317325Y-19965222D02*
X9307801Y-19946174D01*
X9307801Y-19946174D02*
X9288753Y-19936650D01*
X9288753Y-19936650D02*
X9260182Y-19936650D01*
X9260182Y-19936650D02*
X9241134Y-19946174D01*
X9241134Y-19946174D02*
X9231611Y-19955698D01*
X9441134Y-20069984D02*
X9422087Y-20060460D01*
X9422087Y-20060460D02*
X9412563Y-20050936D01*
X9412563Y-20050936D02*
X9403039Y-20031889D01*
X9403039Y-20031889D02*
X9403039Y-19974746D01*
X9403039Y-19974746D02*
X9412563Y-19955698D01*
X9412563Y-19955698D02*
X9422087Y-19946174D01*
X9422087Y-19946174D02*
X9441134Y-19936650D01*
X9441134Y-19936650D02*
X9469706Y-19936650D01*
X9469706Y-19936650D02*
X9488753Y-19946174D01*
X9488753Y-19946174D02*
X9498277Y-19955698D01*
X9498277Y-19955698D02*
X9507801Y-19974746D01*
X9507801Y-19974746D02*
X9507801Y-20031889D01*
X9507801Y-20031889D02*
X9498277Y-20050936D01*
X9498277Y-20050936D02*
X9488753Y-20060460D01*
X9488753Y-20060460D02*
X9469706Y-20069984D01*
X9469706Y-20069984D02*
X9441134Y-20069984D01*
X9622087Y-20069984D02*
X9603039Y-20060460D01*
X9603039Y-20060460D02*
X9593515Y-20041412D01*
X9593515Y-20041412D02*
X9593515Y-19869984D01*
X9774468Y-20060460D02*
X9755420Y-20069984D01*
X9755420Y-20069984D02*
X9717325Y-20069984D01*
X9717325Y-20069984D02*
X9698277Y-20060460D01*
X9698277Y-20060460D02*
X9688753Y-20041412D01*
X9688753Y-20041412D02*
X9688753Y-19965222D01*
X9688753Y-19965222D02*
X9698277Y-19946174D01*
X9698277Y-19946174D02*
X9717325Y-19936650D01*
X9717325Y-19936650D02*
X9755420Y-19936650D01*
X9755420Y-19936650D02*
X9774468Y-19946174D01*
X9774468Y-19946174D02*
X9783992Y-19965222D01*
X9783992Y-19965222D02*
X9783992Y-19984270D01*
X9783992Y-19984270D02*
X9688753Y-20003317D01*
X9860182Y-20060460D02*
X9879230Y-20069984D01*
X9879230Y-20069984D02*
X9917325Y-20069984D01*
X9917325Y-20069984D02*
X9936373Y-20060460D01*
X9936373Y-20060460D02*
X9945896Y-20041412D01*
X9945896Y-20041412D02*
X9945896Y-20031889D01*
X9945896Y-20031889D02*
X9936373Y-20012841D01*
X9936373Y-20012841D02*
X9917325Y-20003317D01*
X9917325Y-20003317D02*
X9888753Y-20003317D01*
X9888753Y-20003317D02*
X9869706Y-19993793D01*
X9869706Y-19993793D02*
X9860182Y-19974746D01*
X9860182Y-19974746D02*
X9860182Y-19965222D01*
X9860182Y-19965222D02*
X9869706Y-19946174D01*
X9869706Y-19946174D02*
X9888753Y-19936650D01*
X9888753Y-19936650D02*
X9917325Y-19936650D01*
X9917325Y-19936650D02*
X9936373Y-19946174D01*
X10012563Y-20146174D02*
X10022087Y-20136650D01*
X10022087Y-20136650D02*
X10041134Y-20108079D01*
X10041134Y-20108079D02*
X10050658Y-20089031D01*
X10050658Y-20089031D02*
X10060182Y-20060460D01*
X10060182Y-20060460D02*
X10069706Y-20012841D01*
X10069706Y-20012841D02*
X10069706Y-19974746D01*
X10069706Y-19974746D02*
X10060182Y-19927127D01*
X10060182Y-19927127D02*
X10050658Y-19898555D01*
X10050658Y-19898555D02*
X10041134Y-19879508D01*
X10041134Y-19879508D02*
X10022087Y-19850936D01*
X10022087Y-19850936D02*
X10012563Y-19841412D01*
M02*
